<?xml version="1.0" encoding="utf-8"?>
<!-- Generator: Adobe Illustrator 25.2.0, SVG Export Plug-In . SVG Version: 6.00 Build 0)  -->
<svg version="1.1" id="Layer_1" xmlns="http://www.w3.org/2000/svg" xmlns:xlink="http://www.w3.org/1999/xlink" x="0px" y="0px"
	 viewBox="0 0 141.7 141.7" style="enable-background:new 0 0 141.7 141.7;" xml:space="preserve">
<style type="text/css">
	.st0{fill:#5A3084;}
	.st1{fill:#F5A8BC;}
	.st2{fill:#93489A;}
	.st3{fill:#FFFFFF;}
</style>
<rect x="0" y="0" class="st0" width="141.7" height="141.7"/>
<rect x="52.7" y="62.1" class="st1" width="0.8" height="4.4"/>
<rect x="52.7" y="63.5" transform="matrix(-1.836970e-16 1 -1 -1.836970e-16 118.019 11.8425)" class="st1" width="0.8" height="2.8"/>
<rect x="96.1" y="59.8" class="st1" width="0.8" height="4.4"/>
<rect x="96.1" y="61.2" transform="matrix(-1.836970e-16 1 -1 -1.836970e-16 159.1693 -33.9176)" class="st1" width="0.8" height="2.8"/>
<rect x="54.1" y="73" class="st1" width="0.8" height="4.4"/>
<rect x="54.1" y="74.5" transform="matrix(-1.836970e-16 1 -1 -1.836970e-16 130.3291 21.3844)" class="st1" width="0.8" height="2.8"/>
<rect x="85.3" y="73.3" class="st1" width="0.8" height="4.4"/>
<rect x="85.3" y="74.8" transform="matrix(-1.836970e-16 1 -1 -1.836970e-16 161.8358 -9.5574)" class="st1" width="0.8" height="2.8"/>
<rect x="119.5" y="72.8" class="st1" width="0.8" height="4.4"/>
<rect x="119.5" y="74.3" transform="matrix(-1.836970e-16 1 -1 -1.836970e-16 195.5816 -44.1619)" class="st1" width="0.8" height="2.8"/>
<rect x="83.8" y="99.3" class="st1" width="0.8" height="4.4"/>
<rect x="83.8" y="100.8" transform="matrix(-1.836970e-16 1 -1 -1.836970e-16 186.3805 17.9249)" class="st1" width="0.8" height="2.8"/>
<g>
	<g>
		<g>
			<path class="st2" d="M52.7,31.8c-5.1,0-9.3-4.2-9.3-9.3s4.2-9.3,9.3-9.3s9.3,4.2,9.3,9.3S57.8,31.8,52.7,31.8z M52.7,14.3
				c-4.5,0-8.2,3.7-8.2,8.2s3.7,8.2,8.2,8.2s8.2-3.7,8.2-8.2S57.2,14.3,52.7,14.3z"/>
		</g>
	</g>
	<g>
		<g>
			<rect x="52.1" y="31.2" class="st2" width="1.1" height="8.8"/>
		</g>
	</g>
	<g>
		<g>
			<rect x="50.3" y="36.9" class="st2" width="4.7" height="1.1"/>
		</g>
	</g>
</g>
<g>
	<g>
		<g>
			<path class="st2" d="M68.2,123.2c-5.1,0-9.3-4.2-9.3-9.3c0-5.1,4.2-9.3,9.3-9.3s9.3,4.2,9.3,9.3C77.5,119,73.3,123.2,68.2,123.2z
				 M68.2,105.8c-4.5,0-8.2,3.7-8.2,8.2c0,4.5,3.7,8.2,8.2,8.2c4.5,0,8.2-3.7,8.2-8.2C76.4,109.4,72.7,105.8,68.2,105.8z"/>
		</g>
	</g>
	<g>
		<g>
			<rect x="67.6" y="122.6" class="st2" width="1.1" height="8.8"/>
		</g>
	</g>
	<g>
		<g>
			<rect x="65.8" y="128.4" class="st2" width="4.7" height="1.1"/>
		</g>
	</g>
</g>
<g>
	<g>
		<g>
			<path class="st2" d="M103,99.9c-5.1,0-9.3-4.2-9.3-9.3c0-5.1,4.2-9.3,9.3-9.3c5.1,0,9.3,4.2,9.3,9.3
				C112.3,95.8,108.1,99.9,103,99.9z M103,82.5c-4.5,0-8.2,3.7-8.2,8.2c0,4.5,3.7,8.2,8.2,8.2c4.5,0,8.2-3.7,8.2-8.2
				C111.2,86.1,107.5,82.5,103,82.5z"/>
		</g>
	</g>
	<g>
		<g>
			<rect x="102.4" y="99.4" class="st2" width="1.1" height="8.8"/>
		</g>
	</g>
	<g>
		<g>
			<rect x="100.6" y="105.1" class="st2" width="4.7" height="1.1"/>
		</g>
	</g>
</g>
<g>
	<g>
		<g>
			<path class="st2" d="M76.2,35.3c-2.9,0-5.3-2.4-5.3-5.3s2.4-5.3,5.3-5.3s5.3,2.4,5.3,5.3S79.1,35.3,76.2,35.3z M76.2,25.3
				c-2.6,0-4.7,2.1-4.7,4.7s2.1,4.7,4.7,4.7s4.7-2.1,4.7-4.7S78.8,25.3,76.2,25.3z"/>
		</g>
	</g>
	<g>
		<g>
			<rect x="75.9" y="35" class="st2" width="0.7" height="5.1"/>
		</g>
	</g>
	<g>
		<g>
			<rect x="74.8" y="38.2" class="st2" width="2.7" height="0.7"/>
		</g>
	</g>
</g>
<g>
	<g>
		<g>
			<path class="st2" d="M32.2,105.5c-2.9,0-5.3-2.4-5.3-5.3s2.4-5.3,5.3-5.3s5.3,2.4,5.3,5.3S35.1,105.5,32.2,105.5z M32.2,95.5
				c-2.6,0-4.7,2.1-4.7,4.7s2.1,4.7,4.7,4.7c2.6,0,4.7-2.1,4.7-4.7S34.8,95.5,32.2,95.5z"/>
		</g>
	</g>
	<g>
		<g>
			<rect x="31.9" y="105.2" class="st2" width="0.7" height="5.1"/>
		</g>
	</g>
	<g>
		<g>
			<rect x="30.8" y="108.5" class="st2" width="2.7" height="0.7"/>
		</g>
	</g>
</g>
<g>
	<g>
		<g>
			<path class="st2" d="M114.9,50.4c-2.9,0-5.3-2.4-5.3-5.3s2.4-5.3,5.3-5.3s5.3,2.4,5.3,5.3S117.9,50.4,114.9,50.4z M114.9,40.4
				c-2.6,0-4.7,2.1-4.7,4.7s2.1,4.7,4.7,4.7s4.7-2.1,4.7-4.7S117.5,40.4,114.9,40.4z"/>
		</g>
	</g>
	<g>
		<g>
			<rect x="114.6" y="50.1" class="st2" width="0.7" height="5.1"/>
		</g>
	</g>
	<g>
		<g>
			<rect x="113.6" y="53.4" class="st2" width="2.7" height="0.7"/>
		</g>
	</g>
</g>
<g>
	<g>
		<g>
			<path class="st2" d="M22.8,60.4c-2.9,0-5.3-2.4-5.3-5.3s2.4-5.3,5.3-5.3s5.3,2.4,5.3,5.3S25.8,60.4,22.8,60.4z M22.8,50.4
				c-2.6,0-4.7,2.1-4.7,4.7s2.1,4.7,4.7,4.7s4.7-2.1,4.7-4.7S25.4,50.4,22.8,50.4z"/>
		</g>
	</g>
	<g>
		<g>
			<rect x="22.5" y="60.1" class="st2" width="0.7" height="5.1"/>
		</g>
	</g>
	<g>
		<g>
			<rect x="21.5" y="63.4" class="st2" width="2.7" height="0.7"/>
		</g>
	</g>
</g>
<g>
	<g>
		<path class="st1" d="M42.7,53.6c0,0.3-0.2,0.6-0.6,0.6c-0.3,0-0.6-0.3-0.6-0.6c0-0.3,0.3-0.6,0.6-0.6C42.4,53,42.7,53.3,42.7,53.6
			z M41.6,60.4v-5.3h1v5.3H41.6z"/>
		<path class="st1" d="M45.1,57.6L45.1,57.6c0.2-0.2,0.3-0.4,0.5-0.6l1.6-1.8h1.2l-2,2.2l2.3,3.1h-1.2l-1.8-2.5l-0.5,0.5v2h-1v-7.8
			h1V57.6z"/>
		<path class="st1" d="M56.1,55.1c0,0.4,0,0.8,0,1.5v3.1c0,1.2-0.2,2-0.8,2.4c-0.5,0.5-1.3,0.6-1.9,0.6c-0.6,0-1.3-0.2-1.8-0.4
			l0.2-0.7c0.3,0.2,0.9,0.4,1.6,0.4c1,0,1.7-0.5,1.7-1.8v-0.6h0c-0.3,0.5-0.9,0.9-1.7,0.9c-1.3,0-2.3-1.1-2.3-2.6
			c0-1.8,1.2-2.8,2.4-2.8c0.9,0,1.4,0.5,1.6,0.9h0l0-0.8H56.1z M55.1,57.2c0-0.2,0-0.3-0.1-0.4c-0.2-0.6-0.6-1-1.3-1
			c-0.9,0-1.6,0.8-1.6,2c0,1,0.5,1.9,1.6,1.9c0.6,0,1.1-0.4,1.3-1c0.1-0.2,0.1-0.3,0.1-0.5V57.2z"/>
		<path class="st1" d="M58.2,57.9c0,1.3,0.9,1.8,1.8,1.8c0.7,0,1.1-0.1,1.5-0.3l0.2,0.7c-0.3,0.2-0.9,0.3-1.8,0.3
			c-1.6,0-2.6-1.1-2.6-2.7c0-1.6,0.9-2.9,2.5-2.9c1.7,0,2.2,1.5,2.2,2.5c0,0.2,0,0.3,0,0.4H58.2z M61,57.3c0-0.6-0.3-1.6-1.3-1.6
			c-1,0-1.4,0.9-1.5,1.6H61z"/>
		<path class="st1" d="M63.1,60.4c0-0.4,0-0.9,0-1.4v-6.4h1V56h0c0.3-0.6,1-1,1.8-1c1.3,0,2.2,1.1,2.2,2.7c0,1.9-1.2,2.8-2.4,2.8
			c-0.8,0-1.4-0.3-1.8-1h0l0,0.9H63.1z M64.1,58.3c0,0.1,0,0.2,0,0.3c0.2,0.7,0.7,1.1,1.4,1.1c1,0,1.6-0.8,1.6-2c0-1.1-0.5-2-1.6-2
			c-0.7,0-1.3,0.4-1.5,1.2c0,0.1-0.1,0.2-0.1,0.4V58.3z"/>
		<path class="st1" d="M69.4,56.8c0-0.6,0-1.2,0-1.6h0.8l0,1h0c0.2-0.7,0.8-1.2,1.5-1.2c0.1,0,0.2,0,0.3,0v0.9c-0.1,0-0.2,0-0.3,0
			c-0.7,0-1.2,0.5-1.3,1.2c0,0.1,0,0.3,0,0.4v2.8h-1V56.8z"/>
		<path class="st1" d="M77.4,59c0,0.5,0,1,0,1.4h-0.9l-0.1-0.9h0c-0.3,0.4-0.8,1-1.7,1c-0.8,0-1.8-0.5-1.8-2.3v-3.1h1v2.9
			c0,1,0.3,1.7,1.2,1.7c0.6,0,1.1-0.4,1.3-0.9c0.1-0.1,0.1-0.3,0.1-0.5v-3.2h1V59z"/>
		<path class="st1" d="M80,53.6c0,0.3-0.2,0.6-0.6,0.6c-0.3,0-0.6-0.3-0.6-0.6c0-0.3,0.3-0.6,0.6-0.6C79.8,53,80,53.3,80,53.6z
			 M79,60.4v-5.3h1v5.3H79z"/>
		<path class="st1" d="M82.5,57.6L82.5,57.6c0.2-0.2,0.3-0.4,0.5-0.6l1.6-1.8h1.2l-2,2.2l2.3,3.1h-1.2l-1.8-2.5l-0.5,0.5v2h-1v-7.8
			h1V57.6z"/>
		<path class="st1" d="M88.9,52.7h1V56h0c0.2-0.3,0.4-0.5,0.7-0.7c0.3-0.2,0.6-0.3,1-0.3c0.7,0,1.8,0.4,1.8,2.3v3.1h-1v-3
			c0-0.9-0.3-1.6-1.2-1.6c-0.6,0-1.1,0.4-1.3,1c-0.1,0.1-0.1,0.3-0.1,0.5v3.2h-1V52.7z"/>
		<path class="st1" d="M95.5,57.9c0,1.3,0.9,1.8,1.8,1.8c0.7,0,1.1-0.1,1.5-0.3l0.2,0.7c-0.3,0.2-0.9,0.3-1.8,0.3
			c-1.6,0-2.6-1.1-2.6-2.7c0-1.6,0.9-2.9,2.5-2.9c1.7,0,2.2,1.5,2.2,2.5c0,0.2,0,0.3,0,0.4H95.5z M98.4,57.3c0-0.6-0.3-1.6-1.3-1.6
			c-1,0-1.4,0.9-1.5,1.6H98.4z"/>
		<path class="st1" d="M101.6,53.6v1.5h1.4v0.7h-1.4v2.9c0,0.7,0.2,1,0.7,1c0.3,0,0.4,0,0.6-0.1l0,0.7c-0.2,0.1-0.5,0.1-0.9,0.1
			c-0.4,0-0.8-0.1-1-0.4c-0.3-0.3-0.4-0.8-0.4-1.4v-2.9h-0.8v-0.7h0.8v-1.3L101.6,53.6z"/>
		<path class="st1" d="M23.1,72.5c0.3,0.2,0.8,0.4,1.3,0.4c0.7,0,1-0.3,1-0.8c0-0.5-0.3-0.7-1-1c-1-0.3-1.4-0.9-1.4-1.5
			c0-0.9,0.7-1.6,1.8-1.6c0.5,0,1,0.2,1.3,0.3l-0.2,0.7c-0.2-0.1-0.6-0.3-1.1-0.3c-0.6,0-0.9,0.3-0.9,0.7c0,0.4,0.3,0.6,1,0.9
			c0.9,0.3,1.4,0.8,1.4,1.6c0,0.9-0.7,1.6-2,1.6c-0.6,0-1.1-0.1-1.5-0.4L23.1,72.5z"/>
		<path class="st1" d="M28.7,66.7v1.5h1.4V69h-1.4v2.9c0,0.7,0.2,1,0.7,1c0.3,0,0.4,0,0.6-0.1l0,0.7c-0.2,0.1-0.5,0.1-0.9,0.1
			c-0.4,0-0.8-0.1-1-0.4c-0.3-0.3-0.4-0.8-0.4-1.4V69h-0.8v-0.7h0.8V67L28.7,66.7z"/>
		<path class="st1" d="M34.1,73.5L34,72.9h0c-0.3,0.4-0.9,0.8-1.6,0.8c-1.1,0-1.6-0.8-1.6-1.5c0-1.3,1.1-2,3.2-2V70
			c0-0.4-0.1-1.2-1.2-1.2c-0.5,0-1,0.2-1.4,0.4l-0.2-0.6c0.4-0.3,1.1-0.5,1.7-0.5c1.6,0,2,1.1,2,2.2v2c0,0.5,0,0.9,0.1,1.3H34.1z
			 M33.9,70.8c-1,0-2.2,0.2-2.2,1.2c0,0.6,0.4,0.9,0.9,0.9c0.7,0,1.1-0.4,1.3-0.9c0-0.1,0.1-0.2,0.1-0.3V70.8z"/>
		<path class="st1" d="M36.4,69.7c0-0.5,0-1,0-1.4h0.9l0.1,0.9h0c0.3-0.5,0.9-1,1.7-1c0.7,0,1.9,0.4,1.9,2.3v3.2h-1v-3
			c0-0.9-0.3-1.6-1.2-1.6c-0.6,0-1.1,0.4-1.3,1c0,0.1-0.1,0.3-0.1,0.4v3.2h-1V69.7z"/>
		<path class="st1" d="M47,65.8v6.4c0,0.5,0,1,0,1.4h-0.9l0-0.9h0c-0.3,0.6-0.9,1-1.8,1c-1.3,0-2.3-1.1-2.3-2.7
			c0-1.8,1.1-2.8,2.4-2.8c0.8,0,1.4,0.4,1.6,0.8h0v-3.2H47z M46.1,70.4c0-0.1,0-0.3,0-0.4c-0.1-0.6-0.7-1.1-1.4-1.1
			c-1,0-1.6,0.9-1.6,2c0,1.1,0.5,2,1.6,2c0.6,0,1.2-0.4,1.4-1.1c0-0.1,0-0.3,0-0.4V70.4z"/>
		<path class="st1" d="M51.6,73.5l-0.1-0.7h0c-0.3,0.4-0.9,0.8-1.6,0.8c-1.1,0-1.6-0.8-1.6-1.5c0-1.3,1.1-2,3.2-2V70
			c0-0.4-0.1-1.2-1.2-1.2c-0.5,0-1,0.2-1.4,0.4l-0.2-0.6c0.4-0.3,1.1-0.5,1.7-0.5c1.6,0,2,1.1,2,2.2v2c0,0.5,0,0.9,0.1,1.3H51.6z
			 M51.4,70.8c-1,0-2.2,0.2-2.2,1.2c0,0.6,0.4,0.9,0.9,0.9c0.7,0,1.1-0.4,1.3-0.9c0-0.1,0.1-0.2,0.1-0.3V70.8z"/>
		<path class="st1" d="M56.8,73.5l-0.1-0.7h0c-0.3,0.4-0.9,0.8-1.6,0.8c-1.1,0-1.6-0.8-1.6-1.5c0-1.3,1.1-2,3.2-2V70
			c0-0.4-0.1-1.2-1.2-1.2c-0.5,0-1,0.2-1.4,0.4l-0.2-0.6c0.4-0.3,1.1-0.5,1.7-0.5c1.6,0,2,1.1,2,2.2v2c0,0.5,0,0.9,0.1,1.3H56.8z
			 M56.7,70.8c-1,0-2.2,0.2-2.2,1.2c0,0.6,0.4,0.9,0.9,0.9c0.7,0,1.1-0.4,1.3-0.9c0-0.1,0.1-0.2,0.1-0.3V70.8z"/>
		<path class="st1" d="M59.2,69.9c0-0.6,0-1.2,0-1.6H60l0,1h0c0.2-0.7,0.8-1.2,1.5-1.2c0.1,0,0.2,0,0.3,0v0.9c-0.1,0-0.2,0-0.3,0
			c-0.7,0-1.2,0.5-1.3,1.2c0,0.1,0,0.3,0,0.4v2.8h-1V69.9z"/>
		<path class="st1" d="M67.2,65.8v6.4c0,0.5,0,1,0,1.4h-0.9l0-0.9h0c-0.3,0.6-0.9,1-1.8,1c-1.3,0-2.3-1.1-2.3-2.7
			c0-1.8,1.1-2.8,2.4-2.8c0.8,0,1.4,0.4,1.6,0.8h0v-3.2H67.2z M66.2,70.4c0-0.1,0-0.3,0-0.4c-0.1-0.6-0.7-1.1-1.4-1.1
			c-1,0-1.6,0.9-1.6,2c0,1.1,0.5,2,1.6,2c0.6,0,1.2-0.4,1.4-1.1c0-0.1,0-0.3,0-0.4V70.4z"/>
		<path class="st1" d="M72.3,71.2l-0.8,2.3h-1l2.5-7.4h1.1l2.5,7.4h-1l-0.8-2.3H72.3z M74.7,70.5L74,68.3c-0.2-0.5-0.3-0.9-0.4-1.3
			h0c-0.1,0.4-0.2,0.9-0.4,1.3l-0.7,2.1H74.7z"/>
		<path class="st1" d="M82.2,65.8v6.4c0,0.5,0,1,0,1.4h-0.9l0-0.9h0c-0.3,0.6-0.9,1-1.8,1c-1.3,0-2.3-1.1-2.3-2.7
			c0-1.8,1.1-2.8,2.4-2.8c0.8,0,1.4,0.4,1.6,0.8h0v-3.2H82.2z M81.2,70.4c0-0.1,0-0.3,0-0.4c-0.1-0.6-0.7-1.1-1.4-1.1
			c-1,0-1.6,0.9-1.6,2c0,1.1,0.5,2,1.6,2c0.6,0,1.2-0.4,1.4-1.1c0-0.1,0-0.3,0-0.4V70.4z"/>
		<path class="st1" d="M88.6,70.8c0,2-1.4,2.8-2.6,2.8c-1.4,0-2.5-1-2.5-2.7c0-1.8,1.2-2.8,2.6-2.8C87.6,68.1,88.6,69.2,88.6,70.8z
			 M84.4,70.9c0,1.2,0.7,2,1.6,2c0.9,0,1.6-0.9,1.6-2.1c0-0.9-0.4-2-1.6-2C84.9,68.8,84.4,69.9,84.4,70.9z"/>
		<path class="st1" d="M89.8,73.5c0-0.4,0-0.9,0-1.4v-6.4h1v3.3h0c0.3-0.6,1-1,1.8-1c1.3,0,2.2,1.1,2.2,2.7c0,1.9-1.2,2.8-2.4,2.8
			c-0.8,0-1.4-0.3-1.8-1h0l0,0.9H89.8z M90.7,71.4c0,0.1,0,0.2,0,0.3c0.2,0.7,0.7,1.1,1.4,1.1c1,0,1.6-0.8,1.6-2c0-1.1-0.5-2-1.6-2
			c-0.7,0-1.3,0.4-1.5,1.2c0,0.1-0.1,0.2-0.1,0.4V71.4z"/>
		<path class="st1" d="M96.5,71.1c0,1.3,0.9,1.8,1.8,1.8c0.7,0,1.1-0.1,1.5-0.3l0.2,0.7c-0.3,0.2-0.9,0.3-1.8,0.3
			c-1.6,0-2.6-1.1-2.6-2.7s0.9-2.9,2.5-2.9c1.7,0,2.2,1.5,2.2,2.5c0,0.2,0,0.3,0,0.4H96.5z M99.4,70.4c0-0.6-0.3-1.6-1.3-1.6
			c-1,0-1.4,0.9-1.5,1.6H99.4z"/>
		<path class="st1" d="M103.9,73.5V69h-0.7v-0.7h0.7V68c0-0.7,0.2-1.4,0.6-1.8c0.4-0.3,0.8-0.5,1.3-0.5c0.3,0,0.6,0.1,0.8,0.2
			l-0.1,0.7c-0.1-0.1-0.3-0.1-0.6-0.1c-0.8,0-1,0.7-1,1.5v0.3h1.3V69h-1.3v4.6H103.9z"/>
		<path class="st1" d="M111.6,70.8c0,2-1.4,2.8-2.6,2.8c-1.4,0-2.5-1-2.5-2.7c0-1.8,1.2-2.8,2.6-2.8
			C110.6,68.1,111.6,69.2,111.6,70.8z M107.4,70.9c0,1.2,0.7,2,1.6,2c0.9,0,1.6-0.9,1.6-2.1c0-0.9-0.4-2-1.6-2
			C107.9,68.8,107.4,69.9,107.4,70.9z"/>
		<path class="st1" d="M112.8,69.7c0-0.5,0-1,0-1.4h0.9l0.1,0.9h0c0.3-0.5,0.9-1,1.7-1c0.7,0,1.9,0.4,1.9,2.3v3.2h-1v-3
			c0-0.9-0.3-1.6-1.2-1.6c-0.6,0-1.1,0.4-1.3,1c0,0.1-0.1,0.3-0.1,0.4v3.2h-1V69.7z"/>
		<path class="st1" d="M120,66.7v1.5h1.4V69H120v2.9c0,0.7,0.2,1,0.7,1c0.3,0,0.4,0,0.6-0.1l0,0.7c-0.2,0.1-0.5,0.1-0.9,0.1
			c-0.4,0-0.8-0.1-1-0.4c-0.3-0.3-0.4-0.8-0.4-1.4V69h-0.8v-0.7h0.8V67L120,66.7z"/>
		<path class="st1" d="M28.7,81.3l0.7,2.7c0.2,0.6,0.3,1.1,0.4,1.7h0c0.1-0.5,0.3-1.1,0.5-1.7l0.9-2.7h0.8l0.8,2.6
			c0.2,0.6,0.3,1.2,0.5,1.7h0c0.1-0.5,0.2-1.1,0.4-1.7l0.8-2.7h1l-1.7,5.3h-0.9L32,84.1c-0.2-0.6-0.3-1.1-0.5-1.7h0
			c-0.1,0.6-0.3,1.2-0.5,1.7l-0.9,2.5h-0.9l-1.6-5.3H28.7z"/>
		<path class="st1" d="M39.2,86.6L39.1,86h0c-0.3,0.4-0.9,0.8-1.6,0.8c-1.1,0-1.6-0.8-1.6-1.5c0-1.3,1.1-2,3.2-2v-0.1
			c0-0.4-0.1-1.2-1.2-1.2c-0.5,0-1,0.2-1.4,0.4l-0.2-0.6c0.4-0.3,1.1-0.5,1.7-0.5c1.6,0,2,1.1,2,2.2v2c0,0.5,0,0.9,0.1,1.3H39.2z
			 M39.1,83.9c-1,0-2.2,0.2-2.2,1.2c0,0.6,0.4,0.9,0.9,0.9c0.7,0,1.1-0.4,1.3-0.9c0-0.1,0.1-0.2,0.1-0.3V83.9z"/>
		<path class="st1" d="M41.5,82.8c0-0.5,0-1,0-1.4h0.9l0.1,0.9h0c0.3-0.5,0.9-1,1.7-1c0.7,0,1.9,0.4,1.9,2.3v3.2h-1v-3
			c0-0.9-0.3-1.6-1.2-1.6c-0.6,0-1.1,0.4-1.3,1c0,0.1-0.1,0.3-0.1,0.4v3.2h-1V82.8z"/>
		<path class="st1" d="M48.7,79.8v1.5h1.4v0.7h-1.4v2.9c0,0.7,0.2,1,0.7,1c0.3,0,0.4,0,0.6-0.1l0,0.7c-0.2,0.1-0.5,0.1-0.9,0.1
			c-0.4,0-0.8-0.1-1-0.4c-0.3-0.3-0.4-0.8-0.4-1.4v-2.9H47v-0.7h0.8v-1.3L48.7,79.8z"/>
		<path class="st1" d="M54.6,79.8c0,0.3-0.2,0.6-0.6,0.6c-0.3,0-0.6-0.3-0.6-0.6c0-0.3,0.3-0.6,0.6-0.6
			C54.3,79.2,54.6,79.5,54.6,79.8z M53.5,86.6v-5.3h1v5.3H53.5z"/>
		<path class="st1" d="M57,83.8L57,83.8c0.2-0.2,0.3-0.4,0.5-0.6l1.6-1.8h1.2l-2,2.2l2.3,3.1h-1.2l-1.8-2.5L57,84.6v2h-1v-7.8h1
			V83.8z"/>
		<path class="st1" d="M63.4,86.6c0-0.4,0-0.9,0-1.4v-6.4h1v3.3h0c0.3-0.6,1-1,1.8-1c1.3,0,2.2,1.1,2.2,2.7c0,1.9-1.2,2.8-2.4,2.8
			c-0.8,0-1.4-0.3-1.8-1h0l0,0.9H63.4z M64.4,84.5c0,0.1,0,0.2,0,0.3c0.2,0.7,0.7,1.1,1.4,1.1c1,0,1.6-0.8,1.6-2c0-1.1-0.5-2-1.6-2
			c-0.7,0-1.3,0.4-1.5,1.2c0,0.1-0.1,0.2-0.1,0.4V84.5z"/>
		<path class="st1" d="M70.2,84.2c0,1.3,0.9,1.8,1.8,1.8c0.7,0,1.1-0.1,1.5-0.3l0.2,0.7c-0.3,0.2-0.9,0.3-1.8,0.3
			c-1.6,0-2.6-1.1-2.6-2.7s0.9-2.9,2.5-2.9c1.7,0,2.2,1.5,2.2,2.5c0,0.2,0,0.3,0,0.4H70.2z M73,83.5c0-0.6-0.3-1.6-1.3-1.6
			c-1,0-1.4,0.9-1.5,1.6H73z"/>
		<path class="st1" d="M75.2,82.8c0-0.5,0-1,0-1.4H76l0.1,0.9h0c0.3-0.5,0.9-1,1.7-1c0.7,0,1.9,0.4,1.9,2.3v3.2h-1v-3
			c0-0.9-0.3-1.6-1.2-1.6c-0.6,0-1.1,0.4-1.3,1c0,0.1-0.1,0.3-0.1,0.4v3.2h-1V82.8z"/>
		<path class="st1" d="M87.3,86.4c-0.3,0.1-0.8,0.3-1.5,0.3c-1.6,0-2.6-1.1-2.6-2.7c0-1.6,1.1-2.8,2.8-2.8c0.6,0,1.1,0.1,1.3,0.3
			l-0.2,0.7C86.9,82.1,86.5,82,86,82c-1.2,0-1.9,0.9-1.9,2c0,1.2,0.8,2,1.8,2c0.5,0,0.9-0.1,1.2-0.3L87.3,86.4z"/>
		<path class="st1" d="M88.4,83c0-0.6,0-1.2,0-1.7h0.8l0,1h0c0.2-0.7,0.8-1.2,1.5-1.2c0.1,0,0.2,0,0.3,0v0.9c-0.1,0-0.2,0-0.3,0
			c-0.7,0-1.2,0.5-1.3,1.2c0,0.1,0,0.3,0,0.4v2.8h-1V83z"/>
		<path class="st1" d="M92.4,84.2c0,1.3,0.9,1.8,1.8,1.8c0.7,0,1.1-0.1,1.5-0.3l0.2,0.7c-0.3,0.2-0.9,0.3-1.8,0.3
			c-1.6,0-2.6-1.1-2.6-2.7s0.9-2.9,2.5-2.9c1.7,0,2.2,1.5,2.2,2.5c0,0.2,0,0.3,0,0.4H92.4z M95.2,83.5c0-0.6-0.3-1.6-1.3-1.6
			c-1,0-1.4,0.9-1.5,1.6H95.2z"/>
		<path class="st1" d="M100.3,86.6l-0.1-0.7h0c-0.3,0.4-0.9,0.8-1.6,0.8c-1.1,0-1.6-0.8-1.6-1.5c0-1.3,1.1-2,3.2-2v-0.1
			c0-0.4-0.1-1.2-1.2-1.2c-0.5,0-1,0.2-1.4,0.4l-0.2-0.6c0.4-0.3,1.1-0.5,1.7-0.5c1.6,0,2,1.1,2,2.2v2c0,0.5,0,0.9,0.1,1.3H100.3z
			 M100.1,83.9c-1,0-2.2,0.2-2.2,1.2c0,0.6,0.4,0.9,0.9,0.9c0.7,0,1.1-0.4,1.3-0.9c0-0.1,0.1-0.2,0.1-0.3V83.9z"/>
		<path class="st1" d="M103.7,79.8v1.5h1.4v0.7h-1.4v2.9c0,0.7,0.2,1,0.7,1c0.3,0,0.4,0,0.6-0.1l0,0.7c-0.2,0.1-0.5,0.1-0.9,0.1
			c-0.4,0-0.8-0.1-1-0.4c-0.3-0.3-0.4-0.8-0.4-1.4v-2.9H102v-0.7h0.8v-1.3L103.7,79.8z"/>
		<path class="st1" d="M107.3,79.8c0,0.3-0.2,0.6-0.6,0.6c-0.3,0-0.6-0.3-0.6-0.6c0-0.3,0.3-0.6,0.6-0.6
			C107,79.2,107.3,79.5,107.3,79.8z M106.2,86.6v-5.3h1v5.3H106.2z"/>
		<path class="st1" d="M109.3,84.2c0,1.3,0.9,1.8,1.8,1.8c0.7,0,1.1-0.1,1.5-0.3l0.2,0.7c-0.3,0.2-0.9,0.3-1.8,0.3
			c-1.6,0-2.6-1.1-2.6-2.7s0.9-2.9,2.5-2.9c1.7,0,2.2,1.5,2.2,2.5c0,0.2,0,0.3,0,0.4H109.3z M112.1,83.5c0-0.6-0.3-1.6-1.3-1.6
			c-1,0-1.4,0.9-1.5,1.6H112.1z"/>
		<path class="st1" d="M114.3,86.6v-4.6h-0.7v-0.7h0.7v-0.3c0-0.7,0.2-1.4,0.6-1.8c0.4-0.3,0.8-0.5,1.3-0.5c0.3,0,0.6,0.1,0.8,0.2
			l-0.1,0.7c-0.1-0.1-0.3-0.1-0.6-0.1c-0.8,0-1,0.7-1,1.5v0.3h1.3v0.7h-1.3v4.6H114.3z"/>
		<path class="st1" d="M45.2,92h1v3.3h0c0.2-0.3,0.4-0.5,0.7-0.7c0.3-0.2,0.6-0.3,1-0.3c0.7,0,1.8,0.4,1.8,2.3v3.1h-1v-3
			c0-0.9-0.3-1.6-1.2-1.6c-0.6,0-1.1,0.4-1.3,1c-0.1,0.1-0.1,0.3-0.1,0.5v3.2h-1V92z"/>
		<path class="st1" d="M51.8,97.3c0,1.3,0.9,1.8,1.8,1.8c0.7,0,1.1-0.1,1.5-0.3l0.2,0.7c-0.3,0.2-0.9,0.3-1.8,0.3
			c-1.6,0-2.6-1.1-2.6-2.7c0-1.6,0.9-2.9,2.5-2.9c1.7,0,2.2,1.5,2.2,2.5c0,0.2,0,0.3,0,0.4H51.8z M54.6,96.6c0-0.6-0.3-1.6-1.3-1.6
			c-1,0-1.4,0.9-1.5,1.6H54.6z"/>
		<path class="st1" d="M56.7,96.1c0-0.6,0-1.2,0-1.7h0.8l0,1h0c0.2-0.7,0.8-1.2,1.5-1.2c0.1,0,0.2,0,0.3,0v0.9c-0.1,0-0.2,0-0.3,0
			c-0.7,0-1.2,0.5-1.3,1.2c0,0.1,0,0.3,0,0.4v2.8h-1V96.1z"/>
		<path class="st1" d="M60.2,98.7c0.3,0.2,0.8,0.4,1.3,0.4c0.7,0,1-0.3,1-0.8c0-0.5-0.3-0.7-1-1c-1-0.3-1.4-0.9-1.4-1.5
			c0-0.9,0.7-1.6,1.8-1.6c0.5,0,1,0.2,1.3,0.3L63,95.3c-0.2-0.1-0.6-0.3-1.1-0.3c-0.6,0-0.9,0.3-0.9,0.7c0,0.4,0.3,0.6,1,0.9
			c0.9,0.3,1.4,0.8,1.4,1.6c0,0.9-0.7,1.6-2,1.6c-0.6,0-1.1-0.1-1.5-0.4L60.2,98.7z"/>
		<path class="st1" d="M65.2,97.3c0,1.3,0.9,1.8,1.8,1.8c0.7,0,1.1-0.1,1.5-0.3l0.2,0.7c-0.3,0.2-0.9,0.3-1.8,0.3
			c-1.6,0-2.6-1.1-2.6-2.7c0-1.6,0.9-2.9,2.5-2.9c1.7,0,2.2,1.5,2.2,2.5c0,0.2,0,0.3,0,0.4H65.2z M68,96.6c0-0.6-0.3-1.6-1.3-1.6
			c-1,0-1.4,0.9-1.5,1.6H68z"/>
		<path class="st1" d="M70.1,95.9c0-0.5,0-1,0-1.4h0.9l0.1,0.9h0c0.3-0.5,0.9-1,1.7-1c0.7,0,1.9,0.4,1.9,2.3v3.2h-1v-3
			c0-0.9-0.3-1.6-1.2-1.6c-0.6,0-1.1,0.4-1.3,1c0,0.1-0.1,0.3-0.1,0.4v3.2h-1V95.9z"/>
		<path class="st1" d="M80.7,92v6.4c0,0.5,0,1,0,1.4h-0.9l0-0.9h0c-0.3,0.6-0.9,1-1.8,1c-1.3,0-2.3-1.1-2.3-2.7
			c0-1.8,1.1-2.8,2.4-2.8c0.8,0,1.4,0.4,1.6,0.8h0V92H80.7z M79.8,96.6c0-0.1,0-0.3,0-0.4c-0.1-0.6-0.7-1.1-1.4-1.1
			c-1,0-1.6,0.9-1.6,2c0,1.1,0.5,2,1.6,2c0.6,0,1.2-0.4,1.4-1.1c0-0.1,0-0.3,0-0.4V96.6z"/>
		<path class="st1" d="M87.1,97c0,2-1.4,2.8-2.6,2.8c-1.4,0-2.5-1-2.5-2.7c0-1.8,1.2-2.8,2.6-2.8C86.1,94.3,87.1,95.4,87.1,97z
			 M82.9,97.1c0,1.2,0.7,2,1.6,2c0.9,0,1.6-0.9,1.6-2.1c0-0.9-0.4-2-1.6-2C83.4,95,82.9,96.1,82.9,97.1z"/>
		<path class="st1" d="M93.1,97c0,2-1.4,2.8-2.6,2.8c-1.4,0-2.5-1-2.5-2.7c0-1.8,1.2-2.8,2.6-2.8C92.1,94.3,93.1,95.4,93.1,97z
			 M88.9,97.1c0,1.2,0.7,2,1.6,2c0.9,0,1.6-0.9,1.6-2.1c0-0.9-0.4-2-1.6-2C89.4,95,88.9,96.1,88.9,97.1z"/>
		<path class="st1" d="M98.9,92v6.4c0,0.5,0,1,0,1.4h-0.9l0-0.9h0c-0.3,0.6-0.9,1-1.8,1c-1.3,0-2.3-1.1-2.3-2.7
			c0-1.8,1.1-2.8,2.4-2.8c0.8,0,1.4,0.4,1.6,0.8h0V92H98.9z M97.9,96.6c0-0.1,0-0.3,0-0.4c-0.1-0.6-0.7-1.1-1.4-1.1
			c-1,0-1.6,0.9-1.6,2c0,1.1,0.5,2,1.6,2c0.6,0,1.2-0.4,1.4-1.1c0-0.1,0-0.3,0-0.4V96.6z"/>
	</g>
</g>
<g>
	<g>
		<g>
			<path class="st2" d="M107.4,23.5c-5.1,0-9.3-4.2-9.3-9.3s4.2-9.3,9.3-9.3s9.3,4.2,9.3,9.3S112.5,23.5,107.4,23.5z M107.4,6.1
				c-4.5,0-8.2,3.7-8.2,8.2s3.7,8.2,8.2,8.2s8.2-3.7,8.2-8.2S111.9,6.1,107.4,6.1z"/>
		</g>
	</g>
	<g>
		<g>
			<rect x="106.8" y="23" class="st2" width="1.1" height="8.8"/>
		</g>
	</g>
	<g>
		<g>
			<rect x="105" y="28.7" class="st2" width="4.7" height="1.1"/>
		</g>
	</g>
</g>
<g>
	<g>
		<g>
			<path class="st2" d="M14.6,127.8c-5.1,0-9.3-4.2-9.3-9.3c0-5.1,4.2-9.3,9.3-9.3s9.3,4.2,9.3,9.3
				C23.9,123.6,19.7,127.8,14.6,127.8z M14.6,110.4c-4.5,0-8.2,3.7-8.2,8.2s3.7,8.2,8.2,8.2s8.2-3.7,8.2-8.2S19.1,110.4,14.6,110.4z
				"/>
		</g>
	</g>
	<g>
		<g>
			<rect x="14" y="127.2" class="st2" width="1.1" height="8.8"/>
		</g>
	</g>
	<g>
		<g>
			<rect x="12.2" y="133" class="st2" width="4.7" height="1.1"/>
		</g>
	</g>
</g>
<g>
	<g>
		<g>
			<path class="st2" d="M44.5,126.2c-2.9,0-5.3-2.4-5.3-5.3s2.4-5.3,5.3-5.3s5.3,2.4,5.3,5.3S47.5,126.2,44.5,126.2z M44.5,116.2
				c-2.6,0-4.7,2.1-4.7,4.7c0,2.6,2.1,4.7,4.7,4.7s4.7-2.1,4.7-4.7C49.2,118.3,47.1,116.2,44.5,116.2z"/>
		</g>
	</g>
	<g>
		<g>
			<rect x="44.2" y="125.8" class="st2" width="0.7" height="5.1"/>
		</g>
	</g>
	<g>
		<g>
			<rect x="43.2" y="129.1" class="st2" width="2.7" height="0.7"/>
		</g>
	</g>
</g>
<g>
	<g>
		<g>
			<path class="st2" d="M127.6,89.7c-2.9,0-5.3-2.4-5.3-5.3c0-2.9,2.4-5.3,5.3-5.3s5.3,2.4,5.3,5.3C133,87.3,130.6,89.7,127.6,89.7z
				 M127.6,79.7c-2.6,0-4.7,2.1-4.7,4.7c0,2.6,2.1,4.7,4.7,4.7s4.7-2.1,4.7-4.7C132.3,81.8,130.2,79.7,127.6,79.7z"/>
		</g>
	</g>
	<g>
		<g>
			<rect x="127.3" y="89.4" class="st2" width="0.7" height="5.1"/>
		</g>
	</g>
	<g>
		<g>
			<rect x="126.3" y="92.7" class="st2" width="2.7" height="0.7"/>
		</g>
	</g>
</g>
<g>
	<g>
		<g>
			<path class="st2" d="M129,62.7c-2.9,0-5.3-2.4-5.3-5.3c0-2.9,2.4-5.3,5.3-5.3c2.9,0,5.3,2.4,5.3,5.3
				C134.3,60.3,131.9,62.7,129,62.7z M129,52.7c-2.6,0-4.7,2.1-4.7,4.7c0,2.6,2.1,4.7,4.7,4.7s4.7-2.1,4.7-4.7
				C133.7,54.8,131.6,52.7,129,52.7z"/>
		</g>
	</g>
	<g>
		<g>
			<rect x="128.7" y="62.4" class="st2" width="0.7" height="5.1"/>
		</g>
	</g>
	<g>
		<g>
			<rect x="127.6" y="65.7" class="st2" width="2.7" height="0.7"/>
		</g>
	</g>
</g>
<g>
	<g>
		<g>
			<path class="st2" d="M23.2,28.2c-2.9,0-5.3-2.4-5.3-5.3s2.4-5.3,5.3-5.3s5.3,2.4,5.3,5.3S26.1,28.2,23.2,28.2z M23.2,18.2
				c-2.6,0-4.7,2.1-4.7,4.7s2.1,4.7,4.7,4.7s4.7-2.1,4.7-4.7S25.8,18.2,23.2,18.2z"/>
		</g>
	</g>
	<g>
		<g>
			<rect x="22.8" y="27.9" class="st2" width="0.7" height="5.1"/>
		</g>
	</g>
	<g>
		<g>
			<rect x="21.8" y="31.2" class="st2" width="2.7" height="0.7"/>
		</g>
	</g>
</g>
<g>
	<g>
		<g>
			<path class="st2" d="M15.1,94.9c-2.9,0-5.3-2.4-5.3-5.3s2.4-5.3,5.3-5.3s5.3,2.4,5.3,5.3S18.1,94.9,15.1,94.9z M15.1,84.9
				c-2.6,0-4.7,2.1-4.7,4.7s2.1,4.7,4.7,4.7s4.7-2.1,4.7-4.7S17.7,84.9,15.1,84.9z"/>
		</g>
	</g>
	<g>
		<g>
			<rect x="14.8" y="94.6" class="st2" width="0.7" height="5.1"/>
		</g>
	</g>
	<g>
		<g>
			<rect x="13.8" y="97.8" class="st2" width="2.7" height="0.7"/>
		</g>
	</g>
</g>
<path class="st3" d="M97,122.5L97,122.5c1,0,1.9,0.6,2.2,1.6c0.5,1.5,1.2,3.5,1.3,3.5h-0.4c0.2-0.5,1.8-5.1,1.8-5.1h1.5L101,129
	h-1.6L97,122.5z"/>
<g>
	<g>
		<g>
			<g>
				<path class="st3" d="M111.4,128.1c-0.5-0.5-0.8-1.2-0.8-2.2s0.3-1.7,0.8-2.2c0.5-0.5,1.2-0.7,2.1-0.7s1.6,0.2,2.1,0.7
					c0.5,0.5,0.8,1.2,0.8,2.2s-0.3,1.7-0.8,2.2c-0.5,0.5-1.2,0.7-2.1,0.7S111.9,128.6,111.4,128.1z M114.9,127.4
					c0.3-0.3,0.5-0.8,0.5-1.5v-0.2c0-0.7-0.2-1.2-0.5-1.5c-0.3-0.3-0.8-0.5-1.3-0.5c-0.6,0-1,0.2-1.3,0.5c-0.3,0.3-0.5,0.8-0.5,1.5
					v0.2c0,0.7,0.2,1.2,0.5,1.5c0.3,0.3,0.8,0.5,1.3,0.5C114.2,127.9,114.6,127.8,114.9,127.4z"/>
			</g>
		</g>
		<g>
			<g>
				<path class="st3" d="M113.6,129.1c-1,0-1.8-0.3-2.3-0.8c-0.5-0.5-0.8-1.4-0.8-2.4c0-1.1,0.3-1.9,0.8-2.4
					c0.5-0.5,1.3-0.8,2.3-0.8c1,0,1.8,0.3,2.3,0.8c0.6,0.5,0.8,1.4,0.8,2.4c0,1.1-0.3,1.9-0.8,2.4
					C115.3,128.8,114.5,129.1,113.6,129.1z M113.6,123.1c-0.9,0-1.5,0.2-2,0.7c-0.5,0.5-0.7,1.1-0.7,2.1s0.2,1.6,0.7,2.1
					c0.5,0.5,1.1,0.7,2,0.7c0.9,0,1.5-0.2,2-0.7c0.5-0.5,0.7-1.1,0.7-2.1s-0.2-1.6-0.7-2.1C115.1,123.3,114.4,123.1,113.6,123.1z
					 M113.6,128.2c-0.7,0-1.2-0.2-1.5-0.6c-0.3-0.4-0.5-0.9-0.5-1.6v-0.2c0-0.7,0.2-1.3,0.5-1.7c0.4-0.4,0.9-0.6,1.5-0.6
					c0.7,0,1.2,0.2,1.5,0.6c0.3,0.4,0.5,0.9,0.5,1.7v0.2c0,0.7-0.2,1.3-0.5,1.6l0,0C114.7,128,114.2,128.2,113.6,128.2z M113.6,124
					c-0.5,0-0.9,0.1-1.2,0.4c-0.3,0.3-0.4,0.7-0.4,1.3v0.2c0,0.6,0.1,1,0.4,1.3c0.3,0.3,0.6,0.4,1.2,0.4c0.5,0,0.9-0.1,1.2-0.4
					c0.3-0.3,0.4-0.7,0.4-1.3v-0.2c0-0.6-0.1-1-0.4-1.3C114.5,124.1,114.1,124,113.6,124z"/>
			</g>
		</g>
	</g>
</g>
<path class="st3" d="M117.5,122.5h3.4c0.7,0,1.5,0.2,1.8,0.5c0.4,0.3,0.5,1,0.5,1.7c0,0.4-0.1,0.8-0.3,1.1c-0.2,0.3-0.7,0.7-1.1,0.7
	l1.4,2.7h-0.8c-0.6,0-1.1-0.3-1.4-0.9l-0.7-1.4H119v2.3h-0.6c-0.5,0-0.8-0.4-0.8-0.8V122.5z M120.9,125.7c0.3,0,0.6-0.1,0.7-0.3
	c0.2-0.2,0.3-0.4,0.3-0.7c0-0.3-0.1-0.5-0.3-0.7c-0.2-0.2-0.4-0.2-0.7-0.2H119v1.9H120.9z"/>
<path class="st1" d="M125.8,127.9l3.4-4.7l-1.9-0.7h-3.4v0c0.2,0.8,0.8,1.3,1.6,1.3h1.3l-3,4.1v0c0.1,0.8,0.8,1.3,1.5,1.3h3.8v-0.5
	l-1.9-0.8H125.8z"/>
<path class="st1" d="M131.3,128.4c0,0.4,0.1,0.6,0.3,0.8c0.2,0.2,0.5,0.3,0.9,0.3c0.4,0,0.6-0.1,0.8-0.3s0.3-0.5,0.3-0.9v-5.9h0
	c0.8,0,1.5,0.7,1.5,1.5v4.4c0,0.8-0.2,1.4-0.7,1.9s-1.1,0.6-2,0.6s-1.5-0.2-2-0.6c-0.5-0.4-0.7-1-0.7-1.8v-0.5
	C129.8,127.9,131.3,127.7,131.3,128.4z"/>
<path class="st1" d="M129.8,119.9L129.8,119.9c0.8,0,1.5,0.7,1.5,1.5v3.9h1.7v1.3h-2.4c-0.5,0-0.9-0.4-0.9-0.9V119.9z"/>
<g>
	<g>
		<g>
			<g>
				<path class="st3" d="M104.6,128.1c-0.5-0.5-0.8-1.2-0.8-2.2s0.3-1.7,0.8-2.2c0.5-0.5,1.2-0.7,2.1-0.7s1.6,0.2,2.1,0.7
					c0.5,0.5,0.8,1.2,0.8,2.2s-0.3,1.7-0.8,2.2c-0.5,0.5-1.2,0.7-2.1,0.7S105.1,128.6,104.6,128.1z M108.1,127.4
					c0.3-0.3,0.5-0.8,0.5-1.5v-0.2c0-0.7-0.2-1.2-0.5-1.5c-0.3-0.3-0.8-0.5-1.3-0.5c-0.6,0-1,0.2-1.3,0.5c-0.3,0.3-0.5,0.8-0.5,1.5
					v0.2c0,0.7,0.2,1.2,0.5,1.5c0.3,0.3,0.8,0.5,1.3,0.5C107.3,127.9,107.8,127.8,108.1,127.4z"/>
			</g>
		</g>
		<g>
			<g>
				<path class="st3" d="M106.7,129.1c-1,0-1.8-0.3-2.3-0.8c-0.5-0.5-0.8-1.4-0.8-2.4c0-1.1,0.3-1.9,0.8-2.4
					c0.5-0.5,1.3-0.8,2.3-0.8c1,0,1.8,0.3,2.3,0.8c0.6,0.5,0.8,1.4,0.8,2.4c0,1.1-0.3,1.9-0.8,2.4
					C108.5,128.8,107.7,129.1,106.7,129.1z M106.7,123.1c-0.9,0-1.5,0.2-2,0.7c-0.5,0.5-0.7,1.1-0.7,2.1s0.2,1.6,0.7,2.1
					c0.5,0.5,1.1,0.7,2,0.7c0.9,0,1.5-0.2,2-0.7c0.5-0.5,0.7-1.1,0.7-2.1s-0.2-1.6-0.7-2.1C108.3,123.3,107.6,123.1,106.7,123.1z
					 M106.7,128.2c-0.7,0-1.2-0.2-1.5-0.6c-0.3-0.4-0.5-0.9-0.5-1.6v-0.2c0-0.7,0.2-1.3,0.5-1.7c0.4-0.4,0.9-0.6,1.5-0.6
					c0.7,0,1.2,0.2,1.5,0.6c0.3,0.4,0.5,0.9,0.5,1.7v0.2c0,0.7-0.2,1.3-0.5,1.6l0,0C107.9,128,107.4,128.2,106.7,128.2z M106.7,124
					c-0.5,0-0.9,0.1-1.2,0.4c-0.3,0.3-0.4,0.7-0.4,1.3v0.2c0,0.6,0.1,1,0.4,1.3c0.3,0.3,0.6,0.4,1.2,0.4c0.5,0,0.9-0.1,1.2-0.4
					c0.3-0.3,0.4-0.7,0.4-1.3v-0.2c0-0.6-0.1-1-0.4-1.3C107.7,124.1,107.3,124,106.7,124z"/>
			</g>
		</g>
	</g>
</g>
<path class="st1" d="M125.9,123.3h3.2v0c0-0.4-0.4-0.8-0.8-0.8h-4.4L125.9,123.3z"/>
<path class="st1" d="M126,128.7h3.2l0,0c0-0.4-0.4-0.8-0.8-0.8H124L126,128.7z"/>
</svg>
