<svg id="Layer_1" data-name="Layer 1" xmlns="http://www.w3.org/2000/svg" viewBox="0 0 600 400"><defs><style>.cls-1{fill:#fdfd00;}.cls-2{fill:#f90000;}</style></defs><rect id="rect3142" class="cls-1" y="0.15" width="600.15" height="399.7"/><path class="cls-2" d="M180.21,295.84A95.84,95.84,0,1,1,276.06,200,95.94,95.94,0,0,1,180.21,295.84Zm-45.65-42.6a70.52,70.52,0,0,0,91.3,0l-14.78-31.69H149.34Zm109-23.06A70.45,70.45,0,0,0,250.31,200a69.67,69.67,0,0,0-52.45-67.83Zm-81-98a69.93,69.93,0,0,0-52.45,67.93,70.65,70.65,0,0,0,6.77,30.05ZM199,195.71l-18.8-40.31-18.8,40.31Z"/><path d="M180.21,107.16c51.06,0,92.85,41.78,92.85,92.84s-41.79,92.84-92.85,92.84S87.37,251.06,87.37,200s41.78-92.84,92.84-92.84m63.18,129.76A73.2,73.2,0,0,0,192.61,128l50.78,108.92m-126.36,0L167.81,128A73.2,73.2,0,0,0,117,236.92m39.67-38.21h47L180.21,148.3,156.7,198.71M180.21,273a72.64,72.64,0,0,0,49.32-19L213,218.55H147.43L130.9,254a72.6,72.6,0,0,0,49.31,19m0-171.85a99.13,99.13,0,1,0,69.81,29,98.13,98.13,0,0,0-69.81-29ZM243.4,222.74l-40-85.73a66.73,66.73,0,0,1,43.88,63,67.69,67.69,0,0,1-3.91,22.74ZM117,222.69A67.2,67.2,0,0,1,157,137L117,222.69Zm49.08-30,14.09-30.22,14.09,30.22Zm-14.87,31.84h57.92l13,27.86a67.57,67.57,0,0,1-83.9,0l13-27.86Z"/></svg>