<?xml version="1.0" encoding="utf-8"?>
<!-- Generator: Adobe Illustrator 25.2.0, SVG Export Plug-In . SVG Version: 6.00 Build 0)  -->
<svg version="1.1" id="Layer_1" xmlns="http://www.w3.org/2000/svg" xmlns:xlink="http://www.w3.org/1999/xlink" x="0px" y="0px"
	 viewBox="0 0 972 255.6" style="enable-background:new 0 0 972 255.6;" xml:space="preserve">
<style type="text/css">
	.st0{enable-background:new    ;}
	.st1{fill:#EB8823;}
	.st2{opacity:0.8;fill:#FFFFFF;enable-background:new    ;}
</style>
<g id="Layer_2_1_">
	<g id="Layer_1-2">
		<g>
			<g class="st0">
				<path class="st1" d="M293.9,85.5l9.5,27.2c1.6,4.4,2.9,8.4,3.9,12.4h0.3c1.1-4,2.5-8,4.1-12.4l9.4-27.2h9.2l-19,48.4h-8.4
					l-18.4-48.4H293.9z"/>
				<path class="st1" d="M348.4,71.9c0.1,3-2.1,5.4-5.6,5.4c-3.1,0-5.3-2.4-5.3-5.4c0-3.1,2.3-5.5,5.5-5.5
					C346.3,66.4,348.4,68.8,348.4,71.9z M338.6,133.9V85.5h8.8v48.4H338.6z"/>
				<path class="st1" d="M362,100.6c0-5.7-0.1-10.6-0.4-15.1h7.7l0.3,9.5h0.4c2.2-6.5,7.5-10.6,13.4-10.6c1,0,1.7,0.1,2.5,0.3V93
					c-0.9-0.2-1.8-0.3-3-0.3c-6.2,0-10.6,4.7-11.8,11.3c-0.2,1.2-0.4,2.6-0.4,4.1v25.8H362V100.6z"/>
				<path class="st1" d="M435.2,120.7c0,5,0.1,9.4,0.4,13.2h-7.8l-0.5-7.9h-0.2c-2.3,3.9-7.4,9-16,9c-7.6,0-16.7-4.2-16.7-21.2V85.5
					h8.8v26.8c0,9.2,2.8,15.4,10.8,15.4c5.9,0,10-4.1,11.6-8c0.5-1.3,0.8-2.9,0.8-4.5V85.5h8.8V120.7z"/>
				<path class="st1" d="M448.6,124.9c2.6,1.7,7.2,3.5,11.6,3.5c6.4,0,9.4-3.2,9.4-7.2c0-4.2-2.5-6.5-9-8.9
					c-8.7-3.1-12.8-7.9-12.8-13.7c0-7.8,6.3-14.2,16.7-14.2c4.9,0,9.2,1.4,11.9,3l-2.2,6.4c-1.9-1.2-5.4-2.8-9.9-2.8
					c-5.2,0-8.1,3-8.1,6.6c0,4,2.9,5.8,9.2,8.2c8.4,3.2,12.7,7.4,12.7,14.6c0,8.5-6.6,14.5-18.1,14.5c-5.3,0-10.2-1.3-13.6-3.3
					L448.6,124.9z"/>
				<path class="st1" d="M492.9,85.5l6.4,24.6c1.4,5.4,2.7,10.4,3.6,15.4h0.3c1.1-4.9,2.7-10.1,4.3-15.3l7.9-24.7h7.4l7.5,24.2
					c1.8,5.8,3.2,10.9,4.3,15.8h0.3c0.8-4.9,2.1-10,3.7-15.7l6.9-24.3h8.7l-15.6,48.4h-8l-7.4-23.1c-1.7-5.4-3.1-10.2-4.3-15.9h-0.2
					c-1.2,5.8-2.7,10.8-4.4,16l-7.8,23h-8l-14.6-48.4H492.9z"/>
				<path class="st1" d="M589.4,133.9l-0.7-6.1h-0.3c-2.7,3.8-7.9,7.2-14.8,7.2c-9.8,0-14.8-6.9-14.8-13.9c0-11.7,10.4-18.1,29.1-18
					v-1c0-4-1.1-11.2-11-11.2c-4.5,0-9.2,1.4-12.6,3.6l-2-5.8c4-2.6,9.8-4.3,15.9-4.3c14.8,0,18.4,10.1,18.4,19.8v18.1
					c0,4.2,0.2,8.3,0.8,11.6H589.4z M588.1,109.2c-9.6-0.2-20.5,1.5-20.5,10.9c0,5.7,3.8,8.4,8.3,8.4c6.3,0,10.3-4,11.7-8.1
					c0.3-0.9,0.5-1.9,0.5-2.8V109.2z"/>
				<path class="st1" d="M637.6,133.9l-0.7-6.1h-0.3c-2.7,3.8-7.9,7.2-14.8,7.2c-9.8,0-14.8-6.9-14.8-13.9c0-11.7,10.4-18.1,29.1-18
					v-1c0-4-1.1-11.2-11-11.2c-4.5,0-9.2,1.4-12.6,3.6l-2-5.8c4-2.6,9.8-4.3,15.9-4.3c14.8,0,18.4,10.1,18.4,19.8v18.1
					c0,4.2,0.2,8.3,0.8,11.6H637.6z M636.3,109.2c-9.6-0.2-20.5,1.5-20.5,10.9c0,5.7,3.8,8.4,8.3,8.4c6.3,0,10.3-4,11.7-8.1
					c0.3-0.9,0.5-1.9,0.5-2.8V109.2z"/>
				<path class="st1" d="M659,100.6c0-5.7-0.1-10.6-0.4-15.1h7.7l0.3,9.5h0.4c2.2-6.5,7.5-10.6,13.4-10.6c1,0,1.7,0.1,2.5,0.3V93
					c-0.9-0.2-1.8-0.3-3-0.3c-6.2,0-10.6,4.7-11.8,11.3c-0.2,1.2-0.4,2.6-0.4,4.1v25.8H659V100.6z"/>
				<path class="st1" d="M692.1,62.9h8.8v30.2h0.2c1.4-2.5,3.6-4.7,6.3-6.2c2.6-1.5,5.7-2.5,9-2.5c6.5,0,16.9,4,16.9,20.7v28.8h-8.8
					v-27.8c0-7.8-2.9-14.4-11.2-14.4c-5.7,0-10.2,4-11.8,8.8c-0.5,1.2-0.6,2.5-0.6,4.2v29.2h-8.8V62.9z"/>
				<path class="st1" d="M752.5,111.3c0.2,11.9,7.8,16.8,16.6,16.8c6.3,0,10.1-1.1,13.4-2.5l1.5,6.3c-3.1,1.4-8.4,3-16.1,3
					c-14.9,0-23.8-9.8-23.8-24.4s8.6-26.1,22.7-26.1c15.8,0,20,13.9,20,22.8c0,1.8-0.2,3.2-0.3,4.1H752.5z M778.3,105
					c0.1-5.6-2.3-14.3-12.2-14.3c-8.9,0-12.8,8.2-13.5,14.3H778.3z"/>
				<path class="st1" d="M807.5,71.9c0.1,3-2.1,5.4-5.6,5.4c-3.1,0-5.3-2.4-5.3-5.4c0-3.1,2.3-5.5,5.5-5.5
					C805.4,66.4,807.5,68.8,807.5,71.9z M797.7,133.9V85.5h8.8v48.4H797.7z"/>
				<path class="st1" d="M862.9,62.9v58.5c0,4.3,0.1,9.2,0.4,12.5h-7.9l-0.4-8.4h-0.2c-2.7,5.4-8.6,9.5-16.5,9.5
					c-11.7,0-20.7-9.9-20.7-24.6c-0.1-16.1,9.9-26,21.7-26c7.4,0,12.4,3.5,14.6,7.4h0.2V62.9H862.9z M854.1,105.2
					c0-1.1-0.1-2.6-0.4-3.7c-1.3-5.6-6.1-10.2-12.7-10.2c-9.1,0-14.5,8-14.5,18.7c0,9.8,4.8,17.9,14.3,17.9
					c5.9,0,11.3-3.9,12.9-10.5c0.3-1.2,0.4-2.4,0.4-3.8V105.2z"/>
			</g>
		</g>
		<g>
			<g class="st0">
				<path class="st1" d="M314.1,157.9h5.2v42.3h-5.2V157.9z"/>
				<path class="st1" d="M337,163.3c0.1,1.8-1.2,3.2-3.3,3.2c-1.8,0-3.2-1.4-3.2-3.2c0-1.8,1.4-3.3,3.3-3.3
					C335.7,160,337,161.4,337,163.3z M331.2,200.2v-28.8h5.2v28.8H331.2z"/>
				<path class="st1" d="M351,186.7c0.1,7.1,4.6,10,9.9,10c3.7,0,6-0.7,8-1.5l0.9,3.7c-1.8,0.8-5,1.8-9.6,1.8
					c-8.9,0-14.2-5.8-14.2-14.5s5.1-15.5,13.5-15.5c9.4,0,11.9,8.3,11.9,13.6c0,1.1-0.1,1.9-0.2,2.4H351z M366.3,183
					c0.1-3.3-1.4-8.5-7.3-8.5c-5.3,0-7.6,4.9-8,8.5H366.3z"/>
				<path class="st1" d="M381.4,200.2v-24.8h-4v-4h4V170c0-4,0.9-7.7,3.3-10.1c2-1.9,4.6-2.7,7-2.7c1.8,0,3.5,0.4,4.5,0.8l-0.7,4
					c-0.8-0.4-1.8-0.7-3.3-0.7c-4.5,0-5.6,3.9-5.6,8.3v1.5h7v4h-7v24.8H381.4z"/>
				<path class="st1" d="M425.3,157.9v34.8c0,2.6,0.1,5.5,0.2,7.4h-4.7l-0.2-5h-0.1c-1.6,3.2-5.1,5.7-9.8,5.7
					c-7,0-12.3-5.9-12.3-14.6c-0.1-9.6,5.9-15.5,12.9-15.5c4.4,0,7.4,2.1,8.7,4.4h0.1v-17.2H425.3z M420.1,183.1
					c0-0.7-0.1-1.5-0.2-2.2c-0.8-3.3-3.6-6.1-7.6-6.1c-5.4,0-8.6,4.8-8.6,11.1c0,5.8,2.9,10.7,8.5,10.7c3.5,0,6.7-2.3,7.7-6.2
					c0.2-0.7,0.2-1.4,0.2-2.3V183.1z"/>
				<path class="st1" d="M439.9,186.7c0.1,7.1,4.6,10,9.9,10c3.7,0,6-0.7,8-1.5l0.9,3.7c-1.8,0.8-5,1.8-9.6,1.8
					c-8.9,0-14.2-5.8-14.2-14.5s5.1-15.5,13.5-15.5c9.4,0,11.9,8.3,11.9,13.6c0,1.1-0.1,1.9-0.2,2.4H439.9z M455.2,183
					c0.1-3.3-1.4-8.5-7.3-8.5c-5.3,0-7.6,4.9-8,8.5H455.2z"/>
				<path class="st1" d="M510.6,200.2c-1.1-1.1-2.2-2.3-3.7-3.9c-3.5,3.2-7.3,4.6-11.7,4.6c-7.8,0-12.3-5.2-12.3-11.2
					c0-5.5,3.3-9.2,7.9-11.7v-0.2c-2.1-2.6-3.3-5.5-3.3-8.4c0-4.9,3.5-9.9,10.2-9.9c5,0,8.9,3.3,8.9,8.5c0,4.2-2.4,7.6-8.8,10.7v0.2
					c3.4,3.9,7.2,8.3,9.8,11.2c1.8-2.8,3.1-6.7,3.9-11.7h4.8c-1.1,6.3-2.8,11.3-5.8,14.8c2.1,2.3,4.2,4.5,6.6,7.1H510.6z
					 M504.3,193.2c-2.4-2.6-6.8-7.5-11.3-12.6c-2.1,1.4-5.2,3.9-5.2,8.2c0,4.6,3.4,8.1,8.2,8.1C499.5,196.9,502.4,195.3,504.3,193.2
					z M492.1,168.8c0,2.9,1.3,5.1,3,7.2c4-2.3,6.7-4.5,6.7-7.9c0-2.4-1.4-5.2-4.6-5.2C493.9,163,492.1,165.7,492.1,168.8z"/>
				<path class="st1" d="M542.8,186.7c0.1,7.1,4.6,10,9.9,10c3.7,0,6-0.7,8-1.5l0.9,3.7c-1.8,0.8-5,1.8-9.6,1.8
					c-8.9,0-14.2-5.8-14.2-14.5s5.1-15.5,13.5-15.5c9.4,0,11.9,8.3,11.9,13.6c0,1.1-0.1,1.9-0.2,2.4H542.8z M558.2,183
					c0.1-3.3-1.4-8.5-7.3-8.5c-5.3,0-7.6,4.9-8,8.5H558.2z"/>
				<path class="st1" d="M575.6,186.7c0.1,7.1,4.6,10,9.9,10c3.7,0,6-0.7,8-1.5l0.9,3.7c-1.8,0.8-5,1.8-9.6,1.8
					c-8.9,0-14.2-5.8-14.2-14.5s5.1-15.5,13.5-15.5c9.4,0,11.9,8.3,11.9,13.6c0,1.1-0.1,1.9-0.2,2.4H575.6z M591,183
					c0.1-3.3-1.4-8.5-7.3-8.5c-5.3,0-7.6,4.9-8,8.5H591z"/>
				<path class="st1" d="M605.5,179.1c0-3-0.1-5.4-0.2-7.8h4.6l0.3,4.8h0.1c1.4-2.7,4.8-5.4,9.5-5.4c4,0,10.2,2.4,10.2,12.3v17.2
					h-5.2v-16.6c0-4.6-1.7-8.5-6.7-8.5c-3.5,0-6.1,2.4-7,5.4c-0.2,0.7-0.4,1.5-0.4,2.4v17.3h-5.2V179.1z"/>
				<path class="st1" d="M641.5,157.9h5.2v18h0.1c0.8-1.5,2.1-2.8,3.7-3.7c1.5-0.9,3.4-1.5,5.4-1.5c3.9,0,10.1,2.4,10.1,12.3v17.1
					h-5.2v-16.5c0-4.6-1.7-8.6-6.7-8.6c-3.4,0-6.1,2.4-7,5.2c-0.3,0.7-0.4,1.5-0.4,2.5v17.4h-5.2V157.9z"/>
				<path class="st1" d="M680.4,186.7c0.1,7.1,4.6,10,9.9,10c3.7,0,6-0.7,8-1.5l0.9,3.7c-1.8,0.8-5,1.8-9.6,1.8
					c-8.9,0-14.2-5.8-14.2-14.5s5.1-15.5,13.5-15.5c9.4,0,11.9,8.3,11.9,13.6c0,1.1-0.1,1.9-0.2,2.4H680.4z M695.8,183
					c0.1-3.3-1.4-8.5-7.3-8.5c-5.3,0-7.6,4.9-8,8.5H695.8z"/>
				<path class="st1" d="M716.1,163.3c0.1,1.8-1.2,3.2-3.3,3.2c-1.8,0-3.2-1.4-3.2-3.2c0-1.8,1.4-3.3,3.3-3.3
					C714.9,160,716.1,161.4,716.1,163.3z M710.3,200.2v-28.8h5.2v28.8H710.3z"/>
				<path class="st1" d="M752.1,157.9v34.8c0,2.6,0.1,5.5,0.2,7.4h-4.7l-0.2-5h-0.1c-1.6,3.2-5.1,5.7-9.8,5.7
					c-7,0-12.3-5.9-12.3-14.6c-0.1-9.6,5.9-15.5,12.9-15.5c4.4,0,7.4,2.1,8.7,4.4h0.1v-17.2H752.1z M746.8,183.1
					c0-0.7-0.1-1.5-0.2-2.2c-0.8-3.3-3.6-6.1-7.6-6.1c-5.4,0-8.6,4.8-8.6,11.1c0,5.8,2.9,10.7,8.5,10.7c3.5,0,6.7-2.3,7.7-6.2
					c0.2-0.7,0.2-1.4,0.2-2.3V183.1z"/>
			</g>
		</g>
		<path class="st1" d="M249.2,128.7c-0.4-0.3-0.9-0.6-1.3-0.9c0.5-0.2,0.9-0.5,1.3-0.8c4.3-3.5,5-9.9,1.6-14.2
			c-0.2-0.3-0.4-0.5-0.7-0.8c-3.7-3.8-9.8-3.7-13.8-0.4l-12.5,10.1c-1.8,1.5-4.2,2.3-6.5,2.3h-0.5c-5.3-0.1-9.7-4-10.4-9.2
			c-1.9-12.7-6.9-24.7-14.5-35.1c-3-4.2-2.5-9.9,1.1-13.6l0.4-0.4c1.7-1.7,3.9-2.7,6.2-3l16-1.8c5.4-0.6,9.8-5.2,9.4-10.7
			c-0.2-5.4-4.7-9.7-10.2-9.6l0,0c-0.8,0-1.6,0.2-2.4,0.4c1.5-5.3-1.4-10.8-6.7-12.4c-0.8-0.2-1.6-0.4-2.4-0.4
			c-5.4-0.3-10,4.1-10.6,9.5L190.9,54c-0.3,2.4-1.3,4.6-3,6.3l-0.4,0.4c-3.7,3.7-9.5,4.1-13.7,1c-10.2-7.4-22-12.4-34.5-14.4
			c-5.2-0.8-9-5.2-9.1-10.5v-0.5c0-2.4,0.8-4.7,2.3-6.6l10-12.6c3.3-4.1,3.3-10.3-0.4-14c-3.9-3.9-10.2-3.9-14.1,0c0,0,0,0-0.1,0.1
			c-0.2,0.3-0.5,0.5-0.7,0.8c-0.3,0.4-0.6,0.9-0.9,1.3c-0.2-0.5-0.5-0.9-0.8-1.3c-3.4-4.3-9.7-5.1-14-1.7l0,0
			c-0.3,0.2-0.5,0.4-0.8,0.7c-3.8,3.7-3.7,9.9-0.4,14l10,12.6c1.5,1.9,2.3,4.2,2.3,6.6v0.5c0,5.3-3.9,9.8-9.1,10.5
			c-12.5,2-24.2,6.9-34.4,14.4c-4.2,3.2-10.1,2.7-13.8-1L65,60.3c-1.7-1.7-2.7-3.9-3-6.3l-1.7-16.2c-0.6-5.4-5.2-9.9-10.6-9.5
			c-5.5,0.2-9.7,4.8-9.5,10.3c0,0.8,0.2,1.7,0.4,2.5c-5.2-1.5-10.7,1.4-12.2,6.6v0.1c-0.2,0.8-0.4,1.6-0.4,2.5
			c-0.3,5.5,4.1,10.1,9.5,10.7l16,1.8c2.4,0.3,4.6,1.3,6.2,3l0.4,0.4c3.7,3.8,4.1,9.6,1,13.9c-7.4,10.4-12.3,22.3-14.3,34.9
			c-0.7,5.2-5.1,9.1-10.4,9.2h-0.5c-2.4,0-4.7-0.8-6.5-2.3l-12.6-10.2c-4.1-3.3-10.2-3.3-13.8,0.4c-3.9,4-3.8,10.4,0.1,14.3
			c0.2,0.2,0.5,0.5,0.8,0.7c0.4,0.3,0.9,0.6,1.3,0.8c-0.5,0.3-0.9,0.5-1.3,0.9c-4.3,3.5-5,9.8-1.6,14.2c0.2,0.3,0.4,0.5,0.7,0.8
			c3.7,3.8,9.7,3.7,13.8,0.4L29.2,134c1.8-1.5,4.2-2.3,6.5-2.3h0.5c5.3,0,9.7,4,10.4,9.2c1.9,12.7,6.9,24.7,14.5,35.1
			c3,4.2,2.5,9.9-1.2,13.6l-0.4,0.4c-1.7,1.7-3.9,2.7-6.2,3l-16,1.8c-5.4,0.6-9.8,5.2-9.5,10.7c0.1,5.4,4.7,9.7,10.1,9.6
			c0.9,0,1.7-0.2,2.5-0.4c-1.6,5.2,1.3,10.7,6.6,12.3c0.8,0.2,1.7,0.4,2.5,0.4c5.4,0.3,10-4.1,10.6-9.6l1.8-16.1
			c0.3-2.4,1.3-4.6,3-6.3l0.4-0.4c3.7-3.7,9.5-4.1,13.7-1c10.2,7.5,22,12.4,34.5,14.4c5.2,0.8,9,5.2,9,10.5v0.5
			c0,2.4-0.8,4.7-2.3,6.6l-10,12.7c-3.3,4.1-3.3,10.3,0.4,14c3.9,3.9,10.2,3.9,14,0l0.1-0.1c0.6-0.6,1.1-1.3,1.5-2.1
			c0.3,0.5,0.5,0.9,0.9,1.3c3.4,4.3,9.6,5.1,14,1.7l0.1-0.1c0.3-0.2,0.5-0.4,0.8-0.7c3.7-3.7,3.7-9.8,0.4-14l-10-12.7
			c-1.5-1.9-2.3-4.2-2.3-6.6v-0.5c0-5.3,3.9-9.7,9.1-10.5c12.6-2,24.5-7,34.7-14.6c4.1-3,9.9-2.6,13.4,1.1l0.4,0.4
			c1.7,1.7,2.7,3.9,3,6.3l1.8,16.1c0.6,5.4,5.2,9.9,10.6,9.6c5.4-0.2,9.6-4.8,9.4-10.2c0-0.8-0.2-1.7-0.4-2.5
			c5.2,1.5,10.7-1.5,12.2-6.8c0.2-0.8,0.4-1.6,0.4-2.4c0.3-5.5-4.1-10.1-9.4-10.7l-16-1.8c-2.4-0.3-4.6-1.3-6.2-3l-0.4-0.4
			c-3.7-3.8-4.1-9.6-1-13.9c7.4-10.4,12.3-22.3,14.3-34.9c0.7-5.2,5.1-9.1,10.4-9.1h0.5c2.4,0,4.7,0.8,6.5,2.3l12.5,10.2
			c4.1,3.3,10.2,3.3,13.8-0.4c3.9-4,3.9-10.4-0.1-14.3C249.7,129.1,249.4,128.9,249.2,128.7z"/>
		<path class="st2" d="M164.6,98c-9.5-9.4-24.8-9.3-34.2,0.2c-0.1,0.1-0.2,0.2-0.3,0.3c-0.6,0.6-1.1,1.2-1.6,1.8
			c-0.8,1-1.5,2.1-2.1,3.2c-0.6-1.1-1.3-2.2-2.1-3.2c-8.3-10.5-23.5-12.3-34-4.1c-0.1,0.1-0.2,0.1-0.3,0.2c-0.6,0.5-1.2,1-1.8,1.6
			c-9.1,9-9.3,23.8-1.3,33.9l32.9,41.6c2.9,3.6,8.1,4.3,11.8,1.4l0.1-0.1c0.5-0.4,0.9-0.8,1.3-1.3l32.9-41.6
			C173.9,121.8,173.8,107,164.6,98z"/>
	</g>
</g>
</svg>
