<svg xmlns="http://www.w3.org/2000/svg" viewBox="0 0 252.95 255.57"><defs><style>.cls-1{fill:#8f1719;}.cls-2{fill:#fff;opacity:0.8;isolation:isolate;}</style></defs><g id="Layer_2" data-name="Layer 2"><g id="Layer_1-2" data-name="Layer 1"><path class="cls-1" d="M249.19,128.66a10.63,10.63,0,0,0-1.31-.87,9.47,9.47,0,0,0,1.31-.85,10.18,10.18,0,0,0,1.56-14.22,10,10,0,0,0-.68-.78c-3.67-3.78-9.75-3.73-13.83-.43l-12.53,10.13a10.37,10.37,0,0,1-6.53,2.31h-.49a10.61,10.61,0,0,1-10.37-9.2,80.12,80.12,0,0,0-14.47-35.09,10.57,10.57,0,0,1,1.09-13.6l.36-.37a10.47,10.47,0,0,1,6.24-3l16-1.79c5.38-.6,9.76-5.22,9.44-10.68a9.87,9.87,0,0,0-10.18-9.56,9.59,9.59,0,0,0-2.44.41A10,10,0,0,0,205.7,28.7a9.59,9.59,0,0,0-2.43-.41c-5.41-.32-10,4.11-10.58,9.55L190.92,54a10.62,10.62,0,0,1-3,6.31l-.38.37a10.48,10.48,0,0,1-13.71,1,80.61,80.61,0,0,0-34.51-14.43,10.66,10.66,0,0,1-9.05-10.47v-.52a10.69,10.69,0,0,1,2.29-6.61l10-12.65c3.26-4.13,3.3-10.27-.43-14A9.94,9.94,0,0,0,128,3.05c-.24.25-.46.51-.68.78a10.8,10.8,0,0,0-.86,1.33,9.06,9.06,0,0,0-.84-1.33,10,10,0,0,0-14.07-1.64,10.21,10.21,0,0,0-.77.69c-3.75,3.71-3.7,9.85-.43,14l10,12.65a10.64,10.64,0,0,1,2.29,6.6v.51a10.65,10.65,0,0,1-9.11,10.54A78.31,78.31,0,0,0,79.15,61.59a10.49,10.49,0,0,1-13.77-1L65,60.28A10.65,10.65,0,0,1,62,54L60.26,37.84c-.6-5.44-5.16-9.87-10.57-9.55a9.91,9.91,0,0,0-9.46,10.3,10.28,10.28,0,0,0,.4,2.46,9.81,9.81,0,0,0-12.22,6.69A10.28,10.28,0,0,0,28,50.2c-.31,5.46,4.07,10.08,9.45,10.68l15.95,1.79a10.47,10.47,0,0,1,6.24,3l.37.39a10.76,10.76,0,0,1,1,13.86,82.27,82.27,0,0,0-14.29,34.87A10.6,10.6,0,0,1,36.34,124h-.53a10.39,10.39,0,0,1-6.53-2.31L16.72,111.51c-4.09-3.3-10.16-3.35-13.83.43A10.18,10.18,0,0,0,3,126.24a8.53,8.53,0,0,0,.77.7,9.47,9.47,0,0,0,1.31.85,10.63,10.63,0,0,0-1.31.87,10.17,10.17,0,0,0-1.58,14.21,7.31,7.31,0,0,0,.68.78c3.67,3.78,9.74,3.74,13.83.44L29.22,134a10.36,10.36,0,0,1,6.53-2.32h.5a10.62,10.62,0,0,1,10.43,9.2,80.13,80.13,0,0,0,14.48,35.09A10.57,10.57,0,0,1,60,189.53l-.36.37a10.36,10.36,0,0,1-6.24,3l-15.95,1.79c-5.38.61-9.76,5.22-9.45,10.68a9.83,9.83,0,0,0,12.62,9.16,9.87,9.87,0,0,0,9.06,12.75c5.41.32,10-4.11,10.57-9.55L62,201.64a10.57,10.57,0,0,1,3-6.26l.39-.39a10.48,10.48,0,0,1,13.71-1,80.55,80.55,0,0,0,34.51,14.43,10.65,10.65,0,0,1,9,10.47v.51a10.64,10.64,0,0,1-2.29,6.59l-10,12.66c-3.27,4.13-3.32,10.27.43,14a9.93,9.93,0,0,0,14.15-.11,7.8,7.8,0,0,0,1.53-2.1,11.61,11.61,0,0,0,.86,1.33,9.94,9.94,0,0,0,14.07,1.57c.27-.22.52-.45.77-.69,3.73-3.7,3.69-9.84.43-14l-10-12.66a10.66,10.66,0,0,1-2.29-6.6v-.5a10.65,10.65,0,0,1,9.11-10.47,78.52,78.52,0,0,0,34.72-14.63,10.3,10.3,0,0,1,13.45,1.1l.37.38a10.51,10.51,0,0,1,3,6.3l1.77,16.11c.6,5.44,5.17,9.87,10.58,9.55A9.88,9.88,0,0,0,212.72,217a9.73,9.73,0,0,0-.4-2.46,9.89,9.89,0,0,0,12.62-9.15c.32-5.47-4.06-10.08-9.44-10.69l-16-1.79a10.36,10.36,0,0,1-6.24-3l-.37-.38a10.78,10.78,0,0,1-1-13.86,82.63,82.63,0,0,0,14.29-34.87,10.62,10.62,0,0,1,10.35-9.15h.54a10.38,10.38,0,0,1,6.53,2.32l12.52,10.16c4.09,3.3,10.16,3.34,13.83-.44a10.18,10.18,0,0,0-.08-14.3A8.27,8.27,0,0,0,249.19,128.66Z"/><path class="cls-2" d="M164.64,98a24.21,24.21,0,0,0-34.49.46,22.07,22.07,0,0,0-1.56,1.78,25.39,25.39,0,0,0-2.08,3.23,23.3,23.3,0,0,0-2.07-3.23,24.22,24.22,0,0,0-34.28-3.85c-.63.51-1.23,1-1.8,1.61-9.14,9-9.31,23.81-1.34,33.87l32.92,41.57a8.37,8.37,0,0,0,11.85,1.32,8.12,8.12,0,0,0,1.3-1.32L166,131.85C173.94,121.82,173.78,107,164.64,98Z"/></g></g></svg>