<?xml version="1.0" encoding="utf-8"?>
<!-- Generator: Adobe Illustrator 25.2.0, SVG Export Plug-In . SVG Version: 6.00 Build 0)  -->
<svg version="1.1" id="Layer_1" xmlns="http://www.w3.org/2000/svg" xmlns:xlink="http://www.w3.org/1999/xlink" x="0px" y="0px"
	 viewBox="0 0 283.5 141.7" style="enable-background:new 0 0 283.5 141.7;" xml:space="preserve">
<style type="text/css">
	.st0{fill:#FFFFFF;}
	.st1{fill:#E95D0F;}
	.st2{enable-background:new    ;}
</style>
<rect class="st0" width="283.5" height="141.7"/>
<g>
	<path class="st1" d="M51.9,63.6c-8.7-2.4-10.2-3.7-10.2-8.4c0-5.8,1.8-6.8,5.5-6.8c2.5,0,6.2,0.1,7.7,0.2l0.1,9.8
		c0,0.4,0.3,0.7,0.7,0.7h15.7c0.4,0,0.7-0.3,0.7-0.7V36.9c0-0.3-0.2-0.6-0.6-0.7c-3.6-1-15.2-2-24.2-2c-18.9,0-24.7,5.6-24.7,21.7
		c0,16.1,4.2,19,22,24.3c9.1,2.7,10.4,3.8,10.4,9c0,6.8-1,6.5-7.6,6.5c-1.9,0-5-0.2-6.6-0.5l-0.1-9.7c0-0.4-0.3-0.7-0.7-0.7H24.7
		c-0.4,0-0.7,0.3-0.7,0.7v21.6c0,0.4,0.2,0.7,0.6,0.7c2.8,0.5,11.7,1.2,22.6,1.2c21.2,0,27.1-3.7,27.1-21.3
		C74.3,72.1,69.5,68.5,51.9,63.6z"/>
	<path class="st1" d="M256,39.6c-3-3.5-7.6-4.9-15.8-4.9h-32.6c-0.4,0-0.7,0.3-0.7,0.8v14.4c0,0.4,0.3,0.8,0.7,0.8h3.1l-0.1,43h-3
		c-0.4,0-0.7,0.3-0.7,0.8v14c0,0.4,0.3,0.8,0.7,0.8h28.9c0.4,0,0.7-0.3,0.7-0.8V94.9c0-0.4-0.3-0.8-0.7-0.8h-6.6V86h10.1
		c8.1,0,12.9-1.5,16-5c3.3-3.8,4.8-10.2,4.8-20.8C260.8,49.7,259.3,43.3,256,39.6z M248.5,61.3l-22.2,11.6c-0.1,0-0.2,0.1-0.2,0.1
		c-0.1,0-0.2,0-0.2-0.1c-0.2-0.1-0.2-0.2-0.2-0.4V48.1c0-0.2,0.1-0.3,0.2-0.4c0.2-0.1,0.3-0.1,0.5,0l22.2,12.8
		c0.2,0.1,0.2,0.3,0.2,0.5C248.8,61.1,248.7,61.2,248.5,61.3z"/>
	<path class="st1" d="M130,70.1h-2.9l0,0l-21-0.1c-0.4,0-0.7,0.3-0.7,0.7V84c0,0.4,0.3,0.7,0.7,0.7h5v9.7c-1.6,0.2-4.3,0.3-6,0.3
		c-5.8,0-7.5,0-7.5-18v-9.2c0-18.2,1.5-18.2,7.3-18.2c2.1,0,4.7,0,6.1,0.2l0,8.9c0,0.4,0.3,0.7,0.7,0.7h15.8c0.4,0,0.7-0.3,0.7-0.7
		V36.7c0-0.3-0.2-0.6-0.6-0.7c-2.6-0.6-14.9-1.8-22.4-1.8c-22.3,0-27.2,6.7-27.2,37.6c0,16.9,1.5,25.5,5.4,30.7
		c4.3,5.7,11.5,6.6,21.6,6.6c7.5,0,17.9-0.6,22.6-1.5c0.3-0.1,0.6-0.4,0.6-0.7V84.7h1.7c0.4,0,0.7-0.3,0.7-0.7V70.8
		C130.8,70.4,130.4,70.1,130,70.1z"/>
</g>
<g class="st2">
	<path class="st1" d="M168.1,102l3,0.3v6.7h-17.3v-6.4h3l-0.6-3.7h-9.1l-0.6,3.7h3.1v6.4h-17.2v-6.7l2.9-0.3l7.7-33.9h17.6
		L168.1,102z M148.4,91.6h6.7l-2.4-14.7h-1.8L148.4,91.6z"/>
	<path class="st1" d="M175.7,109v-6.7l3.5-0.4v-8.4l-10.7-18.5l-2.7-0.2v-6.7h17.6v6.7l-2.7,0.3l4.6,9.6h1.2l4.3-9.6l-2.8-0.3v-6.7
		h17.1v6.7l-2.7,0.2l-10.6,18.5v8.4l3.5,0.4v6.7H175.7z"/>
</g>
</svg>
