<?xml version="1.0" encoding="utf-8"?>
<!-- Generator: Adobe Illustrator 25.2.0, SVG Export Plug-In . SVG Version: 6.00 Build 0)  -->
<svg version="1.1" id="Layer_1" xmlns="http://www.w3.org/2000/svg" xmlns:xlink="http://www.w3.org/1999/xlink" x="0px" y="0px"
	 viewBox="0 0 141.7 141.7" style="enable-background:new 0 0 141.7 141.7;" xml:space="preserve">
<style type="text/css">
	.st0{fill:#750787;}
	.st1{fill:#004DFF;}
	.st2{fill:#008026;}
	.st3{fill:#FFED00;}
	.st4{fill:#FF8C00;}
	.st5{fill:#E40303;}
	.st6{fill:#FFFFFF;}
	.st7{fill:#E95D0F;}
	.st8{font-family:'KaytekSlab-Black';}
	.st9{font-size:11.8631px;}
</style>
<g>
	<rect class="st0" width="141.7" height="141.7"/>
	<rect class="st1" width="141.7" height="118.1"/>
	<rect class="st2" width="141.7" height="94.5"/>
	<rect class="st3" width="141.7" height="70.9"/>
	<rect class="st4" width="141.7" height="47.2"/>
	<rect class="st5" width="141.7" height="23.6"/>
</g>
<rect x="13.5" y="13.5" class="st6" width="114.7" height="114.7"/>
<g>
	<path class="st7" d="M41.3,46.8c-4.6-1.3-5.4-2-5.4-4.4c0-3.1,0.9-3.6,2.9-3.6c1.3,0,3.3,0,4.1,0.1l0,5.2c0,0.2,0.2,0.4,0.4,0.4
		h8.3c0.2,0,0.4-0.2,0.4-0.4V32.7c0-0.2-0.1-0.3-0.3-0.4c-1.9-0.6-8.1-1.1-12.8-1.1c-10,0-13.1,3-13.1,11.5
		c0,8.5,2.2,10.1,11.6,12.9c4.8,1.4,5.5,2,5.5,4.7c0,3.6-0.6,3.5-4,3.5c-1,0-2.6-0.1-3.5-0.2l0-5.1c0-0.2-0.2-0.4-0.4-0.4h-8.1
		c-0.2,0-0.4,0.2-0.4,0.4V70c0,0.2,0.1,0.4,0.3,0.4c1.5,0.3,6.2,0.7,12,0.7c11.2,0,14.3-2,14.3-11.3C53.2,51.4,50.7,49.5,41.3,46.8z
		"/>
	<path class="st7" d="M111.7,34.1c-1.6-1.8-4-2.6-8.4-2.6H86.1c-0.2,0-0.4,0.2-0.4,0.4v7.6c0,0.2,0.2,0.4,0.4,0.4h1.6l0,22.8h-1.6
		c-0.2,0-0.4,0.2-0.4,0.4v7.4c0,0.2,0.2,0.4,0.4,0.4h15.3c0.2,0,0.4-0.2,0.4-0.4v-7.1c0-0.2-0.2-0.4-0.4-0.4h-3.5v-4.3h5.3
		c4.3,0,6.8-0.8,8.5-2.6c1.8-2,2.6-5.4,2.6-11C114.2,39.5,113.5,36.1,111.7,34.1z M107.8,45.6L96,51.8c0,0-0.1,0-0.1,0
		c0,0-0.1,0-0.1,0c-0.1,0-0.1-0.1-0.1-0.2V38.6c0-0.1,0-0.2,0.1-0.2c0.1,0,0.2,0,0.3,0l11.8,6.8c0.1,0,0.1,0.1,0.1,0.2
		S107.9,45.6,107.8,45.6z"/>
	<path class="st7" d="M82.7,50.3h-1.6l0,0l-11.1,0c-0.2,0-0.4,0.2-0.4,0.4v7c0,0.2,0.2,0.4,0.4,0.4h2.6v5.1
		c-0.9,0.1-2.3,0.1-3.2,0.1c-3.1,0-4,0-4-9.5v-4.9c0-9.6,0.8-9.6,3.9-9.6c1.1,0,2.5,0,3.2,0.1l0,4.7c0,0.2,0.2,0.4,0.4,0.4h8.4
		c0.2,0,0.4-0.2,0.4-0.4V32.6c0-0.2-0.1-0.3-0.3-0.4c-1.4-0.3-7.9-0.9-11.9-0.9c-11.8,0-14.4,3.5-14.4,19.9c0,9,0.8,13.5,2.8,16.3
		c2.3,3,6.1,3.5,11.5,3.5c4,0,9.5-0.3,11.9-0.8c0.2,0,0.3-0.2,0.3-0.4V58.1h0.9c0.2,0,0.4-0.2,0.4-0.4v-7
		C83.1,50.5,82.9,50.3,82.7,50.3z"/>
</g>
<text transform="matrix(1 0 0 1 25.8789 85.5449)" class="st7 st8 st9">STAATKUNDIGE</text>
<text transform="matrix(1 0 0 1 25.8789 99.7822)" class="st7 st8 st9">GAY </text>
<text transform="matrix(1 0 0 1 25.8789 114.0215)" class="st7 st8 st9">PARTIJ</text>
</svg>
