<svg id="Layer_1" data-name="Layer 1" xmlns="http://www.w3.org/2000/svg" viewBox="0 0 600 400"><defs><style>.cls-1{fill:#fff;}.cls-2{fill:#da121a;}</style></defs><rect class="cls-1" width="600" height="400"/><path class="cls-2" d="M0,0H100V400H200V0H300V400H400V0H500V400H600V300H0V200H600V100H0Z"/><circle class="cls-2" cx="300" cy="200" r="108.4"/><path class="cls-1" d="M300,109.67c-49.67,0-90.33,40.65-90.33,90.33s40.66,90.33,90.33,90.33,90.33-40.66,90.33-90.33S349.67,109.67,300,109.67ZM312.06,130a71.22,71.22,0,0,1,49.41,106Zm-24.12,0-49.41,106a71.72,71.72,0,0,1-9.65-35.83A71,71,0,0,1,287.94,130ZM300,149.7l22.87,49.05H277.13Zm-31.9,68.35h63.8L348,252.53a71.47,71.47,0,0,1-96,0Z"/></svg>