<?xml version="1.0" encoding="utf-8"?>
<!-- Generator: Adobe Illustrator 25.2.0, SVG Export Plug-In . SVG Version: 6.00 Build 0)  -->
<svg version="1.1" id="Layer_1" xmlns="http://www.w3.org/2000/svg" xmlns:xlink="http://www.w3.org/1999/xlink" x="0px" y="0px"
	 viewBox="0 0 600 400" style="enable-background:new 0 0 600 400;" xml:space="preserve">
<style type="text/css">
	.st0{fill:#FFFFFF;}
	.st1{fill:#DA121A;}
	.st2{fill:#0F47AF;}
	.st3{fill:#078930;}
</style>
<g>
	<path class="st0" d="M0,1h600v399H0V1z"/>
</g>
<g>
	<path d="M0,201h600 M300,1v400"/>
</g>
<g>
	<path d="M0,65h227 M373,337h227"/>
	<path class="st1" d="M600,402H373V272h227V402z M227,130H0V0h227V130z"/>
</g>
<g>
	<path d="M0,337h227 M373,65h227"/>
	<path class="st2" d="M227,400H0V272h227V400z M600,130H373V0h227V130z"/>
</g>
<g>
	<circle class="st0" cx="300" cy="201" r="146.1"/>
</g>
<g>
	<polygon class="st3" points="326,399.7 274,399.7 274,226.3 0,226.3 0,174.4 274,174.4 274,1 326,1 326,174.4 600,174.4 600,226.3 
		326,226.3 	"/>
</g>
<g>
	<circle class="st0" cx="300" cy="201" r="86.8"/>
</g>
<g>
	<g>
		<path class="st3" d="M300,99.9c-55.6,0-101.1,45.5-101.1,101.1S244.4,302.1,300,302.1S401.1,256.6,401.1,201S355.6,99.9,300,99.9z
			 M313.5,122.6c37.7,6.3,66.1,38.9,66.1,78.4c0,14.7-3.9,28.4-10.8,40.2L313.5,122.6z M286.5,122.6l-55.3,118.6
			c-6.8-11.8-10.8-25.5-10.8-40.1C220.5,161.5,248.9,128.9,286.5,122.6L286.5,122.6z M300,144.7l25.6,54.9h-51.2L300,144.7z
			 M264.3,221.2h71.4l18,38.6c-14.1,12.9-32.9,20.7-53.7,20.7c-20.8,0-39.6-7.8-53.7-20.7L264.3,221.2z"/>
	</g>
</g>
</svg>
