<?xml version="1.0" encoding="utf-8"?>
<!-- Generator: Adobe Illustrator 25.3.1, SVG Export Plug-In . SVG Version: 6.00 Build 0)  -->
<svg version="1.1" id="Layer_1" xmlns="http://www.w3.org/2000/svg" xmlns:xlink="http://www.w3.org/1999/xlink" x="0px" y="0px"
	 viewBox="0 0 1000 666.9" style="enable-background:new 0 0 1000 666.9;" xml:space="preserve">
<style type="text/css">
	.st0{fill:#078930;}
	.st1{fill:#0F47AF;}
	.st2{fill:#FFFFFF;}
	.st3{fill:#750787;}
	.st4{fill:#004DFF;}
	.st5{fill:#008026;}
	.st6{fill:#FFED00;}
	.st7{fill:#FF8C00;}
	.st8{fill:#E40303;}
</style>
<g>
	<path id="path2230_2_" class="st0" d="M0.1,666.5V333.3H1000v333.3H0.1z"/>
	<path id="path1343_2_" class="st1" d="M0.1,333.3V0H1000l0,333.3H0.1z"/>
	<g>
		<path class="st2" d="M153.4,190c-3.2,0.2-5.8,2.9-8.9,10.7c-5.2,13-5.2,20.4,0.2,30.9c2.4,4.8,5.4,10.1,8.7,10.1
			c3.3,0,6.4-5.3,8.8-10c5.4-10.5,5.4-18,0.2-30.9C159.3,192.9,156.7,190.1,153.4,190z"/>
		<path class="st2" d="M198.9,207.2C198.8,207.2,198.9,207.2,198.9,207.2c0-0.1-0.1-0.1-0.1-0.2c-0.9-1.1-4.8-2-8.8-2
			c-6,0-8.8-1.7-13.7-7.8c-4.4-5.5-7.8-8.1-10.3-7.7c-1,0.2-1.9,0.8-2.6,2c-2.4,3.8,5.9,20,13.6,26.8c8.5,7.4,7.9,7.2,12.9,5.3
			c4.2-1.6,10.2-12.5,9.1-16C199,207.5,198.9,207.3,198.9,207.2z"/>
		<path class="st2" d="M230.2,129.8c-5-9.7-19.4-16.1-31-15.7c-14-0.8-36.9,38.1-36.9,41.9c0,5.4,6.8,4.4,13.3-1
			c16.2-13.4,27-7.6,34.8-0.3c4.5,4.2,8.8,7.6,9.9,8c0,0,0,0,0.1,0.1c0,0,0,0,0.1,0c0,0,0,0,0.1,0c0.9-0.1,3.5-2.6,6-5.7
			C233,148.7,234.4,138.1,230.2,129.8z"/>
		<path class="st2" d="M153.4,161.6c5,0,14.2-22.8,19.5-31.7c16.1-27.2,19.3-40.1,13.7-54.8c-3-8-28.2-41.8-33.2-41.8
			c-4.9,0-29.9,33.8-32.9,41.8c-5.5,14.7-2.4,27.6,13.6,54.8C139.4,138.8,148.5,161.6,153.4,161.6z"/>
		<path class="st2" d="M135.3,172.1c-1.7,2.7-1.5,4.6,0.6,7.2c2.1,2.5,8,4.1,17.6,4.1c9.7,0,15.7-1.5,17.8-4.1
			c2.1-2.6,2.3-4.5,0.6-7.2c-1.8-2.9-5.5-3.7-18.4-3.7C140.7,168.3,137.1,169.1,135.3,172.1z"/>
		<path class="st2" d="M143.6,191.5c-0.7-1.1-1.5-1.8-2.5-2c-2.4-0.4-5.8,2.1-10.2,7.7c-4.9,6.1-7.7,7.8-13.6,7.8
			c-4,0-7.8,0.9-8.7,2c0,0-0.1,0.1-0.1,0.1c0,0,0,0,0,0.1c-0.1,0.1-0.1,0.2-0.2,0.4c-1.1,3.5,4.9,14.4,9,16
			c4.9,1.9,4.4,2.1,12.8-5.3C137.8,211.5,145.9,195.3,143.6,191.5z"/>
		<path class="st2" d="M131.6,155c6.5,5.4,13.2,6.4,13.2,1c0-3.8-22.7-42.7-36.5-41.9c-11.5-0.4-25.8,6-30.7,15.7
			c-4.2,8.3-2.8,18.9,3.7,27.2c2.4,3.1,5,5.6,5.9,5.7c0,0,0,0,0.1,0s0,0,0.1,0c0,0,0,0,0-0.1c1.1-0.3,5.4-3.8,9.8-8
			C104.9,147.5,115.5,141.6,131.6,155z"/>
	</g>
</g>
<g>
	<path id="path2242_4_" class="st3" d="M0.2,357.3c25-4,8.3-4,50-4s66.7,25,108.3,25s66.7-16.7,108.3-16.7s66.7,16.7,108.3,16.7
		s66.7-25,108.3-25s66.7,25,108.3,25H1000v-90.6H591.8c-41.7,0-66.7-25-108.3-25s-66.7,25-108.3,25S308.5,271,266.9,271
		s-66.7,16.7-108.3,16.7s-66.7-25-108.3-25s-25,0-50,4V357.3z"/>
	<path id="path2242_6_" class="st4" d="M0.2,342.2c25-4,8.3-4,50-4s66.7,25,108.3,25s66.7-16.7,108.3-16.7s66.7,16.7,108.3,16.7
		s66.7-25,108.3-25s66.7,25,108.3,25H1000v-75.5H591.8c-41.7,0-66.7-25-108.3-25s-66.7,25-108.3,25S308.5,271,266.9,271
		s-66.7,16.7-108.3,16.7s-66.7-25-108.3-25s-25,0-50,4V342.2z"/>
	<path id="path2242_7_" class="st5" d="M0.2,327c25-4,8.3-4,50-4s66.7,25,108.3,25s66.7-16.7,108.3-16.7S333.5,348,375.2,348
		s66.7-25,108.3-25s66.7,25,108.3,25H1000v-60.4H591.8c-41.7,0-66.7-25-108.3-25s-66.7,25-108.3,25s-66.7-16.7-108.3-16.7
		s-66.7,16.7-108.3,16.7s-66.7-25-108.3-25s-25,0-50,4V327z"/>
	<path id="path2242_10_" class="st6" d="M0.2,311.9c25-4,8.3-4,50-4s66.7,25,108.3,25s66.7-16.7,108.3-16.7s66.7,16.7,108.3,16.7
		s66.7-25,108.3-25s66.7,25,108.3,25H1000v-45.3H591.8c-41.7,0-66.7-25-108.3-25s-66.7,25-108.3,25s-66.7-16.7-108.3-16.7
		s-66.7,16.7-108.3,16.7s-66.7-25-108.3-25s-25,0-50,4C-0.2,269.4,0.2,311.9,0.2,311.9z"/>
	<path id="path2242_8_" class="st7" d="M0.2,296.8c25-4,8.3-4,50-4s66.7,25,108.3,25s66.7-16.7,108.3-16.7s66.7,16.7,108.3,16.7
		s66.7-25,108.3-25s66.7,25,108.3,25H1000v-30.2H591.8c-41.7,0-66.7-25-108.3-25s-66.7,25-108.3,25s-66.7-16.7-108.3-16.7
		s-66.7,16.7-108.3,16.7s-66.7-25-108.3-25s-25,0-50,4v30.9"/>
	<path id="path2242_5_" class="st8" d="M0.2,281.7c25-4,8.3-4,50-4s66.7,25,108.3,25S225.2,286,266.9,286s66.7,16.7,108.3,16.7
		s66.7-25,108.3-25s66.7,25,108.3,25H1000v-15.1H591.8c-41.7,0-66.7-25-108.3-25s-66.7,25-108.3,25s-66.7-16.7-108.3-16.7
		s-66.7,16.7-108.3,16.7s-66.7-25-108.3-25s-25,0-50,4V281.7z"/>
</g>
</svg>
