<?xml version="1.0" encoding="utf-8"?>
<!-- Generator: Adobe Illustrator 25.2.0, SVG Export Plug-In . SVG Version: 6.00 Build 0)  -->
<svg version="1.1" id="Layer_1" xmlns="http://www.w3.org/2000/svg" xmlns:xlink="http://www.w3.org/1999/xlink" x="0px" y="0px"
	 viewBox="0 0 141.7 141.7" style="enable-background:new 0 0 141.7 141.7;" xml:space="preserve">
<style type="text/css">
	.st0{fill:#FFFFFF;}
	.st1{fill:#EB8823;}
	.st2{opacity:0.8;}
	.st3{opacity:0.8;enable-background:new    ;}
	.st4{fill:#C1272D;}
	.st5{opacity:0.8;fill:#FFFFFF;enable-background:new    ;}
	.st6{enable-background:new    ;}
</style>
<g>
	<rect x="3.9" y="3.9" class="st0" width="133.9" height="133.9"/>
	<path class="st1" d="M133.9,7.9v126H7.9V7.9H133.9 M141.7,0H0v141.7h141.7V0L141.7,0z"/>
</g>
<g class="st2">
	<g>
		<path d="M71.1,80.7c-14.7,0-28-10.2-31.3-25.2c-3.8-17.3,7.2-34.4,24.5-38.2c8.4-1.8,16.9-0.3,24.2,4.3c7.2,4.6,12.2,11.8,14,20.1
			l0,0c3.8,17.3-7.2,34.4-24.5,38.2C75.6,80.5,73.3,80.7,71.1,80.7z M71.1,24.4c-1.7,0-3.5,0.2-5.2,0.6c-13,2.9-21.3,15.8-18.5,28.8
			C48.8,60.1,52.6,65.5,58,69c5.4,3.5,11.9,4.6,18.2,3.3c13-2.9,21.3-15.8,18.5-28.8c-1.4-6.3-5.1-11.7-10.6-15.2
			C80.2,25.7,75.7,24.4,71.1,24.4z"/>
	</g>
	<g id="Layer_2_3_">
		<g id="Layer_1-2_2_">
			<path d="M98.4,48.8c-0.1-0.1-0.2-0.1-0.3-0.2c0.1,0,0.2-0.1,0.3-0.2c1-0.8,1.1-2.2,0.4-3.2c0-0.1-0.1-0.1-0.2-0.2
				c-0.8-0.8-2.2-0.8-3.1-0.1l-2.8,2.2c-0.4,0.3-0.9,0.5-1.4,0.5h-0.1c-1.2,0-2.2-0.9-2.3-2c-0.4-2.8-1.5-5.5-3.2-7.8
				c-0.7-0.9-0.6-2.2,0.2-3l0.1-0.1c0.4-0.4,0.9-0.6,1.4-0.7l3.6-0.4c1.2-0.1,2.2-1.2,2.1-2.4c0-1.2-1-2.2-2.3-2.1l0,0
				c-0.2,0-0.4,0-0.5,0.1c0.3-1.2-0.3-2.4-1.5-2.8c-0.2,0-0.4-0.1-0.5-0.1c-1.2-0.1-2.2,0.9-2.4,2.1l-0.4,3.6
				c-0.1,0.5-0.3,1-0.7,1.4l-0.1,0.1c-0.8,0.8-2.1,0.9-3,0.2c-2.3-1.6-4.9-2.8-7.7-3.2c-1.2-0.2-2-1.2-2-2.3v-0.1
				c0-0.5,0.2-1,0.5-1.5l2.2-2.8c0.7-0.9,0.7-2.3-0.1-3.1c-0.9-0.9-2.3-0.9-3.1,0c0,0,0,0,0,0c0,0.1-0.1,0.1-0.2,0.2
				c-0.1,0.1-0.1,0.2-0.2,0.3c0-0.1-0.1-0.2-0.2-0.3c-0.8-1-2.2-1.1-3.1-0.4l0,0c-0.1,0-0.1,0.1-0.2,0.2c-0.8,0.8-0.8,2.2-0.1,3.1
				l2.2,2.8c0.3,0.4,0.5,0.9,0.5,1.5v0.1c0,1.2-0.9,2.2-2,2.3c-2.8,0.4-5.4,1.5-7.7,3.2c-0.9,0.7-2.2,0.6-3.1-0.2l-0.1-0.1
				c-0.4-0.4-0.6-0.9-0.7-1.4l-0.4-3.6c-0.1-1.2-1.2-2.2-2.4-2.1c-1.2,0-2.2,1.1-2.1,2.3c0,0.2,0,0.4,0.1,0.6
				c-1.2-0.3-2.4,0.3-2.7,1.5v0c0,0.2-0.1,0.4-0.1,0.6c-0.1,1.2,0.9,2.2,2.1,2.4l3.6,0.4c0.5,0.1,1,0.3,1.4,0.7l0.1,0.1
				c0.8,0.8,0.9,2.1,0.2,3.1c-1.6,2.3-2.7,5-3.2,7.8c-0.2,1.2-1.1,2-2.3,2h-0.1c-0.5,0-1-0.2-1.4-0.5L46.6,45
				c-0.9-0.7-2.3-0.7-3.1,0.1c-0.9,0.9-0.8,2.3,0,3.2c0,0,0.1,0.1,0.2,0.2c0.1,0.1,0.2,0.1,0.3,0.2c-0.1,0.1-0.2,0.1-0.3,0.2
				c-1,0.8-1.1,2.2-0.4,3.2c0,0.1,0.1,0.1,0.2,0.2c0.8,0.8,2.2,0.8,3.1,0.1l2.8-2.3c0.4-0.3,0.9-0.5,1.4-0.5H51c1.2,0,2.2,0.9,2.3,2
				c0.4,2.8,1.5,5.5,3.2,7.8c0.7,0.9,0.6,2.2-0.3,3l-0.1,0.1c-0.4,0.4-0.9,0.6-1.4,0.7l-3.6,0.4c-1.2,0.1-2.2,1.2-2.1,2.4
				c0,1.2,1,2.2,2.2,2.1c0.2,0,0.4,0,0.6-0.1c-0.4,1.2,0.3,2.4,1.5,2.7c0.2,0,0.4,0.1,0.6,0.1c1.2,0.1,2.2-0.9,2.4-2.1l0.4-3.6
				c0.1-0.5,0.3-1,0.7-1.4l0.1-0.1c0.8-0.8,2.1-0.9,3-0.2c2.3,1.7,4.9,2.8,7.7,3.2c1.2,0.2,2,1.2,2,2.3V69c0,0.5-0.2,1-0.5,1.5
				l-2.2,2.8c-0.7,0.9-0.7,2.3,0.1,3.1c0.9,0.9,2.3,0.9,3.1,0l0,0c0.1-0.1,0.2-0.3,0.3-0.5c0.1,0.1,0.1,0.2,0.2,0.3
				c0.8,1,2.1,1.1,3.1,0.4l0,0c0.1,0,0.1-0.1,0.2-0.2c0.8-0.8,0.8-2.2,0.1-3.1l-2.2-2.8C72,70,71.9,69.5,71.9,69v-0.1
				c0-1.2,0.9-2.2,2-2.3c2.8-0.4,5.5-1.6,7.7-3.2c0.9-0.7,2.2-0.6,3,0.2l0.1,0.1c0.4,0.4,0.6,0.9,0.7,1.4l0.4,3.6
				c0.1,1.2,1.2,2.2,2.4,2.1c1.2,0,2.1-1.1,2.1-2.3c0-0.2,0-0.4-0.1-0.6c1.2,0.3,2.4-0.3,2.7-1.5c0-0.2,0.1-0.4,0.1-0.5
				c0.1-1.2-0.9-2.2-2.1-2.4l-3.6-0.4c-0.5-0.1-1-0.3-1.4-0.7l-0.1-0.1c-0.8-0.8-0.9-2.1-0.2-3.1c1.6-2.3,2.7-5,3.2-7.8
				c0.2-1.2,1.1-2,2.3-2h0.1c0.5,0,1,0.2,1.4,0.5l2.8,2.3c0.9,0.7,2.3,0.7,3.1-0.1c0.9-0.9,0.9-2.3,0-3.2
				C98.5,48.9,98.4,48.9,98.4,48.8z"/>
			<path class="st3" d="M79.5,42c-2.1-2.1-5.5-2.1-7.6,0c0,0,0,0-0.1,0.1c-0.1,0.1-0.2,0.3-0.4,0.4c-0.2,0.2-0.3,0.5-0.5,0.7
				c-0.1-0.2-0.3-0.5-0.5-0.7c-1.8-2.3-5.2-2.7-7.6-0.9c0,0,0,0-0.1,0c-0.1,0.1-0.3,0.2-0.4,0.4c-2,2-2.1,5.3-0.3,7.5l7.3,9.3
				c0.6,0.8,1.8,1,2.6,0.3l0,0c0.1-0.1,0.2-0.2,0.3-0.3l7.3-9.3C81.6,47.3,81.6,44,79.5,42z"/>
		</g>
	</g>
	<g>
		<rect x="67.1" y="20.5" transform="matrix(0.5396 -0.8419 0.8419 0.5396 -8.2344 82.2152)" width="7.9" height="56.3"/>
	</g>
</g>
<g>
	<path class="st4" d="M70.9,80.2c-14.7,0-28-10.2-31.3-25.2C35.8,37.7,46.8,20.5,64,16.7c8.4-1.8,16.9-0.3,24.2,4.3
		c7.2,4.6,12.2,11.8,14,20.1l0,0C106,58.5,95,75.6,77.7,79.4C75.4,79.9,73.2,80.2,70.9,80.2z M70.9,23.9c-1.7,0-3.5,0.2-5.2,0.6
		c-13,2.9-21.3,15.8-18.5,28.8c1.4,6.3,5.1,11.7,10.6,15.2c5.4,3.5,11.9,4.6,18.2,3.3c13-2.9,21.3-15.8,18.5-28.8
		c-1.4-6.3-5.1-11.7-10.6-15.2C80,25.2,75.5,23.9,70.9,23.9z"/>
</g>
<g id="Layer_2_2_">
	<g id="Layer_1-2_1_">
		<path class="st1" d="M98.2,48.3c-0.1-0.1-0.2-0.1-0.3-0.2c0.1,0,0.2-0.1,0.3-0.2c1-0.8,1.1-2.2,0.4-3.2c0-0.1-0.1-0.1-0.2-0.2
			c-0.8-0.8-2.2-0.8-3.1-0.1l-2.8,2.2c-0.4,0.3-0.9,0.5-1.4,0.5H91c-1.2,0-2.2-0.9-2.3-2c-0.4-2.8-1.5-5.5-3.2-7.8
			c-0.7-0.9-0.6-2.2,0.2-3l0.1-0.1c0.4-0.4,0.9-0.6,1.4-0.7l3.6-0.4c1.2-0.1,2.2-1.2,2.1-2.4c0-1.2-1-2.2-2.3-2.1l0,0
			c-0.2,0-0.4,0-0.5,0.1c0.3-1.2-0.3-2.4-1.5-2.8c-0.2,0-0.4-0.1-0.5-0.1c-1.2-0.1-2.2,0.9-2.4,2.1l-0.4,3.6c-0.1,0.5-0.3,1-0.7,1.4
			l-0.1,0.1c-0.8,0.8-2.1,0.9-3,0.2c-2.3-1.6-4.9-2.8-7.7-3.2c-1.2-0.2-2-1.2-2-2.3v-0.1c0-0.5,0.2-1,0.5-1.5l2.2-2.8
			c0.7-0.9,0.7-2.3-0.1-3.1c-0.9-0.9-2.3-0.9-3.1,0c0,0,0,0,0,0c0,0.1-0.1,0.1-0.2,0.2c-0.1,0.1-0.1,0.2-0.2,0.3
			c0-0.1-0.1-0.2-0.2-0.3c-0.8-1-2.2-1.1-3.1-0.4l0,0c-0.1,0-0.1,0.1-0.2,0.2c-0.8,0.8-0.8,2.2-0.1,3.1l2.2,2.8
			c0.3,0.4,0.5,0.9,0.5,1.5v0.1c0,1.2-0.9,2.2-2,2.3c-2.8,0.4-5.4,1.5-7.7,3.2c-0.9,0.7-2.2,0.6-3.1-0.2L57.2,33
			c-0.4-0.4-0.6-0.9-0.7-1.4L56.2,28c-0.1-1.2-1.2-2.2-2.4-2.1c-1.2,0-2.2,1.1-2.1,2.3c0,0.2,0,0.4,0.1,0.6
			c-1.2-0.3-2.4,0.3-2.7,1.5v0c0,0.2-0.1,0.4-0.1,0.6c-0.1,1.2,0.9,2.2,2.1,2.4l3.6,0.4c0.5,0.1,1,0.3,1.4,0.7l0.1,0.1
			c0.8,0.8,0.9,2.1,0.2,3.1c-1.6,2.3-2.7,5-3.2,7.8c-0.2,1.2-1.1,2-2.3,2h-0.1c-0.5,0-1-0.2-1.4-0.5l-2.8-2.3
			c-0.9-0.7-2.3-0.7-3.1,0.1c-0.9,0.9-0.8,2.3,0,3.2c0,0,0.1,0.1,0.2,0.2c0.1,0.1,0.2,0.1,0.3,0.2c-0.1,0.1-0.2,0.1-0.3,0.2
			c-1,0.8-1.1,2.2-0.4,3.2c0,0.1,0.1,0.1,0.2,0.2c0.8,0.8,2.2,0.8,3.1,0.1l2.8-2.3c0.4-0.3,0.9-0.5,1.4-0.5h0.1c1.2,0,2.2,0.9,2.3,2
			c0.4,2.8,1.5,5.5,3.2,7.8c0.7,0.9,0.6,2.2-0.3,3L56,61.9c-0.4,0.4-0.9,0.6-1.4,0.7L51,63c-1.2,0.1-2.2,1.2-2.1,2.4
			c0,1.2,1,2.2,2.2,2.1c0.2,0,0.4,0,0.6-0.1c-0.4,1.2,0.3,2.4,1.5,2.7c0.2,0,0.4,0.1,0.6,0.1c1.2,0.1,2.2-0.9,2.4-2.1l0.4-3.6
			c0.1-0.5,0.3-1,0.7-1.4l0.1-0.1c0.8-0.8,2.1-0.9,3-0.2c2.3,1.7,4.9,2.8,7.7,3.2c1.2,0.2,2,1.2,2,2.3v0.1c0,0.5-0.2,1-0.5,1.5
			l-2.2,2.8c-0.7,0.9-0.7,2.3,0.1,3.1c0.9,0.9,2.3,0.9,3.1,0l0,0c0.1-0.1,0.2-0.3,0.3-0.5c0.1,0.1,0.1,0.2,0.2,0.3
			c0.8,1,2.1,1.1,3.1,0.4l0,0c0.1,0,0.1-0.1,0.2-0.2c0.8-0.8,0.8-2.2,0.1-3.1l-2.2-2.8c-0.3-0.4-0.5-0.9-0.5-1.5v-0.1
			c0-1.2,0.9-2.2,2-2.3c2.8-0.4,5.5-1.6,7.7-3.2c0.9-0.7,2.2-0.6,3,0.2l0.1,0.1c0.4,0.4,0.6,0.9,0.7,1.4l0.4,3.6
			c0.1,1.2,1.2,2.2,2.4,2.1c1.2,0,2.1-1.1,2.1-2.3c0-0.2,0-0.4-0.1-0.6c1.2,0.3,2.4-0.3,2.7-1.5c0-0.2,0.1-0.4,0.1-0.5
			c0.1-1.2-0.9-2.2-2.1-2.4l-3.6-0.4c-0.5-0.1-1-0.3-1.4-0.7l-0.1-0.1c-0.8-0.8-0.9-2.1-0.2-3.1c1.6-2.3,2.7-5,3.2-7.8
			c0.2-1.2,1.1-2,2.3-2H91c0.5,0,1,0.2,1.4,0.5l2.8,2.3c0.9,0.7,2.3,0.7,3.1-0.1c0.9-0.9,0.9-2.3,0-3.2
			C98.3,48.3,98.2,48.3,98.2,48.3z"/>
		<path class="st5" d="M79.4,41.4c-2.1-2.1-5.5-2.1-7.6,0c0,0,0,0-0.1,0.1c-0.1,0.1-0.2,0.3-0.4,0.4c-0.2,0.2-0.3,0.5-0.5,0.7
			c-0.1-0.2-0.3-0.5-0.5-0.7c-1.8-2.3-5.2-2.7-7.6-0.9c0,0,0,0-0.1,0c-0.1,0.1-0.3,0.2-0.4,0.4c-2,2-2.1,5.3-0.3,7.5l7.3,9.3
			c0.6,0.8,1.8,1,2.6,0.3l0,0c0.1-0.1,0.2-0.2,0.3-0.3l7.3-9.3C81.4,46.7,81.4,43.4,79.4,41.4z"/>
	</g>
</g>
<g>
	<rect x="67" y="19.9" transform="matrix(0.5396 -0.8419 0.8419 0.5396 -7.8396 81.8192)" class="st4" width="7.9" height="56.3"/>
</g>
<g>
	<g class="st6">
		<path class="st1" d="M35.3,96.7h-1.8V93h-3.4v3.7h-1.8v-8.6h1.8v3.4h3.4v-3.4h1.8V96.7z"/>
		<path class="st1" d="M38.2,87.6c0.3,0,0.5,0.1,0.7,0.2c0.2,0.1,0.3,0.4,0.3,0.7c0,0.3-0.1,0.6-0.3,0.7c-0.2,0.1-0.4,0.2-0.7,0.2
			c-0.3,0-0.5-0.1-0.7-0.2c-0.2-0.1-0.3-0.4-0.3-0.7c0-0.3,0.1-0.6,0.3-0.7C37.7,87.7,37.9,87.6,38.2,87.6z M39.1,90.2v6.6h-1.8
			v-6.6H39.1z"/>
		<path class="st1" d="M43.7,90.1c0.6,0,1.1,0.1,1.6,0.3c0.4,0.2,0.8,0.6,1,1c0.2,0.4,0.4,1,0.4,1.6v0.9h-4.2c0,0.5,0.2,0.9,0.5,1.2
			c0.3,0.3,0.7,0.4,1.2,0.4c0.4,0,0.8,0,1.2-0.1c0.3-0.1,0.7-0.2,1.1-0.4v1.4c-0.3,0.2-0.7,0.3-1,0.4c-0.4,0.1-0.8,0.1-1.3,0.1
			c-0.7,0-1.2-0.1-1.7-0.4c-0.5-0.2-0.9-0.6-1.2-1.1c-0.3-0.5-0.4-1.1-0.4-1.9c0-0.8,0.1-1.4,0.4-1.9c0.3-0.5,0.6-0.9,1.1-1.2
			C42.5,90.2,43.1,90.1,43.7,90.1z M43.7,91.3c-0.3,0-0.6,0.1-0.9,0.3c-0.2,0.2-0.4,0.6-0.4,1.1h2.5c0-0.3-0.1-0.5-0.1-0.7
			c-0.1-0.2-0.2-0.4-0.4-0.5C44.2,91.4,44,91.3,43.7,91.3z"/>
		<path class="st1" d="M51.7,90.1c0.1,0,0.2,0,0.3,0c0.1,0,0.2,0,0.3,0l-0.1,1.7c-0.1,0-0.1,0-0.2,0c-0.1,0-0.2,0-0.3,0
			c-0.2,0-0.5,0-0.7,0.1c-0.2,0.1-0.4,0.2-0.6,0.3c-0.2,0.1-0.3,0.3-0.4,0.5c-0.1,0.2-0.1,0.5-0.1,0.8v3.3h-1.8v-6.6h1.4l0.3,1.1
			h0.1c0.1-0.2,0.3-0.4,0.5-0.6c0.2-0.2,0.4-0.3,0.7-0.4C51.2,90.1,51.4,90.1,51.7,90.1z"/>
		<path class="st1" d="M61.2,96.7H56v-1.1l3-4.1h-2.9v-1.4h4.9v1.2l-3,4h3.1V96.7z"/>
		<path class="st1" d="M65.2,90c0.9,0,1.6,0.2,2,0.6c0.5,0.4,0.7,1,0.7,1.7v4.4h-1.2l-0.3-0.9h0c-0.2,0.2-0.4,0.4-0.6,0.6
			c-0.2,0.1-0.4,0.3-0.7,0.3c-0.3,0.1-0.6,0.1-0.9,0.1c-0.4,0-0.7-0.1-1-0.2c-0.3-0.1-0.5-0.4-0.7-0.7c-0.2-0.3-0.3-0.7-0.3-1.2
			c0-0.7,0.2-1.2,0.7-1.5c0.5-0.3,1.2-0.5,2.2-0.5l1.1,0v-0.3c0-0.3-0.1-0.6-0.3-0.8c-0.2-0.2-0.4-0.2-0.8-0.2c-0.3,0-0.6,0-0.9,0.1
			c-0.3,0.1-0.6,0.2-0.9,0.3l-0.6-1.2c0.3-0.2,0.7-0.3,1.2-0.4C64.3,90.1,64.7,90,65.2,90z M66.2,93.7l-0.7,0c-0.6,0-1,0.1-1.2,0.3
			c-0.2,0.2-0.3,0.4-0.3,0.8c0,0.3,0.1,0.5,0.2,0.6c0.2,0.1,0.4,0.2,0.6,0.2c0.4,0,0.7-0.1,1-0.3c0.3-0.2,0.4-0.5,0.4-1V93.7z"/>
		<path class="st1" d="M72.5,95.4c0.2,0,0.4,0,0.6-0.1c0.2,0,0.4-0.1,0.6-0.1v1.3c-0.2,0.1-0.4,0.2-0.7,0.2
			c-0.3,0.1-0.6,0.1-0.9,0.1c-0.4,0-0.7-0.1-1.1-0.2c-0.3-0.1-0.6-0.3-0.7-0.7c-0.2-0.3-0.3-0.8-0.3-1.3v-3.2h-0.9v-0.8l1-0.6
			l0.5-1.4h1.1v1.4h1.8v1.3h-1.8v3.2c0,0.3,0.1,0.4,0.2,0.6C72.1,95.4,72.3,95.4,72.5,95.4z"/>
		<path class="st1" d="M80.8,90.1c0.6,0,1.1,0.1,1.6,0.3c0.4,0.2,0.8,0.6,1,1c0.2,0.4,0.4,1,0.4,1.6v0.9h-4.2c0,0.5,0.2,0.9,0.5,1.2
			c0.3,0.3,0.7,0.4,1.2,0.4c0.4,0,0.8,0,1.2-0.1c0.3-0.1,0.7-0.2,1.1-0.4v1.4c-0.3,0.2-0.7,0.3-1,0.4c-0.4,0.1-0.8,0.1-1.3,0.1
			c-0.7,0-1.2-0.1-1.7-0.4c-0.5-0.2-0.9-0.6-1.2-1.1c-0.3-0.5-0.4-1.1-0.4-1.9c0-0.8,0.1-1.4,0.4-1.9c0.3-0.5,0.6-0.9,1.1-1.2
			C79.7,90.2,80.2,90.1,80.8,90.1z M80.8,91.3c-0.3,0-0.6,0.1-0.9,0.3c-0.2,0.2-0.4,0.6-0.4,1.1h2.5c0-0.3-0.1-0.5-0.1-0.7
			c-0.1-0.2-0.2-0.4-0.4-0.5C81.3,91.4,81.1,91.3,80.8,91.3z"/>
		<path class="st1" d="M87.9,90.1c0.6,0,1.1,0.1,1.6,0.3c0.4,0.2,0.8,0.6,1,1c0.2,0.4,0.4,1,0.4,1.6v0.9h-4.2c0,0.5,0.2,0.9,0.5,1.2
			c0.3,0.3,0.7,0.4,1.2,0.4c0.4,0,0.8,0,1.2-0.1c0.3-0.1,0.7-0.2,1.1-0.4v1.4c-0.3,0.2-0.7,0.3-1,0.4c-0.4,0.1-0.8,0.1-1.3,0.1
			c-0.7,0-1.2-0.1-1.7-0.4c-0.5-0.2-0.9-0.6-1.2-1.1c-0.3-0.5-0.4-1.1-0.4-1.9c0-0.8,0.1-1.4,0.4-1.9c0.3-0.5,0.6-0.9,1.1-1.2
			C86.8,90.2,87.3,90.1,87.9,90.1z M87.9,91.3c-0.3,0-0.6,0.1-0.9,0.3c-0.2,0.2-0.4,0.6-0.4,1.1h2.5c0-0.3-0.1-0.5-0.1-0.7
			c-0.1-0.2-0.2-0.4-0.4-0.5C88.4,91.4,88.2,91.3,87.9,91.3z"/>
		<path class="st1" d="M96,90.1c0.7,0,1.3,0.2,1.7,0.6c0.4,0.4,0.6,1,0.6,1.8v4.3h-1.8v-3.8c0-0.5-0.1-0.8-0.3-1.1
			c-0.2-0.2-0.4-0.4-0.8-0.4c-0.5,0-0.9,0.2-1.1,0.6c-0.2,0.4-0.3,0.9-0.3,1.6v3.1h-1.8v-6.6h1.4l0.2,0.8H94
			c0.1-0.2,0.3-0.4,0.5-0.6c0.2-0.1,0.4-0.2,0.7-0.3C95.5,90.1,95.8,90.1,96,90.1z"/>
		<path class="st1" d="M33.5,111.2l-0.5-2.3c0-0.1-0.1-0.3-0.1-0.6c-0.1-0.3-0.1-0.6-0.2-0.9c-0.1-0.3-0.1-0.6-0.2-0.9
			c-0.1-0.3-0.1-0.5-0.1-0.6h-0.1c0,0.1-0.1,0.3-0.1,0.6c-0.1,0.3-0.1,0.5-0.2,0.9c-0.1,0.3-0.1,0.6-0.2,0.9
			c-0.1,0.3-0.1,0.5-0.1,0.6l-0.5,2.3h-1.9l-1.9-6.6h1.8l0.8,2.9c0.1,0.2,0.1,0.4,0.1,0.7c0,0.3,0.1,0.5,0.1,0.8
			c0,0.3,0.1,0.5,0.1,0.6h0c0-0.1,0-0.3,0-0.5c0-0.2,0.1-0.4,0.1-0.6c0-0.2,0.1-0.4,0.1-0.5c0-0.2,0.1-0.3,0.1-0.3l0.8-3.1h2
			l0.8,3.1c0,0.1,0.1,0.3,0.1,0.5c0,0.2,0.1,0.5,0.1,0.8c0,0.3,0.1,0.5,0.1,0.6h0c0-0.1,0-0.3,0.1-0.6c0-0.3,0.1-0.5,0.1-0.8
			c0.1-0.3,0.1-0.5,0.2-0.7l0.8-2.9h1.8l-1.9,6.6H33.5z"/>
		<path class="st1" d="M41.1,104.5c0.9,0,1.6,0.2,2,0.6c0.5,0.4,0.7,1,0.7,1.7v4.4h-1.2l-0.3-0.9h0c-0.2,0.2-0.4,0.4-0.6,0.6
			c-0.2,0.1-0.4,0.3-0.7,0.3s-0.6,0.1-0.9,0.1c-0.4,0-0.7-0.1-1-0.2c-0.3-0.1-0.5-0.4-0.7-0.7c-0.2-0.3-0.3-0.7-0.3-1.2
			c0-0.7,0.2-1.2,0.7-1.5c0.5-0.3,1.2-0.5,2.2-0.5l1.1,0v-0.3c0-0.3-0.1-0.6-0.3-0.8c-0.2-0.2-0.4-0.2-0.8-0.2c-0.3,0-0.6,0-0.9,0.1
			c-0.3,0.1-0.6,0.2-0.9,0.3l-0.6-1.2c0.3-0.2,0.7-0.3,1.2-0.4C40.2,104.5,40.6,104.5,41.1,104.5z M42,108.1l-0.7,0
			c-0.6,0-1,0.1-1.2,0.3c-0.2,0.2-0.3,0.4-0.3,0.8c0,0.3,0.1,0.5,0.2,0.6c0.2,0.1,0.4,0.2,0.6,0.2c0.4,0,0.7-0.1,1-0.3
			c0.3-0.2,0.4-0.5,0.4-1V108.1z"/>
		<path class="st1" d="M49.3,104.5c0.7,0,1.3,0.3,1.8,0.9c0.5,0.6,0.7,1.4,0.7,2.5c0,0.7-0.1,1.4-0.3,1.9c-0.2,0.5-0.5,0.9-0.9,1.1
			c-0.4,0.3-0.8,0.4-1.3,0.4c-0.3,0-0.6,0-0.8-0.1c-0.2-0.1-0.4-0.2-0.6-0.3c-0.2-0.1-0.3-0.3-0.4-0.4h-0.1c0,0.2,0.1,0.3,0.1,0.5
			c0,0.2,0,0.3,0,0.5v2.6h-1.8v-9.4h1.5l0.3,0.9h0.1c0.1-0.2,0.3-0.3,0.4-0.5c0.2-0.1,0.4-0.3,0.6-0.4
			C48.7,104.5,49,104.5,49.3,104.5z M48.7,105.9c-0.3,0-0.6,0.1-0.7,0.2c-0.2,0.1-0.3,0.3-0.4,0.6c-0.1,0.3-0.1,0.6-0.1,1v0.2
			c0,0.4,0,0.8,0.1,1.1c0.1,0.3,0.2,0.5,0.4,0.7c0.2,0.2,0.5,0.2,0.8,0.2c0.3,0,0.5-0.1,0.7-0.2c0.2-0.2,0.3-0.4,0.4-0.7
			c0.1-0.3,0.1-0.7,0.1-1.1c0-0.6-0.1-1.1-0.3-1.4C49.5,106.1,49.2,105.9,48.7,105.9z"/>
		<path class="st1" d="M56.9,104.5c0.7,0,1.3,0.3,1.8,0.9c0.5,0.6,0.7,1.4,0.7,2.5c0,0.7-0.1,1.4-0.3,1.9c-0.2,0.5-0.5,0.9-0.9,1.1
			c-0.4,0.3-0.8,0.4-1.3,0.4c-0.3,0-0.6,0-0.8-0.1c-0.2-0.1-0.4-0.2-0.6-0.3c-0.2-0.1-0.3-0.3-0.4-0.4H55c0,0.2,0.1,0.3,0.1,0.5
			c0,0.2,0,0.3,0,0.5v2.6h-1.8v-9.4h1.5l0.3,0.9h0.1c0.1-0.2,0.3-0.3,0.4-0.5c0.2-0.1,0.4-0.3,0.6-0.4
			C56.3,104.5,56.6,104.5,56.9,104.5z M56.3,105.9c-0.3,0-0.6,0.1-0.7,0.2c-0.2,0.1-0.3,0.3-0.4,0.6c-0.1,0.3-0.1,0.6-0.1,1v0.2
			c0,0.4,0,0.8,0.1,1.1c0.1,0.3,0.2,0.5,0.4,0.7c0.2,0.2,0.5,0.2,0.8,0.2c0.3,0,0.5-0.1,0.7-0.2c0.2-0.2,0.3-0.4,0.4-0.7
			c0.1-0.3,0.1-0.7,0.1-1.1c0-0.6-0.1-1.1-0.3-1.4C57.1,106.1,56.8,105.9,56.3,105.9z"/>
		<path class="st1" d="M61.8,102c0.3,0,0.5,0.1,0.7,0.2c0.2,0.1,0.3,0.4,0.3,0.7c0,0.3-0.1,0.6-0.3,0.7c-0.2,0.1-0.4,0.2-0.7,0.2
			c-0.3,0-0.5-0.1-0.7-0.2c-0.2-0.1-0.3-0.4-0.3-0.7c0-0.3,0.1-0.6,0.3-0.7C61.3,102.1,61.5,102,61.8,102z M62.7,104.6v6.6h-1.8
			v-6.6H62.7z"/>
		<path class="st1" d="M67.2,104.5c0.6,0,1.1,0.1,1.6,0.3c0.4,0.2,0.8,0.6,1,1c0.2,0.4,0.4,1,0.4,1.6v0.9H66c0,0.5,0.2,0.9,0.5,1.2
			c0.3,0.3,0.7,0.4,1.2,0.4c0.4,0,0.8,0,1.2-0.1c0.3-0.1,0.7-0.2,1.1-0.4v1.4c-0.3,0.2-0.7,0.3-1,0.4c-0.4,0.1-0.8,0.1-1.3,0.1
			c-0.7,0-1.2-0.1-1.7-0.4c-0.5-0.2-0.9-0.6-1.2-1.1c-0.3-0.5-0.4-1.1-0.4-1.9c0-0.8,0.1-1.4,0.4-1.9c0.3-0.5,0.6-0.9,1.1-1.2
			C66.1,104.6,66.6,104.5,67.2,104.5z M67.3,105.7c-0.3,0-0.6,0.1-0.9,0.3c-0.2,0.2-0.4,0.6-0.4,1.1h2.5c0-0.3-0.1-0.5-0.1-0.7
			c-0.1-0.2-0.2-0.4-0.4-0.5C67.8,105.8,67.5,105.7,67.3,105.7z"/>
		<path class="st1" d="M76.2,109.2c0,0.4-0.1,0.8-0.3,1.1c-0.2,0.3-0.5,0.5-0.9,0.7c-0.4,0.2-0.9,0.2-1.5,0.2c-0.5,0-0.8,0-1.2-0.1
			c-0.3-0.1-0.7-0.2-1-0.3v-1.5c0.4,0.2,0.7,0.3,1.1,0.4c0.4,0.1,0.8,0.2,1.1,0.2c0.3,0,0.6-0.1,0.7-0.2c0.2-0.1,0.2-0.2,0.2-0.4
			c0-0.1,0-0.2-0.1-0.3c-0.1-0.1-0.2-0.2-0.4-0.3c-0.2-0.1-0.5-0.3-0.9-0.4c-0.4-0.2-0.7-0.3-1-0.5c-0.3-0.2-0.5-0.4-0.6-0.6
			c-0.1-0.2-0.2-0.5-0.2-0.9c0-0.6,0.2-1.1,0.7-1.4c0.5-0.3,1.1-0.5,1.9-0.5c0.4,0,0.8,0,1.2,0.1c0.4,0.1,0.7,0.2,1.1,0.4l-0.5,1.3
			c-0.3-0.1-0.6-0.3-0.9-0.3c-0.3-0.1-0.6-0.1-0.9-0.1c-0.3,0-0.5,0-0.6,0.1c-0.1,0.1-0.2,0.2-0.2,0.3c0,0.1,0,0.2,0.1,0.3
			c0.1,0.1,0.2,0.2,0.4,0.3c0.2,0.1,0.5,0.2,0.9,0.4c0.4,0.2,0.7,0.3,1,0.5c0.3,0.2,0.5,0.4,0.6,0.6
			C76.1,108.5,76.2,108.8,76.2,109.2z"/>
		<path class="st1" d="M80.4,109.8c0.2,0,0.4,0,0.6-0.1c0.2,0,0.4-0.1,0.6-0.1v1.3c-0.2,0.1-0.4,0.2-0.7,0.2
			c-0.3,0.1-0.6,0.1-0.9,0.1c-0.4,0-0.7-0.1-1.1-0.2c-0.3-0.1-0.6-0.3-0.7-0.7c-0.2-0.3-0.3-0.8-0.3-1.3v-3.2h-0.9v-0.8l1-0.6
			l0.5-1.4h1.1v1.4h1.8v1.3h-1.8v3.2c0,0.3,0.1,0.4,0.2,0.6C80,109.8,80.1,109.8,80.4,109.8z"/>
		<path class="st1" d="M83.7,102c0.3,0,0.5,0.1,0.7,0.2c0.2,0.1,0.3,0.4,0.3,0.7c0,0.3-0.1,0.6-0.3,0.7c-0.2,0.1-0.4,0.2-0.7,0.2
			c-0.3,0-0.5-0.1-0.7-0.2c-0.2-0.1-0.3-0.4-0.3-0.7c0-0.3,0.1-0.6,0.3-0.7C83.2,102.1,83.5,102,83.7,102z M84.6,104.6v6.6h-1.8
			v-6.6H84.6z"/>
		<path class="st1" d="M89.2,111.3c-0.6,0-1.2-0.1-1.7-0.4c-0.5-0.2-0.8-0.6-1-1.1c-0.2-0.5-0.4-1.1-0.4-1.9c0-0.8,0.1-1.5,0.4-2
			c0.3-0.5,0.6-0.9,1.1-1.1c0.5-0.2,1-0.4,1.7-0.4c0.5,0,0.8,0,1.2,0.1c0.3,0.1,0.6,0.2,0.9,0.3l-0.5,1.4c-0.3-0.1-0.5-0.2-0.8-0.3
			c-0.2-0.1-0.5-0.1-0.7-0.1c-0.3,0-0.6,0.1-0.8,0.2c-0.2,0.1-0.4,0.4-0.5,0.7c-0.1,0.3-0.2,0.7-0.2,1.1c0,0.4,0.1,0.8,0.2,1.1
			c0.1,0.3,0.3,0.5,0.5,0.6c0.2,0.1,0.5,0.2,0.8,0.2c0.4,0,0.7,0,1-0.1c0.3-0.1,0.6-0.2,0.8-0.4v1.5c-0.3,0.2-0.6,0.3-0.9,0.4
			C90,111.2,89.6,111.3,89.2,111.3z"/>
		<path class="st1" d="M94.5,102v4.1c0,0.2,0,0.5,0,0.7c0,0.2,0,0.5-0.1,0.7h0c0.1-0.2,0.2-0.3,0.4-0.5c0.1-0.2,0.3-0.3,0.4-0.5
			l1.8-2h2l-2.6,2.8l2.8,3.7h-2.1l-1.9-2.7l-0.8,0.6v2h-1.8V102H94.5z"/>
		<path class="st1" d="M102.8,104.5c0.6,0,1.1,0.1,1.6,0.3c0.4,0.2,0.8,0.6,1,1c0.2,0.4,0.4,1,0.4,1.6v0.9h-4.2
			c0,0.5,0.2,0.9,0.5,1.2c0.3,0.3,0.7,0.4,1.2,0.4c0.4,0,0.8,0,1.2-0.1c0.3-0.1,0.7-0.2,1.1-0.4v1.4c-0.3,0.2-0.7,0.3-1,0.4
			c-0.4,0.1-0.8,0.1-1.3,0.1c-0.7,0-1.2-0.1-1.7-0.4c-0.5-0.2-0.9-0.6-1.2-1.1c-0.3-0.5-0.4-1.1-0.4-1.9c0-0.8,0.1-1.4,0.4-1.9
			c0.3-0.5,0.6-0.9,1.1-1.2C101.7,104.6,102.2,104.5,102.8,104.5z M102.8,105.7c-0.3,0-0.6,0.1-0.9,0.3c-0.2,0.2-0.4,0.6-0.4,1.1
			h2.5c0-0.3-0.1-0.5-0.1-0.7c-0.1-0.2-0.2-0.4-0.4-0.5C103.4,105.8,103.1,105.7,102.8,105.7z"/>
		<path class="st1" d="M110.9,104.5c0.1,0,0.2,0,0.3,0c0.1,0,0.2,0,0.3,0l-0.1,1.7c-0.1,0-0.1,0-0.2,0c-0.1,0-0.2,0-0.3,0
			c-0.2,0-0.5,0-0.7,0.1c-0.2,0.1-0.4,0.2-0.6,0.3c-0.2,0.1-0.3,0.3-0.4,0.5c-0.1,0.2-0.1,0.5-0.1,0.8v3.3h-1.8v-6.6h1.4l0.3,1.1
			h0.1c0.1-0.2,0.3-0.4,0.5-0.6c0.2-0.2,0.4-0.3,0.7-0.4C110.3,104.5,110.6,104.5,110.9,104.5z"/>
		<path class="st1" d="M114.4,109.8l0.1,0.1c-0.1,0.3-0.2,0.6-0.3,0.9c-0.1,0.3-0.2,0.6-0.4,1c-0.1,0.3-0.3,0.6-0.4,0.9h-1.3
			c0.1-0.3,0.2-0.6,0.2-1c0.1-0.3,0.1-0.7,0.2-1c0.1-0.3,0.1-0.6,0.2-0.9H114.4z"/>
		<path d="M31.5,119c0.7,0,1.3,0.2,1.7,0.6c0.4,0.4,0.6,1,0.6,1.8v4.2h-1.4v-4c0-0.5-0.1-0.9-0.3-1.1c-0.2-0.3-0.5-0.4-1-0.4
			c-0.6,0-1.1,0.2-1.3,0.6c-0.2,0.4-0.4,0.9-0.4,1.7v3.2h-1.4v-6.5h1.1l0.2,0.9h0.1c0.1-0.2,0.3-0.4,0.5-0.6
			c0.2-0.1,0.4-0.3,0.7-0.3C31,119,31.3,119,31.5,119z"/>
		<path d="M41.5,119.1v6.5h-1.1l-0.2-0.9h-0.1c-0.1,0.2-0.3,0.4-0.5,0.6c-0.2,0.1-0.4,0.3-0.7,0.3c-0.3,0.1-0.5,0.1-0.8,0.1
			c-0.5,0-0.9-0.1-1.2-0.2c-0.3-0.2-0.6-0.4-0.8-0.8c-0.2-0.3-0.3-0.8-0.3-1.3v-4.2h1.4v4c0,0.5,0.1,0.9,0.3,1.1
			c0.2,0.3,0.5,0.4,1,0.4c0.4,0,0.8-0.1,1-0.3c0.2-0.2,0.4-0.4,0.5-0.8c0.1-0.3,0.2-0.7,0.2-1.2v-3.2H41.5z"/>
		<path d="M49.9,119c0.7,0,1.3,0.2,1.7,0.6c0.4,0.4,0.6,1,0.6,1.8v4.2h-1.4v-4c0-0.5-0.1-0.9-0.3-1.1c-0.2-0.3-0.5-0.4-1-0.4
			c-0.6,0-1.1,0.2-1.3,0.6c-0.2,0.4-0.4,0.9-0.4,1.7v3.2h-1.4v-6.5h1.1l0.2,0.9h0.1c0.1-0.2,0.3-0.4,0.5-0.6
			c0.2-0.1,0.4-0.3,0.7-0.3C49.4,119,49.7,119,49.9,119z"/>
		<path d="M54.9,116.6c0.2,0,0.4,0.1,0.5,0.2c0.2,0.1,0.2,0.3,0.2,0.6c0,0.3-0.1,0.5-0.2,0.6c-0.2,0.1-0.3,0.2-0.5,0.2
			c-0.2,0-0.4-0.1-0.6-0.2c-0.2-0.1-0.2-0.3-0.2-0.6c0-0.3,0.1-0.5,0.2-0.6C54.5,116.7,54.7,116.6,54.9,116.6z M55.6,119.1v6.5h-1.4
			v-6.5H55.6z"/>
		<path d="M60.1,119c0.6,0,1.1,0.1,1.5,0.4c0.4,0.2,0.7,0.6,1,1c0.2,0.4,0.3,1,0.3,1.6v0.7h-4.3c0,0.6,0.2,1.1,0.5,1.5
			c0.3,0.3,0.8,0.5,1.4,0.5c0.4,0,0.8,0,1.1-0.1c0.3-0.1,0.7-0.2,1-0.4v1.1c-0.3,0.2-0.7,0.3-1,0.3c-0.3,0.1-0.7,0.1-1.2,0.1
			c-0.6,0-1.2-0.1-1.7-0.4c-0.5-0.2-0.9-0.6-1.1-1.1c-0.3-0.5-0.4-1.1-0.4-1.8c0-0.7,0.1-1.3,0.4-1.9c0.2-0.5,0.6-0.9,1-1.2
			C59,119.1,59.5,119,60.1,119z M60.1,120c-0.4,0-0.8,0.1-1.1,0.4c-0.3,0.3-0.4,0.7-0.5,1.2h3c0-0.3-0.1-0.6-0.2-0.9
			c-0.1-0.2-0.3-0.4-0.5-0.6C60.7,120.1,60.4,120,60.1,120z"/>
		<path d="M66.9,124.6c0.2,0,0.4,0,0.5,0c0.2,0,0.3-0.1,0.5-0.1v1c-0.2,0.1-0.4,0.1-0.6,0.2s-0.5,0.1-0.8,0.1c-0.4,0-0.7-0.1-1-0.2
			c-0.3-0.1-0.5-0.3-0.7-0.6c-0.2-0.3-0.3-0.7-0.3-1.2v-3.5h-0.9v-0.6l1-0.5l0.5-1.4H66v1.4h1.9v1.1H66v3.5c0,0.3,0.1,0.6,0.2,0.7
			C66.4,124.5,66.6,124.6,66.9,124.6z"/>
		<path d="M79.7,119c0.7,0,1.3,0.2,1.6,0.6c0.4,0.4,0.6,1,0.6,1.8v4.2h-1.4v-4c0-0.5-0.1-0.9-0.3-1.1c-0.2-0.2-0.5-0.4-0.9-0.4
			c-0.5,0-0.9,0.2-1.2,0.5c-0.2,0.3-0.4,0.9-0.4,1.5v3.4h-1.4v-4c0-0.3,0-0.6-0.1-0.8c-0.1-0.2-0.2-0.4-0.4-0.5
			c-0.2-0.1-0.4-0.2-0.7-0.2c-0.4,0-0.7,0.1-0.9,0.3c-0.2,0.2-0.4,0.4-0.5,0.8c-0.1,0.3-0.1,0.7-0.1,1.2v3.2h-1.4v-6.5h1.1l0.2,0.9
			h0.1c0.1-0.2,0.3-0.4,0.5-0.6c0.2-0.1,0.4-0.3,0.7-0.3c0.2-0.1,0.5-0.1,0.8-0.1c0.5,0,0.9,0.1,1.2,0.3c0.3,0.2,0.6,0.4,0.7,0.8
			h0.1c0.2-0.4,0.5-0.6,0.9-0.8C78.9,119,79.3,119,79.7,119z"/>
		<path d="M86.4,119c0.6,0,1.1,0.1,1.5,0.4c0.4,0.2,0.7,0.6,1,1c0.2,0.4,0.3,1,0.3,1.6v0.7h-4.3c0,0.6,0.2,1.1,0.5,1.5
			c0.3,0.3,0.8,0.5,1.4,0.5c0.4,0,0.8,0,1.1-0.1c0.3-0.1,0.7-0.2,1-0.4v1.1c-0.3,0.2-0.7,0.3-1,0.3c-0.3,0.1-0.7,0.1-1.2,0.1
			c-0.6,0-1.2-0.1-1.7-0.4c-0.5-0.2-0.9-0.6-1.1-1.1c-0.3-0.5-0.4-1.1-0.4-1.8c0-0.7,0.1-1.3,0.4-1.9c0.2-0.5,0.6-0.9,1-1.2
			C85.3,119.1,85.8,119,86.4,119z M86.4,120c-0.4,0-0.8,0.1-1.1,0.4c-0.3,0.3-0.4,0.7-0.5,1.2h3c0-0.3-0.1-0.6-0.2-0.9
			c-0.1-0.2-0.3-0.4-0.5-0.6C87,120.1,86.7,120,86.4,120z"/>
		<path d="M93.3,119c0.6,0,1.1,0.1,1.5,0.4c0.4,0.2,0.7,0.6,1,1c0.2,0.4,0.3,1,0.3,1.6v0.7h-4.3c0,0.6,0.2,1.1,0.5,1.5
			c0.3,0.3,0.8,0.5,1.4,0.5c0.4,0,0.8,0,1.1-0.1c0.3-0.1,0.7-0.2,1-0.4v1.1c-0.3,0.2-0.7,0.3-1,0.3c-0.3,0.1-0.7,0.1-1.2,0.1
			c-0.6,0-1.2-0.1-1.7-0.4c-0.5-0.2-0.9-0.6-1.1-1.1c-0.3-0.5-0.4-1.1-0.4-1.8c0-0.7,0.1-1.3,0.4-1.9c0.2-0.5,0.6-0.9,1-1.2
			C92.2,119.1,92.7,119,93.3,119z M93.3,120c-0.4,0-0.8,0.1-1.1,0.4c-0.3,0.3-0.4,0.7-0.5,1.2h3c0-0.3-0.1-0.6-0.2-0.9
			c-0.1-0.2-0.3-0.4-0.5-0.6C93.9,120.1,93.6,120,93.3,120z"/>
		<path d="M100.9,119c0.1,0,0.2,0,0.4,0s0.2,0,0.3,0l-0.1,1.3c-0.1,0-0.2,0-0.3-0.1c-0.1,0-0.2,0-0.3,0c-0.2,0-0.5,0-0.7,0.1
			c-0.2,0.1-0.4,0.2-0.6,0.4c-0.2,0.2-0.3,0.4-0.4,0.6c-0.1,0.2-0.1,0.5-0.1,0.8v3.4h-1.4v-6.5h1.1l0.2,1.1H99
			c0.1-0.2,0.3-0.4,0.5-0.6c0.2-0.2,0.4-0.3,0.7-0.5C100.4,119,100.6,119,100.9,119z"/>
		<path d="M102.6,124.9c0-0.3,0.1-0.5,0.3-0.7c0.2-0.1,0.4-0.2,0.6-0.2s0.4,0.1,0.6,0.2c0.2,0.1,0.3,0.4,0.3,0.7
			c0,0.3-0.1,0.5-0.3,0.7c-0.2,0.1-0.4,0.2-0.6,0.2s-0.4-0.1-0.6-0.2S102.6,125.2,102.6,124.9z"/>
	</g>
</g>
</svg>
