<?xml version="1.0" encoding="utf-8"?>
<!-- Generator: Adobe Illustrator 25.2.0, SVG Export Plug-In . SVG Version: 6.00 Build 0)  -->
<svg version="1.1" id="Layer_1" xmlns="http://www.w3.org/2000/svg" xmlns:xlink="http://www.w3.org/1999/xlink" x="0px" y="0px"
	 viewBox="0 0 283.5 141.7" style="enable-background:new 0 0 283.5 141.7;" xml:space="preserve">
<style type="text/css">
	.st0{fill:#FFFFFF;}
	.st1{enable-background:new    ;}
	.st2{fill:#EB8823;}
	.st3{opacity:0.8;enable-background:new    ;}
</style>
<g>
	<rect class="st0" width="283.5" height="141.7"/>
</g>
<g id="Layer_2_4_">
	<g id="Layer_1-2_3_">
		<g>
			<g class="st1">
				<path class="st2" d="M86.6,61.4l2.4,6.9c0.4,1.1,0.7,2.1,1,3.1h0.1c0.3-1,0.6-2,1-3.1l2.4-6.9h2.3L91,73.7h-2.1l-4.7-12.3H86.6z
					"/>
				<path class="st2" d="M100.4,58c0,0.8-0.5,1.4-1.4,1.4c-0.8,0-1.3-0.6-1.3-1.4c0-0.8,0.6-1.4,1.4-1.4
					C99.9,56.6,100.4,57.2,100.4,58z M97.9,73.7V61.4h2.2v12.3H97.9z"/>
				<path class="st2" d="M103.9,65.3c0-1.4,0-2.7-0.1-3.8h2l0.1,2.4h0.1c0.6-1.6,1.9-2.7,3.4-2.7c0.3,0,0.4,0,0.6,0.1v2.1
					c-0.2-0.1-0.5-0.1-0.8-0.1c-1.6,0-2.7,1.2-3,2.9c-0.1,0.3-0.1,0.7-0.1,1v6.5h-2.2V65.3z"/>
				<path class="st2" d="M122.5,70.4c0,1.3,0,2.4,0.1,3.3h-2l-0.1-2h-0.1c-0.6,1-1.9,2.3-4.1,2.3c-1.9,0-4.2-1.1-4.2-5.4v-7.2h2.2
					v6.8c0,2.3,0.7,3.9,2.7,3.9c1.5,0,2.5-1,2.9-2c0.1-0.3,0.2-0.7,0.2-1.1v-7.5h2.2V70.4z"/>
				<path class="st2" d="M125.9,71.4c0.7,0.4,1.8,0.9,2.9,0.9c1.6,0,2.4-0.8,2.4-1.8c0-1.1-0.6-1.6-2.3-2.3c-2.2-0.8-3.2-2-3.2-3.5
					c0-2,1.6-3.6,4.2-3.6c1.2,0,2.3,0.4,3,0.8l-0.6,1.6c-0.5-0.3-1.4-0.7-2.5-0.7c-1.3,0-2.1,0.8-2.1,1.7c0,1,0.7,1.5,2.3,2.1
					c2.1,0.8,3.2,1.9,3.2,3.7c0,2.2-1.7,3.7-4.6,3.7c-1.3,0-2.6-0.3-3.5-0.8L125.9,71.4z"/>
				<path class="st2" d="M147.3,67.5c0,4.5-3.1,6.5-6.1,6.5c-3.3,0-5.9-2.4-5.9-6.3c0-4.1,2.7-6.5,6.1-6.5
					C144.9,61.2,147.3,63.7,147.3,67.5z M137.6,67.6c0,2.7,1.5,4.7,3.7,4.7c2.1,0,3.7-2,3.7-4.8c0-2.1-1-4.7-3.7-4.7
					C138.7,62.8,137.6,65.3,137.6,67.6z"/>
				<path class="st2" d="M150.1,64.8c0-1.3,0-2.3-0.1-3.3h2l0.1,2h0.1c0.6-1.2,2-2.3,4.1-2.3c1.7,0,4.3,1,4.3,5.2v7.3h-2.2v-7.1
					c0-2-0.7-3.6-2.8-3.6c-1.5,0-2.6,1-3,2.3c-0.1,0.3-0.2,0.7-0.2,1v7.4h-2.2V64.8z"/>
				<path class="st2" d="M164.8,61.4l1.6,6.2c0.4,1.4,0.7,2.6,0.9,3.9h0.1c0.3-1.2,0.7-2.6,1.1-3.9l2-6.3h1.9l1.9,6.1
					c0.5,1.5,0.8,2.8,1.1,4h0.1c0.2-1.2,0.5-2.5,0.9-4l1.8-6.2h2.2l-4,12.3h-2l-1.9-5.9c-0.4-1.4-0.8-2.6-1.1-4h-0.1
					c-0.3,1.5-0.7,2.7-1.1,4.1l-2,5.8h-2l-3.7-12.3H164.8z"/>
				<path class="st2" d="M189.3,73.7l-0.2-1.5H189c-0.7,1-2,1.8-3.8,1.8c-2.5,0-3.8-1.8-3.8-3.5c0-3,2.6-4.6,7.4-4.6v-0.3
					c0-1-0.3-2.8-2.8-2.8c-1.1,0-2.3,0.4-3.2,0.9l-0.5-1.5c1-0.7,2.5-1.1,4-1.1c3.8,0,4.7,2.6,4.7,5v4.6c0,1.1,0.1,2.1,0.2,2.9
					H189.3z M188.9,67.4c-2.4-0.1-5.2,0.4-5.2,2.8c0,1.4,1,2.1,2.1,2.1c1.6,0,2.6-1,3-2.1c0.1-0.2,0.1-0.5,0.1-0.7V67.4z"/>
				<path class="st2" d="M201.5,73.7l-0.2-1.5h-0.1c-0.7,1-2,1.8-3.8,1.8c-2.5,0-3.8-1.8-3.8-3.5c0-3,2.6-4.6,7.4-4.6v-0.3
					c0-1-0.3-2.8-2.8-2.8c-1.1,0-2.3,0.4-3.2,0.9l-0.5-1.5c1-0.7,2.5-1.1,4-1.1c3.8,0,4.7,2.6,4.7,5v4.6c0,1.1,0.1,2.1,0.2,2.9
					H201.5z M201.2,67.4c-2.4-0.1-5.2,0.4-5.2,2.8c0,1.4,1,2.1,2.1,2.1c1.6,0,2.6-1,3-2.1c0.1-0.2,0.1-0.5,0.1-0.7V67.4z"/>
				<path class="st2" d="M206.9,65.3c0-1.4,0-2.7-0.1-3.8h2l0.1,2.4h0.1c0.6-1.6,1.9-2.7,3.4-2.7c0.3,0,0.4,0,0.6,0.1v2.1
					c-0.2-0.1-0.5-0.1-0.8-0.1c-1.6,0-2.7,1.2-3,2.9c-0.1,0.3-0.1,0.7-0.1,1v6.5h-2.2V65.3z"/>
				<path class="st2" d="M215.3,55.7h2.2v7.7h0.1c0.4-0.6,0.9-1.2,1.6-1.6c0.7-0.4,1.4-0.6,2.3-0.6c1.6,0,4.3,1,4.3,5.3v7.3h-2.2
					v-7.1c0-2-0.7-3.7-2.8-3.7c-1.4,0-2.6,1-3,2.2c-0.1,0.3-0.2,0.6-0.2,1.1v7.4h-2.2V55.7z"/>
				<path class="st2" d="M230.7,68c0.1,3,2,4.3,4.2,4.3c1.6,0,2.6-0.3,3.4-0.6l0.4,1.6c-0.8,0.4-2.1,0.8-4.1,0.8c-3.8,0-6-2.5-6-6.2
					s2.2-6.6,5.8-6.6c4,0,5.1,3.5,5.1,5.8c0,0.5-0.1,0.8-0.1,1H230.7z M237.2,66.4c0-1.4-0.6-3.6-3.1-3.6c-2.3,0-3.2,2.1-3.4,3.6
					H237.2z"/>
				<path class="st2" d="M244.6,58c0,0.8-0.5,1.4-1.4,1.4c-0.8,0-1.3-0.6-1.3-1.4c0-0.8,0.6-1.4,1.4-1.4
					C244.1,56.6,244.6,57.2,244.6,58z M242.1,73.7V61.4h2.2v12.3H242.1z"/>
				<path class="st2" d="M258.7,55.7v14.8c0,1.1,0,2.3,0.1,3.2h-2l-0.1-2.1h-0.1c-0.7,1.4-2.2,2.4-4.2,2.4c-3,0-5.3-2.5-5.3-6.2
					c0-4.1,2.5-6.6,5.5-6.6c1.9,0,3.1,0.9,3.7,1.9h0.1v-7.3H258.7z M256.4,66.4c0-0.3,0-0.7-0.1-0.9c-0.3-1.4-1.5-2.6-3.2-2.6
					c-2.3,0-3.7,2-3.7,4.7c0,2.5,1.2,4.5,3.6,4.5c1.5,0,2.9-1,3.3-2.7c0.1-0.3,0.1-0.6,0.1-1V66.4z"/>
			</g>
		</g>
		<g>
			<g class="st1">
				<path class="st2" d="M92.3,83.2l1,3.7c0.2,0.8,0.4,1.6,0.5,2.3h0c0.2-0.7,0.4-1.5,0.6-2.3l1.2-3.7h1.1l1.1,3.7
					c0.3,0.9,0.5,1.6,0.6,2.4h0c0.1-0.7,0.3-1.5,0.6-2.4l1-3.7h1.3l-2.4,7.3H98L96.9,87c-0.3-0.8-0.5-1.5-0.6-2.4h0
					c-0.2,0.9-0.4,1.6-0.7,2.4l-1.2,3.5h-1.2l-2.2-7.3H92.3z"/>
				<path class="st2" d="M105.1,81.2c0,0.5-0.3,0.8-0.8,0.8c-0.5,0-0.8-0.4-0.8-0.8c0-0.5,0.3-0.8,0.8-0.8
					C104.8,80.3,105.1,80.7,105.1,81.2z M103.6,90.5v-7.3h1.3v7.3H103.6z"/>
				<path class="st2" d="M106.1,92.6c0.6,0,1.1-0.2,1.4-0.6c0.4-0.4,0.5-1,0.5-2.7v-6.1h1.3v6.6c0,1.4-0.2,2.3-0.9,3
					c-0.6,0.6-1.6,0.8-2.3,0.8L106.1,92.6z M109.6,81.2c0,0.4-0.3,0.8-0.8,0.8c-0.5,0-0.8-0.4-0.8-0.8c0-0.5,0.3-0.8,0.8-0.8
					C109.2,80.3,109.6,80.7,109.6,81.2z"/>
				<path class="st2" d="M115.5,89.8l3.3-4.3c0.3-0.4,0.6-0.7,1-1.1v0h-4v-1.1h5.6l0,0.8l-3.3,4.2c-0.3,0.4-0.6,0.8-0.9,1.1v0h4.3
					v1.1h-5.9V89.8z"/>
				<path class="st2" d="M125,81.2c0,0.5-0.3,0.8-0.8,0.8c-0.5,0-0.8-0.4-0.8-0.8c0-0.5,0.3-0.8,0.8-0.8
					C124.7,80.3,125,80.7,125,81.2z M123.5,90.5v-7.3h1.3v7.3H123.5z"/>
				<path class="st2" d="M126,92.6c0.6,0,1.1-0.2,1.4-0.6c0.4-0.4,0.5-1,0.5-2.7v-6.1h1.3v6.6c0,1.4-0.2,2.3-0.9,3
					c-0.6,0.6-1.6,0.8-2.3,0.8L126,92.6z M129.4,81.2c0,0.4-0.3,0.8-0.8,0.8c-0.5,0-0.8-0.4-0.8-0.8c0-0.5,0.3-0.8,0.8-0.8
					C129.1,80.3,129.4,80.7,129.4,81.2z"/>
				<path class="st2" d="M132.2,85.2c0-0.8,0-1.4-0.1-2h1.2l0.1,1.2h0c0.4-0.7,1.2-1.4,2.4-1.4c1,0,2.6,0.6,2.6,3.1v4.4h-1.3v-4.2
					c0-1.2-0.4-2.2-1.7-2.2c-0.9,0-1.6,0.6-1.8,1.4c-0.1,0.2-0.1,0.4-0.1,0.6v4.4h-1.3V85.2z"/>
				<path class="st2" d="M149.4,90.5l-0.1-0.9h0c-0.4,0.6-1.2,1.1-2.2,1.1c-1.5,0-2.2-1-2.2-2.1c0-1.8,1.6-2.7,4.4-2.7v-0.2
					c0-0.6-0.2-1.7-1.7-1.7c-0.7,0-1.4,0.2-1.9,0.5l-0.3-0.9c0.6-0.4,1.5-0.6,2.4-0.6c2.2,0,2.8,1.5,2.8,3v2.7c0,0.6,0,1.3,0.1,1.8
					H149.4z M149.2,86.8c-1.4,0-3.1,0.2-3.1,1.6c0,0.9,0.6,1.3,1.3,1.3c1,0,1.6-0.6,1.8-1.2c0-0.1,0.1-0.3,0.1-0.4V86.8z"/>
				<path class="st2" d="M153.3,85.2c0-0.8,0-1.4-0.1-2h1.2l0.1,1.2h0c0.4-0.7,1.2-1.4,2.4-1.4c1,0,2.6,0.6,2.6,3.1v4.4h-1.3v-4.2
					c0-1.2-0.4-2.2-1.7-2.2c-0.9,0-1.6,0.6-1.8,1.4c-0.1,0.2-0.1,0.4-0.1,0.6v4.4h-1.3V85.2z"/>
				<path class="st2" d="M164,81.1v2.1h1.9v1H164v3.9c0,0.9,0.3,1.4,1,1.4c0.3,0,0.6,0,0.8-0.1l0.1,1c-0.3,0.1-0.7,0.2-1.2,0.2
					c-0.6,0-1.1-0.2-1.4-0.6c-0.4-0.4-0.5-1-0.5-1.9v-4h-1.1v-1h1.1v-1.8L164,81.1z"/>
				<path class="st2" d="M169.7,81.2c0,0.5-0.3,0.8-0.8,0.8c-0.5,0-0.8-0.4-0.8-0.8c0-0.5,0.3-0.8,0.8-0.8
					C169.3,80.3,169.7,80.7,169.7,81.2z M168.2,90.5v-7.3h1.3v7.3H168.2z"/>
				<path class="st2" d="M172.3,89.2c0.4,0.3,1.1,0.5,1.8,0.5c1,0,1.4-0.5,1.4-1.1c0-0.6-0.4-1-1.4-1.3c-1.3-0.5-1.9-1.2-1.9-2.1
					c0-1.2,1-2.1,2.5-2.1c0.7,0,1.4,0.2,1.8,0.5l-0.3,1c-0.3-0.2-0.8-0.4-1.5-0.4c-0.8,0-1.2,0.5-1.2,1c0,0.6,0.4,0.9,1.4,1.2
					c1.3,0.5,1.9,1.1,1.9,2.2c0,1.3-1,2.2-2.7,2.2c-0.8,0-1.5-0.2-2.1-0.5L172.3,89.2z"/>
				<path class="st2" d="M179.9,87.1c0,1.8,1.2,2.5,2.5,2.5c1,0,1.5-0.2,2-0.4l0.2,1c-0.5,0.2-1.3,0.5-2.4,0.5
					c-2.3,0-3.6-1.5-3.6-3.7c0-2.2,1.3-3.9,3.4-3.9c2.4,0,3,2.1,3,3.4c0,0.3,0,0.5,0,0.6H179.9z M183.8,86.2c0-0.8-0.3-2.2-1.8-2.2
					c-1.3,0-1.9,1.2-2,2.2H183.8z"/>
				<path class="st2" d="M187.5,85.2c0-0.8,0-1.4-0.1-2h1.2l0.1,1.2h0c0.4-0.7,1.1-1.3,2.3-1.3c1,0,1.8,0.6,2.1,1.5h0
					c0.2-0.4,0.5-0.7,0.8-1c0.4-0.3,0.9-0.5,1.6-0.5c1,0,2.4,0.6,2.4,3.2v4.3h-1.3v-4.1c0-1.4-0.5-2.3-1.6-2.3
					c-0.8,0-1.3,0.6-1.6,1.2c-0.1,0.2-0.1,0.4-0.1,0.7v4.5h-1.3v-4.4c0-1.2-0.5-2-1.5-2c-0.8,0-1.4,0.7-1.6,1.3
					c-0.1,0.2-0.1,0.4-0.1,0.6v4.4h-1.3V85.2z"/>
				<path class="st2" d="M202.3,81.2c0,0.5-0.3,0.8-0.8,0.8c-0.5,0-0.8-0.4-0.8-0.8c0-0.5,0.3-0.8,0.8-0.8
					C202,80.3,202.3,80.7,202.3,81.2z M200.9,90.5v-7.3h1.3v7.3H200.9z"/>
				<path class="st2" d="M205.9,87.1c0,1.8,1.2,2.5,2.5,2.5c1,0,1.5-0.2,2-0.4l0.2,1c-0.5,0.2-1.3,0.5-2.4,0.5
					c-2.3,0-3.6-1.5-3.6-3.7c0-2.2,1.3-3.9,3.4-3.9c2.4,0,3,2.1,3,3.4c0,0.3,0,0.5,0,0.6H205.9z M209.8,86.2c0-0.8-0.3-2.2-1.8-2.2
					c-1.3,0-1.9,1.2-2,2.2H209.8z"/>
				<path class="st2" d="M215.1,81.1v2.1h1.9v1h-1.9v3.9c0,0.9,0.3,1.4,1,1.4c0.3,0,0.6,0,0.8-0.1l0.1,1c-0.3,0.1-0.7,0.2-1.2,0.2
					c-0.6,0-1.1-0.2-1.4-0.6c-0.4-0.4-0.5-1-0.5-1.9v-4h-1.1v-1h1.1v-1.8L215.1,81.1z"/>
				<path class="st2" d="M219.9,87.1c0,1.8,1.2,2.5,2.5,2.5c1,0,1.5-0.2,2-0.4l0.2,1c-0.5,0.2-1.3,0.5-2.4,0.5
					c-2.3,0-3.6-1.5-3.6-3.7c0-2.2,1.3-3.9,3.4-3.9c2.4,0,3,2.1,3,3.4c0,0.3,0,0.5,0,0.6H219.9z M223.8,86.2c0-0.8-0.3-2.2-1.8-2.2
					c-1.3,0-1.9,1.2-2,2.2H223.8z"/>
				<path class="st2" d="M227.5,85.2c0-0.8,0-1.4-0.1-2h1.2l0.1,1.2h0c0.4-0.7,1.2-1.4,2.4-1.4c1,0,2.6,0.6,2.6,3.1v4.4h-1.3v-4.2
					c0-1.2-0.4-2.2-1.7-2.2c-0.9,0-1.6,0.6-1.8,1.4c-0.1,0.2-0.1,0.4-0.1,0.6v4.4h-1.3V85.2z"/>
			</g>
		</g>
		<g>
			<path class="st2" d="M75.3,72.4c-0.1-0.1-0.2-0.2-0.3-0.2c0.1-0.1,0.2-0.1,0.3-0.2c1.1-0.9,1.3-2.5,0.4-3.6
				c-0.1-0.1-0.1-0.1-0.2-0.2c-0.9-1-2.5-0.9-3.5-0.1l-3.2,2.6c-0.5,0.4-1.1,0.6-1.6,0.6H67c-1.3,0-2.5-1-2.6-2.3
				c-0.5-3.2-1.8-6.3-3.7-8.9c-0.8-1.1-0.6-2.5,0.3-3.5l0.1-0.1c0.4-0.4,1-0.7,1.6-0.8l4.1-0.5c1.4-0.2,2.5-1.3,2.4-2.7
				c-0.1-1.4-1.2-2.5-2.6-2.4l0,0c-0.2,0-0.4,0.1-0.6,0.1c0.4-1.3-0.4-2.7-1.7-3.1c-0.2-0.1-0.4-0.1-0.6-0.1c-1.4-0.1-2.5,1-2.7,2.4
				l-0.5,4.1c-0.1,0.6-0.3,1.2-0.8,1.6l-0.1,0.1c-0.9,0.9-2.4,1-3.5,0.3c-2.6-1.9-5.6-3.1-8.8-3.7c-1.3-0.2-2.3-1.3-2.3-2.7v-0.1
				c0-0.6,0.2-1.2,0.6-1.7l2.5-3.2c0.8-1,0.8-2.6-0.1-3.6c-1-1-2.6-1-3.6,0c0,0,0,0,0,0c-0.1,0.1-0.1,0.1-0.2,0.2
				c-0.1,0.1-0.2,0.2-0.2,0.3C44,41,44,40.9,43.9,40.8c-0.9-1.1-2.5-1.3-3.6-0.4l0,0c-0.1,0.1-0.1,0.1-0.2,0.2
				c-1,0.9-0.9,2.5-0.1,3.6l2.5,3.2c0.4,0.5,0.6,1.1,0.6,1.7v0.1c0,1.3-1,2.5-2.3,2.7c-3.2,0.5-6.1,1.8-8.7,3.7
				c-1.1,0.8-2.6,0.7-3.5-0.3L28.5,55c-0.4-0.4-0.7-1-0.8-1.6l-0.4-4.1c-0.2-1.4-1.3-2.5-2.7-2.4c-1.4,0.1-2.5,1.2-2.4,2.6
				c0,0.2,0.1,0.4,0.1,0.6c-1.3-0.4-2.7,0.4-3.1,1.7v0c-0.1,0.2-0.1,0.4-0.1,0.6c-0.1,1.4,1,2.6,2.4,2.7l4.1,0.5
				c0.6,0.1,1.2,0.3,1.6,0.8l0.1,0.1c0.9,1,1,2.4,0.3,3.5c-1.9,2.6-3.1,5.7-3.6,8.9c-0.2,1.3-1.3,2.3-2.6,2.3h-0.1
				c-0.6,0-1.2-0.2-1.6-0.6l-3.2-2.6c-1-0.8-2.6-0.8-3.5,0.1c-1,1-1,2.6,0,3.6c0.1,0.1,0.1,0.1,0.2,0.2c0.1,0.1,0.2,0.2,0.3,0.2
				c-0.1,0.1-0.2,0.1-0.3,0.2c-1.1,0.9-1.3,2.5-0.4,3.6c0.1,0.1,0.1,0.1,0.2,0.2c0.9,1,2.5,0.9,3.5,0.1l3.1-2.6
				c0.5-0.4,1.1-0.6,1.6-0.6h0.1c1.3,0,2.5,1,2.6,2.3c0.5,3.2,1.8,6.3,3.7,8.9c0.8,1.1,0.6,2.5-0.3,3.5L27.1,88
				c-0.4,0.4-1,0.7-1.6,0.8l-4.1,0.5c-1.4,0.2-2.5,1.3-2.4,2.7c0,1.4,1.2,2.5,2.6,2.4c0.2,0,0.4-0.1,0.6-0.1
				c-0.4,1.3,0.3,2.7,1.7,3.1c0.2,0.1,0.4,0.1,0.6,0.1c1.4,0.1,2.5-1,2.7-2.4l0.5-4.1c0.1-0.6,0.3-1.2,0.8-1.6l0.1-0.1
				c0.9-0.9,2.4-1,3.5-0.3c2.6,1.9,5.6,3.1,8.8,3.7c1.3,0.2,2.3,1.3,2.3,2.7v0.1c0,0.6-0.2,1.2-0.6,1.7l-2.5,3.2
				c-0.8,1-0.8,2.6,0.1,3.6c1,1,2.6,1,3.6,0l0,0c0.2-0.2,0.3-0.3,0.4-0.5c0.1,0.1,0.1,0.2,0.2,0.3c0.9,1.1,2.4,1.3,3.6,0.4l0,0
				c0.1-0.1,0.1-0.1,0.2-0.2c0.9-0.9,0.9-2.5,0.1-3.6l-2.5-3.2C45.2,96.6,45,96,45,95.4v-0.1c0-1.3,1-2.5,2.3-2.7
				c3.2-0.5,6.2-1.8,8.8-3.7c1-0.8,2.5-0.7,3.4,0.3l0.1,0.1c0.4,0.4,0.7,1,0.8,1.6l0.5,4.1c0.2,1.4,1.3,2.5,2.7,2.4
				c1.4-0.1,2.4-1.2,2.4-2.6c0-0.2-0.1-0.4-0.1-0.6c1.3,0.4,2.7-0.4,3.1-1.7c0.1-0.2,0.1-0.4,0.1-0.6c0.1-1.4-1-2.6-2.4-2.7
				l-4.1-0.5c-0.6-0.1-1.2-0.3-1.6-0.8l-0.1-0.1c-0.9-1-1-2.4-0.3-3.5c1.9-2.6,3.1-5.7,3.6-8.9c0.2-1.3,1.3-2.3,2.6-2.3h0.1
				c0.6,0,1.2,0.2,1.6,0.6l3.2,2.6c1,0.8,2.6,0.8,3.5-0.1c1-1,1-2.6,0-3.6C75.4,72.5,75.3,72.4,75.3,72.4z"/>
		</g>
		<g class="st3">
			<path class="st0" d="M53.8,64.6c-2.4-2.4-6.3-2.4-8.7,0.1c0,0-0.1,0.1-0.1,0.1c-0.2,0.2-0.3,0.3-0.4,0.5
				c-0.2,0.3-0.4,0.5-0.5,0.8c-0.2-0.3-0.3-0.6-0.5-0.8c-2.1-2.7-6-3.1-8.6-1c0,0-0.1,0-0.1,0.1c-0.2,0.1-0.3,0.3-0.5,0.4
				c-2.3,2.3-2.4,6-0.3,8.6l8.3,10.6c0.7,0.9,2.1,1.1,3,0.4l0,0c0.1-0.1,0.2-0.2,0.3-0.3l8.3-10.6C56.2,70.6,56.1,66.9,53.8,64.6z"
				/>
		</g>
	</g>
</g>
<g>
	<polygon class="st2" points="45.3,62 49.2,69.2 49.7,70 49.1,70.7 44.6,75.2 44.5,73.8 46.7,75.6 47.6,76.2 46.8,76.8 39.8,82 
		39.9,81.5 41.8,84 41.9,84.2 41.8,84.3 39.6,88 41.4,84.1 41.4,84.3 39.3,82 39.1,81.7 39.3,81.4 45.8,75.6 45.8,76.8 43.4,75.3 
		42.6,74.8 43.2,73.9 47.2,69 47,70.5 42.5,63.7 	"/>
</g>
</svg>
