<svg id="Layer_1" data-name="Layer 1" xmlns="http://www.w3.org/2000/svg" viewBox="0 0 600 400"><defs><style>.cls-1{fill:#f6c50a;}.cls-2{fill:#fdfdfc;}.cls-3{fill:#2d558e;}.cls-4{fill:#e2401e;}</style></defs><rect class="cls-1" width="600" height="400"/><rect class="cls-2" width="600" height="160"/><rect class="cls-3" y="160" width="600" height="80"/><circle class="cls-2" cx="161.65" cy="193.01" r="127.11"/><path class="cls-4" d="M161.65,87.09C103.4,87.09,55.73,134.76,55.73,193S103.4,298.93,161.65,298.93,267.57,251.26,267.57,193,219.9,87.09,161.65,87.09Zm14.15,23.78a83.5,83.5,0,0,1,57.93,124.26Zm-28.29,0L89.57,235.13a84.06,84.06,0,0,1-11.31-42,83.2,83.2,0,0,1,69.25-82.24ZM161.65,134l26.82,57.52H134.83Zm-37.4,80.15h74.81l18.85,40.44a83.81,83.81,0,0,1-112.52,0Z"/></svg>