<svg id="Layer_1" data-name="Layer 1" xmlns="http://www.w3.org/2000/svg" viewBox="0 0 600 400"><defs><style>.cls-1{fill:#078930;}.cls-2{fill:#0f47af;}.cls-3{fill:#fcdd09;}.cls-4{fill:#fff;}</style></defs><path id="path2230" class="cls-1" d="M0,400V200H600V400Z"/><path id="path1343" class="cls-2" d="M0,200V0H600V200Z"/><path id="path2242" class="cls-3" d="M600,172c-2,0-220,1-245,.51S315,162,290,162s-40,10-65,10-40-10-65-10c-24.55,0-40,10-65,10s-40-10-65-10c-24.6,0-15,0-30,2.51v49.91C15,212,5,212,30,212s40,15,65,15,40-10,65-10,40,10,65,10,40-15,65-15,40,15,65,15H600Z"/><path class="cls-4" d="M92.11,19.91a62.18,62.18,0,1,0,62.18,62.18A62.37,62.37,0,0,0,92.11,19.91Zm8.3,14a49,49,0,0,1,34,72.95Zm-16.6,0-34,72.95a49.36,49.36,0,0,1-6.65-24.67A48.86,48.86,0,0,1,83.81,33.87Zm8.3,13.6,15.75,33.76H76.37Zm-22,47.05h43.92l11.07,23.74a49.22,49.22,0,0,1-66.06,0Z"/></svg>