<svg id="Layer_1" data-name="Layer 1" xmlns="http://www.w3.org/2000/svg" viewBox="0 0 600 400"><defs><style>.cls-1{fill:#0155a5;}.cls-2{fill:#fff;}.cls-3{fill:#ee3e34;}</style></defs><rect class="cls-1" width="600" height="400"/><path class="cls-2" d="M0,171.43V285.71L171.43,400H342.86Z"/><path class="cls-2" d="M85.71,0H0V57.14L514.29,400H600V342.86Z"/><path class="cls-2" d="M257.14,0H428.57L600,114.29V228.57Z"/><path id="pomp" class="cls-3" d="M39.17,297.54a46.15,46.15,0,0,1-7.33-62c7.67-10.66,21.74-14.07,31.44-7.61a19.19,19.19,0,0,1,8.34,13.93q.55,4.65-5.45,13a2.86,2.86,0,0,0,.77,4.08,3.13,3.13,0,0,0,4.25-.74q6-8.34,10.71-9.49c12.28-3,23.39,4.44,24.82,16.55A24.53,24.53,0,0,1,102,282.31C88,301.84,61.13,308.35,39.17,297.54Z"/><path id="pomp-2" data-name="pomp" class="cls-3" d="M519.17,160.4a46.15,46.15,0,0,1-7.33-62c7.67-10.67,21.74-14.08,31.44-7.62a19.23,19.23,0,0,1,8.34,13.94q.55,4.65-5.45,13a2.86,2.86,0,0,0,.77,4.08,3.14,3.14,0,0,0,4.25-.74q6-8.36,10.71-9.49c12.28-3,23.39,4.43,24.82,16.54A24.55,24.55,0,0,1,582,145.17C568,164.7,541.13,171.21,519.17,160.4Z"/><path id="pomp-3" data-name="pomp" class="cls-3" d="M119.17,122.31a46.15,46.15,0,0,1-7.33-62c7.67-10.67,21.74-14.08,31.44-7.62a19.19,19.19,0,0,1,8.34,13.93q.56,4.65-5.45,13a2.88,2.88,0,0,0,.77,4.09,3.13,3.13,0,0,0,4.25-.75q6-8.34,10.71-9.49c12.28-3,23.39,4.44,24.82,16.55A24.57,24.57,0,0,1,182,107.08C168,126.6,141.13,133.11,119.17,122.31Z"/><path id="pomp-4" data-name="pomp" class="cls-3" d="M439.17,335.64a46.15,46.15,0,0,1-7.33-62c7.67-10.67,21.75-14.08,31.44-7.62a19.23,19.23,0,0,1,8.34,13.93q.56,4.66-5.45,13a2.87,2.87,0,0,0,.77,4.09,3.14,3.14,0,0,0,4.25-.74q6-8.36,10.71-9.49c12.28-3,23.39,4.43,24.82,16.54A24.55,24.55,0,0,1,502,320.41C488,339.94,461.13,346.45,439.17,335.64Z"/><path id="pomp-5" data-name="pomp" class="cls-3" d="M415.2,91.09a46.16,46.16,0,0,1-7.33-62c7.67-10.67,21.75-14.08,31.44-7.62a19.2,19.2,0,0,1,8.34,13.93q.56,4.66-5.45,13a2.87,2.87,0,0,0,.77,4.09,3.14,3.14,0,0,0,4.25-.74q6-8.36,10.71-9.49c12.28-3,23.39,4.43,24.83,16.54a24.65,24.65,0,0,1-4.68,17.09C464,95.39,437.16,101.9,415.2,91.09Z"/><path id="pomp-6" data-name="pomp" class="cls-3" d="M143.14,366.86a46.16,46.16,0,0,1-7.33-62c7.67-10.66,21.74-14.07,31.44-7.61a19.22,19.22,0,0,1,8.34,13.93q.56,4.65-5.45,13a2.88,2.88,0,0,0,.77,4.09,3.12,3.12,0,0,0,4.24-.75q6-8.34,10.72-9.49c12.28-3,23.39,4.44,24.82,16.55A24.57,24.57,0,0,1,206,351.63C192,371.15,165.1,377.66,143.14,366.86Z"/><circle class="cls-2" cx="300" cy="199.85" r="106.42"/><path class="cls-3" d="M351.22,126.71C311,98.54,255,108.41,226.86,148.63s-18.3,96.2,21.92,124.36,96.2,18.3,124.36-21.92S391.44,154.87,351.22,126.71ZM349.48,150a70.4,70.4,0,0,1-20.07,113.82ZM330,136.29,229.86,194.08A70.4,70.4,0,0,1,330,136.29Zm-1.43,22.83-9.29,52.69-37-25.94Zm-64.58,37.26,51.66,36.17-6.54,37a70.65,70.65,0,0,1-77.7-54.4Z"/></svg>