<svg id="Layer_1" data-name="Layer 1" xmlns="http://www.w3.org/2000/svg" viewBox="0 0 600 400"><defs><style>.cls-1{fill:#f9dd16;}.cls-2{fill:#0038a8;}</style></defs><rect width="600" height="400"/><rect class="cls-1" width="600" height="266.67"/><rect class="cls-2" width="600" height="133.33"/><circle class="cls-1" cx="300" cy="200" r="108.4"/><path d="M300,109.67c-49.67,0-90.33,40.65-90.33,90.33s40.66,90.33,90.33,90.33,90.33-40.66,90.33-90.33S349.67,109.67,300,109.67ZM312.06,130a71.22,71.22,0,0,1,49.41,106Zm-24.12,0-49.41,106a71.72,71.72,0,0,1-9.65-35.83A71,71,0,0,1,287.94,130ZM300,149.7l22.87,49.05H277.13Zm-31.9,68.35h63.8L348,252.53a71.47,71.47,0,0,1-96,0Z"/></svg>