<?xml version="1.0" encoding="utf-8"?>
<!-- Generator: Adobe Illustrator 25.2.0, SVG Export Plug-In . SVG Version: 6.00 Build 0)  -->
<svg version="1.1" id="Layer_1" xmlns="http://www.w3.org/2000/svg" xmlns:xlink="http://www.w3.org/1999/xlink" x="0px" y="0px"
	 viewBox="0 0 141.7 141.7" style="enable-background:new 0 0 141.7 141.7;" xml:space="preserve">
<style type="text/css">
	.st0{fill:#750787;}
	.st1{fill:#004DFF;}
	.st2{fill:#008026;}
	.st3{fill:#FFED00;}
	.st4{fill:#FF8C00;}
	.st5{fill:#E40303;}
	.st6{fill:#FFFFFF;}
	.st7{fill:#E95D0F;}
	.st8{enable-background:new    ;}
</style>
<g>
	<rect class="st0" width="141.7" height="141.7"/>
	<rect class="st1" width="141.7" height="118.1"/>
	<rect class="st2" width="141.7" height="94.5"/>
	<rect class="st3" width="141.7" height="70.9"/>
	<rect class="st4" width="141.7" height="47.2"/>
	<rect class="st5" width="141.7" height="23.6"/>
</g>
<rect x="13.5" y="13.5" class="st6" width="114.7" height="114.7"/>
<g>
	<path class="st7" d="M41.3,46.8c-4.6-1.3-5.4-2-5.4-4.4c0-3.1,0.9-3.6,2.9-3.6c1.3,0,3.3,0,4.1,0.1l0,5.2c0,0.2,0.2,0.4,0.4,0.4
		h8.3c0.2,0,0.4-0.2,0.4-0.4V32.7c0-0.2-0.1-0.3-0.3-0.4c-1.9-0.6-8.1-1.1-12.8-1.1c-10,0-13.1,3-13.1,11.5
		c0,8.5,2.2,10.1,11.6,12.9c4.8,1.4,5.5,2,5.5,4.7c0,3.6-0.6,3.5-4,3.5c-1,0-2.6-0.1-3.5-0.2l0-5.1c0-0.2-0.2-0.4-0.4-0.4h-8.1
		c-0.2,0-0.4,0.2-0.4,0.4V70c0,0.2,0.1,0.4,0.3,0.4c1.5,0.3,6.2,0.7,12,0.7c11.2,0,14.3-2,14.3-11.3C53.2,51.4,50.7,49.5,41.3,46.8z
		"/>
	<path class="st7" d="M111.7,34.1c-1.6-1.8-4-2.6-8.4-2.6H86.1c-0.2,0-0.4,0.2-0.4,0.4v7.6c0,0.2,0.2,0.4,0.4,0.4h1.6l0,22.8h-1.6
		c-0.2,0-0.4,0.2-0.4,0.4v7.4c0,0.2,0.2,0.4,0.4,0.4h15.3c0.2,0,0.4-0.2,0.4-0.4v-7.1c0-0.2-0.2-0.4-0.4-0.4h-3.5v-4.3h5.3
		c4.3,0,6.8-0.8,8.5-2.6c1.8-2,2.6-5.4,2.6-11C114.2,39.5,113.5,36.1,111.7,34.1z M107.8,45.6L96,51.8c0,0-0.1,0-0.1,0
		c0,0-0.1,0-0.1,0c-0.1,0-0.1-0.1-0.1-0.2V38.6c0-0.1,0-0.2,0.1-0.2c0.1,0,0.2,0,0.3,0l11.8,6.8c0.1,0,0.1,0.1,0.1,0.2
		S107.9,45.6,107.8,45.6z"/>
	<path class="st7" d="M82.7,50.3h-1.6l0,0l-11.1,0c-0.2,0-0.4,0.2-0.4,0.4v7c0,0.2,0.2,0.4,0.4,0.4h2.6v5.1
		c-0.9,0.1-2.3,0.1-3.2,0.1c-3.1,0-4,0-4-9.5v-4.9c0-9.6,0.8-9.6,3.9-9.6c1.1,0,2.5,0,3.2,0.1l0,4.7c0,0.2,0.2,0.4,0.4,0.4h8.4
		c0.2,0,0.4-0.2,0.4-0.4V32.6c0-0.2-0.1-0.3-0.3-0.4c-1.4-0.3-7.9-0.9-11.9-0.9c-11.8,0-14.4,3.5-14.4,19.9c0,9,0.8,13.5,2.8,16.3
		c2.3,3,6.1,3.5,11.5,3.5c4,0,9.5-0.3,11.9-0.8c0.2,0,0.3-0.2,0.3-0.4V58.1h0.9c0.2,0,0.4-0.2,0.4-0.4v-7
		C83.1,50.5,82.9,50.3,82.7,50.3z"/>
</g>
<g class="st8">
	<path class="st7" d="M30.3,80.7c0.8,0.4,1.3,0.7,1.6,1.1c0.3,0.4,0.5,0.8,0.5,1.4c0,0.8-0.2,1.4-0.7,1.9c-0.5,0.4-1.3,0.7-2.4,0.7
		c-1.2,0-2.2-0.1-2.8-0.4l0-2.7h1.7l0.1,1.4c0.3,0.1,0.6,0.1,0.8,0.1c0.4,0,0.7,0,0.8-0.1c0.2-0.1,0.2-0.3,0.2-0.5
		c0-0.2-0.1-0.5-0.3-0.6c-0.2-0.2-0.8-0.5-1.6-0.8c-0.7-0.3-1.2-0.7-1.5-1.1c-0.3-0.4-0.5-0.9-0.5-1.5c0-0.8,0.3-1.3,0.8-1.8
		c0.6-0.4,1.4-0.6,2.4-0.6c1,0,1.8,0.1,2.6,0.3V80h-1.7l-0.1-1.3c-0.2,0-0.4-0.1-0.7-0.1c-0.8,0-1.2,0.2-1.2,0.6
		c0,0.2,0.1,0.4,0.3,0.6C29,80,29.5,80.3,30.3,80.7z"/>
	<path class="st7" d="M34.3,85.5v-1.4l0.7-0.1v-5.2h-0.6L34.3,80h-1.5v-2.8h7.1V80h-1.5l-0.1-1.1h-0.6v5.2l0.7,0.1v1.4H34.3z"/>
	<path class="st7" d="M46.6,84.1l0.6,0.1v1.4h-3.5v-1.3h0.6l-0.1-0.7h-1.9l-0.1,0.7h0.6v1.3h-3.5v-1.4l0.6-0.1l1.6-6.9h3.6
		L46.6,84.1z M42.6,82h1.4l-0.5-3h-0.4L42.6,82z"/>
	<path class="st7" d="M54.7,84.1l0.6,0.1v1.4h-3.5v-1.3h0.6l-0.1-0.7h-1.9l-0.1,0.7h0.6v1.3h-3.5v-1.4l0.6-0.1l1.6-6.9h3.6
		L54.7,84.1z M50.6,82H52l-0.5-3h-0.4L50.6,82z"/>
	<path class="st7" d="M56.3,85.5v-1.4l0.7-0.1v-5.2h-0.6L56.3,80h-1.5v-2.8h7.1V80h-1.5l-0.1-1.1h-0.6v5.2l0.7,0.1v1.4H56.3z"/>
	<path class="st7" d="M66,77.2v1.4h-0.6v2.1h0.4l1.2-2.1h-0.6v-1.4h3.8v1.4l-0.7,0.1l-1.7,2.6l1.7,2.8l0.7,0.1v1.4h-2.6l-1.9-3.3
		h-0.4v1.9h0.7v1.4h-4v-1.4l0.7-0.1v-5.4l-0.7-0.1v-1.4H66z"/>
	<path class="st7" d="M74.6,85.7c-1.3,0-2.1-0.2-2.6-0.7c-0.5-0.5-0.8-1.3-0.8-2.6v-3.7l-0.7-0.1v-1.4h4v1.4l-0.7,0.1v4.1
		c0,0.5,0.1,0.8,0.2,1s0.4,0.3,0.6,0.3c0.1,0,0.2,0,0.3,0c0.1,0,0.2-0.1,0.3-0.2c0.1-0.1,0.2-0.2,0.2-0.4c0.1-0.2,0.1-0.4,0.1-0.7
		v-4.1l-0.7-0.1v-1.4h4v1.4L78,78.7v3.7C78,84.6,76.8,85.7,74.6,85.7z"/>
	<path class="st7" d="M79,85.5v-1.4l0.7-0.1v-5.4L79,78.6v-1.4h3.4l1.8,4.2h0.2v-2.7l-0.7-0.1v-1.4h3.8v1.4l-0.7,0.1v6.9h-2.4
		l-2-4.3h-0.2v2.9l0.7,0.1v1.4H79z"/>
	<path class="st7" d="M87.8,85.5v-1.4l0.7-0.1v-5.4l-0.7-0.1v-1.4h4.1c0.7,0,1.3,0.1,1.7,0.3c0.5,0.2,0.8,0.4,1.1,0.8
		c0.2,0.4,0.4,0.8,0.5,1.3s0.1,1.1,0.1,1.8c0,1.4-0.2,2.5-0.7,3.1s-1.4,1-2.6,1H87.8z M91,83.7h0.9c0.3,0,0.6-0.2,0.7-0.5
		c0.1-0.3,0.2-0.9,0.2-1.9c0-0.9-0.1-1.5-0.2-1.9s-0.4-0.5-0.8-0.5H91V83.7z"/>
	<path class="st7" d="M95.9,85.5v-1.4l0.7-0.1v-5.4l-0.7-0.1v-1.4h4v1.4l-0.7,0.1v5.4l0.7,0.1v1.4H95.9z"/>
	<path class="st7" d="M103.8,85.7c-0.6,0-1.1-0.1-1.5-0.2c-0.4-0.1-0.8-0.3-1.1-0.6c-0.3-0.3-0.5-0.7-0.7-1.3s-0.2-1.3-0.2-2.1
		c0-1.5,0.3-2.7,0.9-3.4c0.6-0.7,1.6-1,2.8-1c1,0,1.8,0.2,2.6,0.5V80H105l-0.1-1.2c-0.3-0.1-0.5-0.1-0.7-0.1c-0.3,0-0.6,0.1-0.8,0.2
		c-0.2,0.1-0.3,0.4-0.4,0.8c-0.1,0.4-0.1,1-0.1,1.7c0,1,0.1,1.7,0.3,2.1s0.5,0.5,1,0.5c0.3,0,0.6-0.1,0.7-0.2v-1.4l-0.9-0.1v-1.4
		h2.9V85c-0.3,0.2-0.7,0.4-1.2,0.5S104.5,85.7,103.8,85.7z"/>
	<path class="st7" d="M107.6,85.5v-1.4l0.7-0.1v-5.4l-0.7-0.1v-1.4h6.3V80h-1.6l-0.1-1h-1.3v1.6h2.4v1.6h-2.4v1.7h1.4l0.1-1h1.6v2.7
		H107.6z"/>
</g>
<g class="st8">
	<path class="st7" d="M29.7,100c-0.6,0-1.1-0.1-1.5-0.2c-0.4-0.1-0.8-0.3-1.1-0.6c-0.3-0.3-0.5-0.7-0.7-1.3
		c-0.2-0.6-0.2-1.3-0.2-2.1c0-1.5,0.3-2.7,0.9-3.4c0.6-0.7,1.6-1,2.8-1c1,0,1.8,0.2,2.6,0.5v2.5h-1.7l-0.1-1.2
		C30.4,93,30.2,93,30.1,93c-0.3,0-0.6,0.1-0.8,0.2c-0.2,0.1-0.3,0.4-0.4,0.8c-0.1,0.4-0.1,1-0.1,1.7c0,1,0.1,1.7,0.3,2.1
		c0.2,0.4,0.5,0.5,1,0.5c0.3,0,0.6-0.1,0.7-0.2v-1.4l-0.9-0.1v-1.4h2.9v3.9c-0.3,0.2-0.7,0.4-1.2,0.5C31,99.9,30.3,100,29.7,100z"/>
	<path class="st7" d="M40.5,98.4l0.6,0.1v1.4h-3.5v-1.3h0.6l-0.1-0.7h-1.9l-0.1,0.7h0.6v1.3h-3.5v-1.4l0.6-0.1l1.6-6.9h3.6
		L40.5,98.4z M36.5,96.2h1.4l-0.5-3H37L36.5,96.2z"/>
	<path class="st7" d="M42,99.8v-1.4l0.7-0.1v-1.7l-2.2-3.8l-0.6,0v-1.4h3.6v1.4L43,92.9l0.9,1.9h0.2l0.9-1.9l-0.6-0.1v-1.4h3.5v1.4
		l-0.5,0l-2.1,3.8v1.7l0.7,0.1v1.4H42z"/>
</g>
<g class="st8">
	<path class="st7" d="M26.1,114v-1.4l0.7-0.1v-5.4l-0.7-0.1v-1.4h4.2c1,0,1.8,0.2,2.2,0.6c0.4,0.4,0.7,1.1,0.7,2.2
		c0,1-0.3,1.8-0.8,2.2c-0.5,0.5-1.3,0.7-2.4,0.7h-0.7v1.1l1.4,0.1v1.4H26.1z M29.4,109.9h0.7c0.3,0,0.5-0.1,0.6-0.3
		c0.1-0.2,0.2-0.5,0.2-1c0-0.4,0-0.7-0.1-0.9c-0.1-0.2-0.3-0.3-0.5-0.3h-0.8V109.9z"/>
	<path class="st7" d="M40.2,112.6l0.6,0.1v1.4h-3.5v-1.3h0.6l-0.1-0.7h-1.9l-0.1,0.7h0.6v1.3h-3.5v-1.4l0.6-0.1l1.6-6.9h3.6
		L40.2,112.6z M36.2,110.5h1.4l-0.5-3h-0.4L36.2,110.5z"/>
	<path class="st7" d="M41.1,114v-1.4l0.7-0.1v-5.4l-0.7-0.1v-1.4h4.4c1.9,0,2.9,0.8,2.9,2.5c0,1.2-0.4,2-1.2,2.4l0.9,2l0.5,0.1v1.4
		h-2.4l-1.3-3h-0.5v1.6l0.7,0.1v1.4H41.1z M44.3,109.7H45c0.6,0,0.8-0.4,0.8-1.2c0-0.4-0.1-0.6-0.2-0.8c-0.1-0.2-0.3-0.3-0.6-0.3
		h-0.8V109.7z"/>
	<path class="st7" d="M50.4,114v-1.4l0.7-0.1v-5.2h-0.6l-0.1,1.1h-1.5v-2.8h7.1v2.8h-1.5l-0.1-1.1h-0.6v5.2l0.7,0.1v1.4H50.4z"/>
	<path class="st7" d="M56.3,114v-1.4l0.7-0.1v-5.4l-0.7-0.1v-1.4h4v1.4l-0.7,0.1v5.4l0.7,0.1v1.4H56.3z"/>
	<path class="st7" d="M62.5,114.2c-0.8,0-1.5-0.1-2-0.4l0.3-1.7c0.3,0.2,0.6,0.3,0.9,0.3c0.2,0,0.3,0,0.4-0.1
		c0.1-0.1,0.1-0.2,0.1-0.5v-4.7l-0.7-0.1v-1.4h3.9v1.4l-0.7,0.1v4.5c0,0.9-0.2,1.5-0.5,2C63.9,114,63.3,114.2,62.5,114.2z"/>
</g>
</svg>
